<mxfile host="app.diagrams.net" agent="Mozilla/5.0 (Macintosh; Intel Mac OS X 10_15_7) AppleWebKit/537.36 (KHTML, like Gecko) Chrome/129.0.0.0 Safari/537.36" version="24.7.15">
  <diagram name="Page-1" id="GONff-qYJ-OStDDJqAUX">
    <mxGraphModel dx="1842" dy="540" grid="1" gridSize="10" guides="1" tooltips="1" connect="1" arrows="1" fold="1" page="1" pageScale="1" pageWidth="827" pageHeight="1169" math="0" shadow="0">
      <root>
        <mxCell id="0" />
        <mxCell id="1" parent="0" />
        <mxCell id="neBnvLhtb3KantFYFcH3-26" value="Mimoto - BFF for Inji Web" style="label;whiteSpace=wrap;html=1;align=center;verticalAlign=bottom;spacingLeft=0;spacingBottom=4;imageAlign=center;imageVerticalAlign=top;image=img/clipart/Gear_128x128.png;" parent="1" vertex="1">
          <mxGeometry x="-720" y="360" width="360" height="80" as="geometry" />
        </mxCell>
        <mxCell id="neBnvLhtb3KantFYFcH3-27" value="Datashare - Stores the Credentials&amp;nbsp;" style="label;whiteSpace=wrap;html=1;image=data:image/png,iVBORw0KGgoAAAANSUhEUgAAAMgAAADICAYAAACtWK6eAAA5iUlEQVR4nOydB3hT1fvHvydJm+5Bd+kESimzlL2XDNkIyFBBAUGGKKK//09xMJ0o/FQQRUBQkCHKFgWEMmSWll1aCt0baJs2bdY9/ycBZbRJ7k3uTdKSz/P0EXvPPedNer/3rPe8rwh27NjRi10gduwYwC4QO3YMILG2AXbY4+kGMnkwRgzuguEAHJJSkfDZRnyddxtV1rbNjh2rEheNJtk7cIE5TujDP7KDSB3cGZ2tbV9dhVjbADvsuLYJ+6LDyNN6Llf1mkVbxSchxcJm1Xnsc5BawPuTMMmAOLQ4TR6MuRY06YnBLpBaQM/WGGasTEwEYixjzZOFXSC1A1djBcIC4WEZU54s7AKpBZTIcNVYmSs3kcq13kBXSFr6EzeTDXsCsC/z1gLW7sG3w7tjGgBHfWUSU3GJTV3dQ0nUzDbi1/tEivq7O5Lw+89Aacod5vR3iZoN6y4wW8pVUPP6AWox9lWsWsJnM/H23HHkw5quJaXSXYPexPi826jQd7+nFM7bnnFY1SNM9LyhkUNJFb310h7Vc/vS6Em+bK/NiK1tgB12nLiIEyoNsptFItLViQTc//Xt5Vvo+xMWYc6dMij03essgfjXUQ5be4SJxhh7KTpJiPfQKNHw41nMnqwyFPH+QWoZ9h6ED1w8RWj5dCt4BTXA/mXbhW6uVSP4ebnDMT4ROWzKr+gvnjMlVvIFlzbyyun5Vt8r25UqwJhsaB3ALhCu+IS5I6pzD7R6uguCY9qRyDadtBK5f5WhH/ZuhuT4ZCtb+S+tA0jEqRcdr2k7B673br6qWTpxt/otYSyrHdgn6WzwDXdH14mj0W3ic8QvoquBybII/WdPQXL8mxa2UC9vdxbPMEUcWjrWF3Xn36Lahb0HqQmvIGc07d0HAQ0botuLw4lveBcADmxupZWyLMxtFInyYo3whhqneI7jdXdH0tjE29WNVirqZckg49msWoO9B/kHN18HNH+qN7pOGE1a9n8WgLsp1RBn91DqGxaD8uLLJtnh6CGBs1/ofUGWozQt16R67mOGOLRIfF1IZJaMXjTHhtqMXSDaCXb3SSPx9BsLiHcwP+4aTm7chzQhvfogauTrxK1+HwDOD13Jp3mn9+DW7q9w+4o1HtQnepL+ZArE0YUgbmgXdJ0wBVGd+xJn92Be6w+MDkfy0XNGy4mlBNHjpiCo8yzi4tdSX20kqMMUBHV4npaknUTqL+8h/9QJtqbIlPSiuyPRV7cxVMVyetPEe+sET56rSZMeMVh07k8yY+Mx0rL/RN7FoSUwKohVuYbDZ5OGw74zII6HcSJeDXuRdv93GCG9erI15bfrzC62ZR8nvZSey5JBbur9dYEnQyCOLg7oOLYHFpz5jbzz12USFP2UoO05uxuev4ilQOMxs0j02KUm1O5AWs/ejfo9urEpvDJB841cRe+a0A4O3NLsM+W+ukTdF0jXCb3x2fUEMmPjERLZZriFPrNenykd4f3HkeixX5kxxHUjca/vgkeEv7GCiQU099tEzX+5NpByhzk+6w/NYhPtqzPUXYFExIVj3pHVZOq6Q8Q7uIWFW9frE6UjrO9sHtrwQquZ37ApuOCYZnV8JrOJbcVyFc165Xf1C2ZZV0eoewLxDXfBnB0fkYVnU0l0tylWseHWef0+TAHtmxP3kPZ8NEO8Gj0DqbfR5ehKNejoX1UTN1/VLAQMB3hIL6Unh21T9T2RTdP5sLG2U3cE4uRGMGrRZCy5kEZaD/kv2409QVBUZOi9FvbUK7x+78Fd+7EpVqqAeuJu9Qcdf1BGbLqi+SivnJ4FcAfQbQJmxGcyW2bsVw1qs0bZ+WgWvc6bfbWcurHMGxjliZdWrSIxPcda2xQdecl6d55JYLtevLblHtIWAGsHycQCWvDSHvU7AN7h1Y46Su0XyPjPZ6LXy/OI1JXd0qrwaKCQGxqemLOzXR23kAhe6+PefiDCnhoDr6g+EEv/WTIvQGnaOWT8+QNK025Z1T4zqb0C8Qpyxdw9K0l47ARrm/IwtCj9NPKSb9d4UertwPt3Lpa68FofFyIHDyPNJ/+klUm1a14NByK832x6c/dcXFm71ir28UDtnIN0HNsNSxJP25o4dJzdvk7vNcVdlc6/ik+UZcW81scGsZMILaa/S5pP/rVGcTzAizQYsgadl6yC2Ml6QjaD2ieQ6T99QGZsPErc/ZpZ25QayMeuJfoFou1h5IWneW1RlnmF1/rY0Pr1j0lEv0Vsnx/i03TaqEmDd0SFwlN44/il1ggkLAABn6weuot0Gjff2rbog574aR3kpYbd3AsTTXb9qJE7yUd5rc8YbiGeJKgD5yB1uwrH9P1+ccipwZ3RVhjDhKFWCGRYNzT/Yxl+fStm95Au0mPWNkcfd7Fz8VdGS93Yvp6qK/k6612CoiS9TpEvD0XPte/g8+wdOMscJ8XMcVJwcxuOfTYTiyc+jVYmtRjc5SVTnhsVI8HmtIFNdn1KTr3/EmrNJqTNC+TtFzDut4/IqegwogvQvNTnLYhgE2eRHiH00sY/kZ+aZ7RgZVEp7iT/wUeb9MaO/4Om+r5fXDTCzn6P3d/+hxx+cSB5I9iXaN/aPgD8I4JI17njyLx180jSvqX42s2Z4zMQ3HWwqfbuvaHrPMTzJ5Mfdn6C5b6ekJpal6WwWYG4SHUxaactmUY2PRxZsL3TObzqYfxFbUl81MU47PjBmN2jJd9HebOIcHhl7VyqrjRrp5revroZ19Z/9/jvwwLg9vvnONSmCTH6IA/oSGaeXYM9YQFgPYEm7iFNTLFXS5bMD+VKnSZEQ7qQ1+JXYLebs22LxCYF4ukGx4R12Dd/EllV0/WlPv9BB6lthG1y08hw7GYPhKhz0a+BePLlqdKiZ2NEhl1JyrMLcWBKU1qec8aUNmnprR9xetG4mq79sQy/+HmRRmzrig4jT29fgs0cmnfmULYactUDPcREkL5lB0jmoM4wWXRCY3MC0Xa7B5djt6Fo5iLC4Ef/CQgWs4p6IyircqejgeqRvTDHb5+W7BrYkBh2R1fLK3H242do1R1OIqGFiWtx4p1XahpavTEWA6PDSH8u9Wlp04QMeXkoWO3wU0WZ8WGkHqRiJeo5V1vl9t+8EId6tDZxTiQwNiWQ8EC4H/sGm9o0IUb9ixo63MLh4N7wFxVYxrjHoRRTb3+LUWW/Vrvk4kACfhvlePDZGFFfg3WUZ+fg8KsdadrOV6m80NByLaXlOUdo4pd9cHrhZGiqajzENGsk5nH/IPfo1BwDWRWUZZ41tY02gTcgEVU/wevqRIJ/+xB74qJtL0K9zUQ1iYtGxOGv8Lu7C+HU3SYqYjEofzcKNJbzNJFQFf6X+zomlxjc8oBcRQt7b1S1SSyg2awq9msdDc+GXeDiF3Xf2VKGkrRLuH35BCpyDb4J4qLhd24NKeT2SR4gk9PLnv1g/FhA/R5dSdzrJi0lrh7wNSa1+stQkdL5a+nYhWux35T6hcAmBOLmDJxdg53RYWSoKfenqKIwKG8Pbqob8m/cY2jF8UvmaAwo/5NV+ZIqmtRwpbJ9uQoqIe2Ki0bcuTUkwdT7GUqUkl9/+wrpCVdwLf4QkuMz9ZUlQ37TDrMCudTfyCsXF6e8DqnYaFxsTc9ZNPZoEkyLCsMzVh9iuTlDevgrbDJVHFoaO6Ti7/pdMMfjC0gZvSFqzUJENXj+7k84fLM3a3Fo8XIisWsGST4XxKhHMSv6iBIOjqT14LlkxAdryTt/3cKK/ARM/+krdB5fLf8h/fvd/lStuMG2bm8nGbaN+JSNOLSI17+LX7q2hKmBJnjF6j3I+XX4MzaKGB6rs4TJJbhxsRFeClmLUy6d+KhSh4+6GCtyZ2G4zORNcDplr6rrj5eZv3kz6jHiouF/bg0xeUJ2SdEcsTlJNV6jRel/4LMBU5Gf+m+vEtSgYYxT57cS0ksDDK5q+TiXYc/oxWgfxFpPOmRymtV9BuIu3IDlfc0ewqo9yKq3MIMvcWjR3BAjUpWBg7f6YUvmGAwsMy/mQGNFClbmzERqSrQ54tBChkeLpppljBHOX0ehTE5N9suKr9IfZZT4RfTHooR4DJgzaER3tNn5Cb7L2XDz2LkX33R+re1u+DiVVbvHSazE9Nb7cO3lWZzFocXdhYTuXYp9LlIj5/sFxmo9yNp38N6LA8lCvupjigk0J6sfIqQATrh0wU6PofjTrS9SHBuDkprfC2HKTHSSn8SIst8woPwPOFF+h2sjflG235dGja4C9WiNSO10+H56irISGVIv3DDuBfzaaAxc9hrZa4ptvXMPIL7K+ErvcJffsD1wdLXflyulyCjzh4YRoZF3HlwclNyNoABTRkBzRaDFBFRGkFJED3XdoOpnrSjzVhHIrDFOY798VfEzn3WqL4hBM42nO1HCAZmOYbgr9kYlcdZNuj0YGUJVWfBkqr8J+WTHdc2KMTvUsx7/vYsUouf64+kRPfDcgA6kD4Bq0UqKSujFg2exZ8Pv+PmPM/onsFd+wu8xEWQAF7t2VgzBMwW/sS7/X68Psdj7fRCenh4qB5gMEZgcMVBZvdL4TGb9sG2qyZVqy/sYWT6BjkdE8NmA/22Mz471dnesRLRPjtlfNFUBTKIEoMYrEoNBPc1d1FfnIlyViVB1Nvw1Rbz3FjXRxFcU8dU5zVcKzb0/tJszyLi+6LfjY/w8vi95s1EIaaEvYaerEwlo0ZB0e74/md6qEbwTU3D1dhlKHy+3XzVMM75T8SgXUSUrmy4rmmFM4WZUUPapCo9XdYOzSI4uTuZNqWgFoLkiBnNRAnpHDKhr/vtFeJJYFUMLjmYZ7335xrIC8WwYjC5L/iYSlwhtd7wtuQs2XukBD0c5WvqnmywU7eSc5tWKZFmuRXKadDqXXnNzhmTrIqx8czxZ7u5CuER3JE3CScdZo8hkN2eUHDiLB968TXpElbyyb8d++QDnttJzqC8xvOn9a/lwPJ3/O8qoF+cP8ldlbzRzuIymjtxToVAlwFwTQ3NBApSKWA1keoSJe6XcoceuFFO9y89CYNmnqvOircSp3iPnAe5WuWHXjQ64fjsYw6LOQiyinKtl0sX3v2jbx1FM5L+lMfuPrsT+rq1I9cE8e6SdW5DBlOJSfBKu6aK6vLV/L3H1alTIBGCNbAqy1CFoK02Au+jR6cvpqvaYWbwCS0rehcbkE8AEl5QtMN1jFacXm1Yc6r8loAViVj3+Qzg8Ey0eufcGszG/AsKOhR/CcnOQphPfIg2Hf2qoSIxPFt7qsAMTWxzmVLUqXgKU1Q6BAMg+Gao40T2WjOGpPtn8tXTawptTKsmkb2uYSFBESNIRIskGQ8XIVIciWxPKU9PAt75TMcWD3ZFzJodAc01S4zyDLZml9FzrNbqNV+5vUhOwjEAihwwlzSftZFv89ba78EmvDTX67TwOpYB6rwPXt5FVkfRVgpiU80kvmmZX/7qW7NS9Oa+1siBUnIEbYY0hIYbnz5pUEZhkMS+P3N4bmi+f2a5+zeyKWCD8EMsjwgtxr+8nIgfWs8BTudHIkflgaBSLOZkCYNJqV3AWUX2GV4Hc0XiL5lUs92essOainb+0k55FY8dUvWWYYgImScLb+7hxPVEHmZImns4VPsCdsOMSsRTo8uFJInHm5LejZd2lPuiw/hOoGSMmKmtPzyEU35ZNhdqKgSRXlM3Ue425TaA5zZ84/uHT3g4/dg8lgnv/CiuQ8P7jiMTZ5MMw5/Kj8O7R8YYLPdH5j+5xqLKPVds/UtkTKlq999JOyDVnJQAjyEvM47M+khVCVPwwwgnEs0EDRI//xNxqlp4eji/PGTiq8IR3IGoqxjlFG6vaoIQUKarqASOZmyJAJdwfKDZA1OvVNiJBw80KIxCxkxidFm4jEqnZyyUUIsw5NAW7U/VEi3GwyGKGzXJbUw8yav1wU5mqsEf+n+rmhsLPiZY+5fBNS3/iK1T9wggkcvAU4uAax2eVy88NqfmCbrJby0TiyJ+9ZdR4jAhLUPaYSJlbIqGGVo/jteppyTpniTBjCf6XfyQuDoh6Zg7f1R7JbIFlZ4ZgTvvdj/xe53foQgF5LRlrSeg/YQ9uy+Q0M+E6cnTxre6FJK26/9LSPvWeEYG6MD3h9x0XbfwDPhA9U0rA3LLcilqbQNHg8c1Eo9ZcYLbxXTf/Amn9+nwicY7mvV4A7x0bj2eiTyLc89EjAsST6hzebBRZcjFzLqmQnjmXRy+klTEpN3+iqckZbHeDKYJ8IGkYggYx4WgSE46msY3Rvl0M2rs6kfpeohKh7WfFw3YwWSK9flVCMbutePaWq8y2cp7PbfL7Keo1iyJdFicLOfl/o90OfNZ7wyO/06SJwFy1qb2Q4l0pmh37bzK//JLMHBDKVbtHa0S9PJS8ODEofzTj4hslRBtsuRjSEs0cr+r+rTooASot79mw6Lj6ucUnNKxTzbGBX4H0/OoIcQ/pwWudj+EkViJ12nQEuz9I3EorAfVBB6uOQorlNOX7JM3KQ+nMjqNZVH+GKaFw8/VA1xcGotO40SSyzVBLprZwJ2UojvDT7aZTBlDvtdoZp8reG5VN+Uwfx99AMaB9O9Jg0BLe6tODmooR4FKKLiEPvEiJA0Bvi8zy8TGVvHKaOP+Y5tUpe9Wv/nmLnsyowQXdIijlCtw4dRlHVm/FrYS9CI7xI16B0ZZ4awxw+R3j3bfo/k1LwepcjkA4+LpAuuUaY9KhsZrgpx8USwkajzY5JhNX4rOqZz4QRVj0LI3yeBazZdFx9Qsx3yrbfH1Os71cZUMBg5P2nsd7bUbSz55uRU/+vJIqKkwO9saGSe4//PtvWmbdtYRBjcQTAl35S7PAz6cJ69eXtJrOPtQHD2TPfAlBbg9e1rquXTvMUgj7B8orpxcm7FKNqVWJLr2C3DD9p2UkpifvWX8bSVJwPazpv/+vuSq2yP6HITZc0nz88j7123zUxU8P0mAI53wR5nI081HHVSICRA2Fe4nLVTR/2Rn1K23WKtvVKnFoKckrx0d9XqarXuhD7+ae57PqGR6Ppmq3wMFMo0xoIZ4dXQ9cDqHpxXyph/XrTML6fMiHMVzwdSnDoEaPxkkjXhT0DuF7LkLjM5nvR/yinrD1GvNXpboWe39lXbqFo2tXw8W7kES2ecrciXy0QzJW+017xNVdd6683OpbNg7ezkS6I4X53dyKzO9BgjpaxC//cS4UVE/uqu1FxHFqQMrbTnXlm4dUQ/v9rJqaeteyRz0FQ15K8cP0lfTD3i1ozjWTs1MRMFjk/R6cRI91GTbi1DC2qXhidD14m1uPeQKRerujXlNBl3X1kXwnpMbfEydA1EQNEPP+UufzmT/6blI2/+ocs8esimyV5PhULOn5NE3cs4prYlGtOBZ7v4uRbjUcYBTbiEIA9/HNxGbPucwTSJPn3yISaYC5RphCicINhRU1+yGJwyhEsazCXNbIhkua/3RarxpwNIveNMNE26e8WI5lw6bTL4Y+dd/dhRVf+8zCf71rPj1NbCgdzsSWYnYR6w1gukAcPVxJWO8Z5hpgDkVy/Y564hAKUXPuIvk+Sf32y/vUn5lpWu0iae9p+sXQAVRRYTQ6/KseX+IVz2qJrR7gbDM9CILcSPeBDYlZx5BNF0jE0+Pu572zGjKl4WRH4kgGomZqtt3+3UXH1cNn/qH5mC/7ahVJe0/j8yFP0YqSGoPSaSfkW/yfxXLfNwxWQzxsRyDa53t+N4lZWZFNF0hoH97X1LlSpTHu0iBuwEDcRQV4Glx8Yj7+Wz1j8QkN68ASdZLk+EtY0LEbLSv6103BhVRgpsfXOBTUB6PcqicLehziZVMCQasA0YguIcTkvBimCSSgfQxx8etgaqN84SWtYFVO5AlIOqtB6te8T7L3hub9D45puOTpq7vkp5bg+8mjXEl51VT3b5EaGoUvfV9HkIRd4Hgi0eWKMLn5CuKCDIcw3Y+cmJUO8R9EQ6JEz5p6s2kL1i1e+YBE9Ld6Qv9br7yMMM/bnO6hMoDJFOtiwUJDsOi4evrnpzXfVqptZYHSNhjUzaHT7o/U+7TvIa73qhPEoLns4iT/7j4AOzyGIVnaBFkOoSiW+P17nVBGFzPZR3Mb7SvPYmzJFnSsPMX5oZWr6I3Qr5SNTYmlZZpABvx0gTi4WjXBiZhoUPnmGIhZxM6qCaoGkk+Svc3eZkzO+13XmT0aw5a/RnZwvY8pINCcMRzJJMmpFV4LWobTLh051d1RfhJbM8fAX8MtbUjfTcq2R7Mo5wxc3IdYfq2bWVscWsI8ikwWh5a8Enpp5CpmEq9G1TG+3Iad+0/Rb7neR/woSGDNfxuZyA3/CfgYnRsc5ywOLadcOqFZ1GWsqDddNxxjS/cwkZ6gBobhLpCQnkbi8FiG2IBbJt8rk9PMLq+gc3IGTE56+aTw7HuYnpRKOTmi6jwaYqrP93IlQTphfOk7Gwwx3ctJJvbA3KDPMTBiD1QsvWVebSs2yePDhB4kllPuCaFobYZAPv4R8zPyue0eP6mUV4KOfR/jKqoopy+cuOGRRZFCsS8Gh+9CqrR6eCBT0fZAk+p/Dw2Lx9jLicT0jSCcG+cmEJ9mjYjUozXXRoSgZ9glk+5LSqX7vvoFG3g3qA6TkoU7768G5xhnokhG5/KjfYBHhW3DVafq53jMZZvXs5gavAoMi+l0h/oizoliuQkkuNtzthBdI9D1DjoE648Fq4+KKpo59n2ML6+0ocNNtYRvd2D19UzKKX+5yJtC3FKDr31m4oyLcLsCG72fxy8ezxgtN7GtaBDXurkJpH7XEVwbEIJnm5xgFfn9cT7biPdTsqx0JLaWI1eAGfs+XtROAbjcJ6vvho+C/iucYff5rp7xHKmRXTUdwwPBKWw4e4G4hUQSB9dWXCoXisfPgbDheiY9vXQTfhLEoCeECzdQsGQ9/Q+Xe16/vQwl1Gyvc6Mcd+2GrR6jar5IKMRtVBAFUaeRPTGcS73sBeLo6celYqFo6XcLT0Vc5HzfN79hoVxhH1qZyyc/YbVuj48FBWo//FT+gvBG3eczvzdr/L2ouQai4Ht7hIO7YBiXOtkLpF6MTUzO32jPPV/5tXR6+MttMC9puh0d2vnbpgP0IzZl/6rsDcaCqfgvObXEdceHwoNJKcTtVBBHPBiO92xNjOe6fgj21vu37s2lYiEY3vAUXmgez/m+aZ/CKqce6yqvfIoFRSXU6DJilpq/VG9sOeDWV/dfUl8DSU8VRIHVvEsCwgLYz0PYC8Qz0qox9t1FcnzlsUaXco0L6Xl0z/GLMG1N2E6NlFeCrtiOb4yVS1VZPthjqlsjiDupIInTgOhx9m7REC3Y1sdOIJ4NgonEOZK1lQLwls8O+ClkYDK5ddmzl0H4JZQnkB/2YZNMTrMNlSlgLH/YtCDAHyJfw2/Rjs3Qjm197J62ek07C56NygBtnW7gDd97R8M5CqRwz9+4IpRdTzKZBSjdfgQrDZUpZ9wtZ9B91DB+RqhlQ7BOzcHuafOKMsnRiw8aOORje9hnkJD7E60SoovFy4Zfj1Dew+HbecD633HI0HUPkeW3nByJ8cBcjULAOrchyx6kSVe2FfKJlCgRH/keAiQPf9EETB47s9ftwxrBjLOD+ESckcmpXpeG+mKDIzBBCBVnGS0TE0FiPd3YeYQYf9LEUkJc/C3u3u4tlmFP2Ifwk9Swccsi751MTm8dTkCSMNbZ+YcDZ6A3LFKUA3d3IHOJcbzGpphLbBRYzamNC8QtJBCARQeTkQ4FOnF0c02uuQALL5PtR/CzXGE/JSg0vxyB3uiFvmJupz35oIvTCVblYhuBleckG4Hw55/Mgq7O13As8l20cTbgXc1iP3z7Eazn1TA7NXLwLI4ANfu3Pe2yH1JSZTFbOkhPoqmjnpfqY8REIJZNOTZDLIvs9ojAYK7PTvwesRi+NQ2rHi1sjKy9fyOFP+vs6KO4FKqkVHq4pms+4jt4zm2jxWyZ6/kF67KNw9CITTkWJ00ahrFu1US6ulzFvvDFWBLwMxwIi+7ByGG0/acou37WDi/sOKZ/HrLAe75FJus9nQ5jhCv74/ONQ8FqZGRUIBKRmpcw8jXhKy7FtpDPcDBiIXq6XmV/o5GwMldugbu7rx2TiU/EX/quBUvy8J73IsFtmOXxNUQc4jEH+5Lq0c9rwKhA4qev89s+4mMMaXRGF7SYD7Q9xnfBK5Ec9RqGeHB/lomRndKULLYZZO3wQUIytBPGu/quT3Jfhw7SU4K1P851E4a5cnZi9ff1NH6g3WgBR7E6cHjjM9D+aLlQGIFtyZ3xe1ocLhaFg6HGD983dsxBb9fLeNbzBDo5p4CYcybRldGdVDNCrhkt2OFIeaVWJPRimyakxkj/YsLgcHBvdM+Jxzklay8PVkxzX4WVfrNMuVUUFgi/4lIYTE/HJiSE68P/08o/XfezuPsmKDQSpOQG49axINzVuEJO74X2diIq1BPLECgpQbQ0F66P55AwA1F9473YtXTwluXUDjuKSmAws6+UKLErcBjGF27EkSpOHud6GeGyHct953C+j6ru5XKnFRpvwHyB6EUqVqNFaCZiInNBiy3gqiWhEIUbF0jBXdSNZDe1iMwCGF3PDZAU4mBQP0wr+gbryieZfFbEQ1SK2R5fYr73QhAueWAowBQTaBIlulyWQVLGI9HIVhkvT7UuzYAZ8VjZIm6l1iXIMUJZqn0OYg1YPQDaB/o7/1eQFBKLUa7cXOUcoMQEt/W4ERqFBfUWcBKHttdQJ4ihOfUg0WuQG9GfP+M+vCSbF7kDtLkGzEXhcteToAfHJo1gn39YB72T9Jpo5ngVWwLG4abqHfxWMQJ/VvZFgqIt7jKPnl+vL85GrDQJg132YrTrNniLWef5+RedOP6WAGXV+gOjr1venmhxGANaqgHNECAFsAcDcQt2x8nT86jl/RvsQN9uujEaONzCXK8vdD9a7mq8UKjxh4So4SsuhqfIvMGALj346RrFgcfn1zXB3yufAOLmGmhEAL3Fn0iIDwNxW7Xe02FaShkPHKrsgz/lfXH8kkoFzOatfTusYRXIwRjaHsKUXqJGKKBJEgN3TZ9J8DomIiJAohMJBZNmftXEk4G4gxr6wrgWavww/877+KH8JSjovd6Sqo6Y3a6dugFTREBzzHtZCzJpEDdlIApXQpPMLk9ENbTCiNFA5Fd9zsFQgi0VY7D47jwkq1ife7HzBMKkm78GJdismrgCkjYaMOEMmDQxaCExHrXUg9HFcxWFMjVuJqarwjGpaA3iq3rqr8PFS4BJkB0WOFjbgIehlQAtsGGB/IPIl0LkqwZVQLdXQssJoHhoUVD7tbpQiHwYED2nThTUEZ+XvIHFJe/+O5TSBwmP9bEfArEKlj+AbgAmR8QmjLTRHWzBBfIPRAoQFrvgj5OjDsaQ/F24oGTlvq/FJiJAPoEIH1+UA7SQVe9hNLqB1SKVsKFA7YduuUe5iAM6gfiE2VR3/4RgsZctG2gpK4c/ozlibFYgRyu7oU1OAjLUrLySH8Xd16oxvJ5EgnyMndKxHLqoN2rjAjmfT42uJ7MRCH+ehixJVLTCswVbkKcx8ShKUBPBD3nZeZRgX1g+zqg+lKzdxY1ubrIRyB22rfFBFZViTMEWFDH+plcidQ3n0yY7xmnTxPRk/VbEaKpcowLJyLecb5OGijAsfwfS1KyOC+vH3ZeXDPR22BEXrVsYsR2BSFitY95NLKByY4WMCqS41HKZYD8teQsHK/uaX1GjDk35sMcOO7q1RGdr2/AIzveS5hjBeIQ5lj2IRc5WnK1qgwV3P+CnstCWnfipyA4b2jVFf2vb8DBE+1S7GxZIfCZzg01dbHoQgyfF+GJF2UyoWAQeZgPxDW+FsFb2/RALMb4vsYnclQ9DfA3vuWWUUlYBtIyuXSdcf/T4arlSigPpsTia2QxXb4civdQPFap7u9ve0nKEeRYj1v8meoVdRtfQa3CSqIwacUPVEJvLx7Kxly0EccOGIvOCPTavwPRrD+1wNtDadjyOKJBCc1P/9YxSep1NPUbXw1ykEJcdFJVtvNLd5ZvEAbhUGAG5WsrKSA9HOTrVv44Zcfsw2EDizVH5W/Gb3HgaXy7QStlFTPOyiaSjdZlVb2Hh1GHkPWvbUQ0KqE5KgNs1D5JG/KKM2ZdmvBdhtWDcesLCc0l3W5iVYWpQw3P4edjncHV4dFslQxWGRlmpYATYZ6If9opB8lF2sSjtmET2DpwP9iU2kb/ycTSZBMyFGp0qFP7LFa6lLJK6snIPSLxWdZYEwiyB7E1ri84bPsbX/b5Dt9AHEbi/LH1VEHHo6DhuJJKPLhGmcjtx0WjEVRwZpX64WhyK03lRuFYciiyZD1QaCcQiBn4upWjknYfuIVcR45uNJj45Ztknqk/BZDBAyaO9SLGcprARB9j2IGg85jkSPZa3HOMbh3yOsU3vRQd1vSVDFRVm24JWyjIwzcsEXxU7bPhiNma9/iz5ik3Zq8Uh+L8jE7AvjX0upnZBqfim/yq0DjAQyNwIVA2oj0qAigciic/UrO/3s/pFNvez88W6ffm0yRbWwKwDU3EmrxEK1X6CiUMLcXYPR0Sc5RPlPQFo56aTBxs/26zUiLH4xCi0X/8ZJ3FoOZsXhY4bPsHkfTORX+5lkp1EAojbqQHHB8u+FwqMZ+j9B3Zjm8qiOyR67CsA3Eyy8jGq1FL8er0jEOSPo+jHR5X68fB3wemt9hzpPKPp+9qIP6K/nn5LFYFUVWNEOtyCi+hR7/FLRWEY9ss8/HytB9SMac6+DBUhqbABjmY1Q1xgGoLdOAVP0aE7auFNQe8SnZ/W1wnqj68UswsuyD4IaOclO4hP02GcrTOElwfQ18DpQH5Q08U9miDleJrQDT1RfHHzb+Ib/u+GrAupwFPOh3Sxrsa5bUZeuTd6/7wQN+7yF/vcSaLE1mGfYZCBFVFDUCWguS5Gw/+o3bNkxl3dwcndvTz7nElWGaKkDLgreKJHCQa9OV3oRp4ouk7o/7A4tMipK3bJh2JC0Y9offMU+v+6iFdxQDfycMS4XW+gXGk8emBNEEdA0kKjYSsOcBJIYeJxk6wyxpnzAMNP1Hh9kNZDXkHsINbJ4+0YwNEFeOHLbw0VufyXHNfygwRpvkLljB4bF6NMYZpIrmdSg5l5H4e9QCqLjLoGm0SZDCgUpuqHcMXTbywUupEngs7jn9Itfujjzt17PwKinZMsPT3cpHt/P4W9XMpzEch1qq4sMsUoo2QbDLDNCySm5wC06Ndc8IbqMk5uzhj6juEXzRVWHhxm8/X5gcjjvrKl2WkgG1ZNsBeIskyFootbuFrEirx8Qap9DCdMWbMOLp7mZCd5spmz86PH5x6PUHQbyLfM6YhShRvePzaO0z25xfRCfCIMeGhVh9uZ9MKE7ZzKs6VKce9HYIh3cFtMXPFfwRuqi7QZ3pXE9DScqeamRRy//yUhj9vBulOX9aeK0wc3geSeOErVlcJkZCyvEKTaxyGdxi1G7CD7eREuaHvdoe8sMbhvptYAOcIPlR/mQlEkcmTsow2t28dteAXOAlHLGRRd2M21EVYoLBYbQoQJX30CJzebClNj00xb/xGJbNPdYJnSMkDDLgI/n5zJZZ3GP/9wAjivxHIP+1OYuJ/zPWyw4JdLfMO7Yc7OpRZrsDYzYM4w0nrI/xktJzd6vFsQbpWyC+6x4yjdKGfpoPgw3AWSE/+HIMMsiWVf6CSm52uYtn6+RRutbTTp0RIjF6xjVdYCc8iaKJIbTRKlY80emDTy4S4QjUKB7KM/m9KYQZxN2/gxB9Ll+Q8wYI7AzmC1lMZdIzFn514idbWpkKKPw1Djj3BFFc2LT8QJU+o3LbJiefZhk+7TByGAGy9+kNybHr90NzqO7WOVxm0VryBfzN2zgzi7h7C+x8E6UzovJ+OLO3+dw/bySqhNqd80gdza8ztVlF026d6a8PKw2hcMwJHM2LgXncfzk5u4tuPk5oj/O7CHOLu35HSfq9FsZoLQwMv4HtqKX2HQNcYQpsfmzTvF3zDL3+oBSKSYuHItwlrVt7YhVsXJTYp58b+T+jEdON/ryW4uwDct/AxHpUrPo6f+PAOTX+amCyTzz3VsomMbRTu8Crd+WFfi7B6BefGnMeTtZ61ti1Vo0iMGH5w6RMJje5t0v6MDEGDZF12kZ77RY7kf/Yh55rRhukBK0/Jo3um15jSuZVT0cQTVs4205sTZvT4ZvXgzhr8/ytq2WJQmPRrgtV/3kfoxXcyqp6Flg+q3CUyDyEAExdxiem71Lu675w9jXvqD1K1LAVSZXgHFpz3XY5rHd2aZwTOEPPPBZkxb/w6c3Oq+39aAOQMxd/dx4srD2f3gAMDNMnMRAoq57XcaLLPnBOLNbcc8gZTezKIlaSYtn2mZ3WYPwj2L8ZbnUviJLBYCmA1i0uX5JViWkY2IuLo5L3HxFGPOjhVk/NK9ROrKz+EN7XA51jIO09Ni96N9sMHoocx3u8AqoIQhzE+gkx3PbiPpMVoHpGFBt826fzuJFJjpucJsU/iGuHoFY96Rsxgw5wU4utSd3qTN8Pb46PJZ0nrIDN7rDvQHXF14r/Zh/F1K8G6XbQbLXEune89fNz9srvkCyTywhaorOQW4buabgf3PLoSH9MEh/4nu61FPdNtsc/hG+3Yl45duwNzdGxHWqnYn5vEK8sTw918mr20/SLyDhQn2pu1F2sYCTuyib3JFRBj8MuJTBLkZTg61fCs+56M98yO2UTUDR88KUi96CJvi0fWysWPkxwjxeDQvj6eoDN2cjmGj7DlobCvdnQ7iF9GC9J42EyEt/JCZdBLld6zjW2EKji4iDHl7Amb+/Ctp0Xe8bllbSLQ9SGAAkJ3Lq4+dVhxf9/0OI6INR6FKSKabX/nMVgSi5c61y4h4eiIRO3oaKjawwTkcGDsfAa41B2oIleSAQIPDVTa7sS0m9WM6kL6zXoTUvRg3z1yEysZ10nVCB7z+2zYSN2QWkThaLlWztgfx8ACy+HHbk4pV+HHwckxsccRo2ecWYGBGPnhZGuVHIFStgVKWTwLb1bg82sr/Fj7q8ROW9NgIqcTwjn8np1O4omyGZFUML6YJhNvrbU4P//35PWMCvGmggwS5KVmwnfFhUBNf9J0xBSMXzCP9Z3/GyWWET9xdgaCAe71IqRnPq289bBn6KUY1Mu6tfi2d/vWfleZPzv+Bv4mnxEWMvt8nE4nzv8e8Gnrl4eOeGzC88RmD69WPo6EiPJV3AEerevBmHp9McV+NVb7TdcPtf0hIpjsWrMW8PX/jqtUMC2tVD31emUJ6TZ0HwDpb2/rIyQMuXAEqOLjFSx2B1i2A0PpY5/ciJrgbj3475D+0w96/ccY8Yx/A68qMd/MBEwcOavJD28A0dA+7glb+6ZyE8TB3NN4YXbAVR6psy0Wqt9MhbA8cBQ+RrKbLTG4xvbD1EH7+KwH7/0rAZbkCpn0BbImIq4/Wg59C097DSHS3wQBsN0c8wwBFxUBWLlB8594pUvrY16Mdmvn5APWD7vU+949BfFLvP3jT6wuD1Sck003tpuA5Pk3mfenyr6+wumdrMoWv+t69sxAflbwthKmccCdlWO77Ol5038DlNkYmpyknLuHc6Ss4ffEGLmQUICU5HQVyrlMXnzBXhLZogoBGTdCgXXtEde5IfMNb27QgeET7YjoQrD/TW1EJvdBwNNqa6rWrD96furhoBJ9bQy5rOxQ+6tMOt74sfRUf3F2ACsq/S7ybRoZI1S0EqfLhxdxbOqwkzrgt9kG2QwgyHcPgACW+9J2NqR7fm9scAyD3WjpNKbiLrJRMFAAovJYBWW6Ja8XRwtZMQYkrwFAXuIe4QiytB+/AIAQ2qI+gRpHEP7QxXJ0l8HAHxDaTt98iBIjykBuh32dvyXo6573VWM53u4K8lj9/Fe/OGUMW8VlngiIOH939ry68pTnLwC2qLqGT/CTaVCagg/wMmigNx3G6K/JClYcT6vtng7hTED8KYuY7W6kR43h2jC5PxsmcJjib1whpJYHs/xzayY9WJPW8gXpegJcn4O2JRyZFdZDroY3RyKF61J7cYprUeRp6ZBbws3L1MIJ8o0E+kF75Cde83Anv3mt/V3bCpOI1uojiXGhZeQH/y5uDTpWnzDNAQiFqrIEoggHh+BKvVDliw+WeWHJyFHJkvubZ8ThakTSLvjdur6NC2ew/BqPdqkWequz1Km0WnwjTk4gYQJB+urwSmowCnBrZk7zANosVW0IdsjHJfS2CxbnI0wQjX2M4f2SE8ha+yJuLZflzEaZmlRrbMAwBLRKByRbpvj2Rl/E5eIVKiq8TBmHsrrnYmtwNMqUArhhVCiAr597mnLurxZwGLUlLx4vo7vzoUu93O+miFdth2GvRDAQbyF6+iRw3Z1R1bkF4P/PtQNRo53RO5wU82GUP6kuykaOujzuMzyPl3ixaii1Z4xCruAgR34tJagJaIAK9TUC8GV3k8MepUkuw4PgYTN0/A9uvd9YFXhYchRLIyL4XrdLJCXC3zlFmIYiQpGOo64PYC+l5NGnE23hRqeYerYQtgvbFLlJI8nYjw92F8BsHvwYoBZJVTXBO0RaXZC3Q/fpR9C8/IHSz9xBTiGPVEAU/EGHa3QDM+HMaDqbHWsaGmhCJgKgGQNPGFo8aIwSDnPdiV9C/KWoU4+fTXpsP4qSQbQr6rckVUL+3GmOXv4bDQvZWuD9vjXFMRhOHZKgvSoBy8/0wWaMh0CRKAGc1RN4UO1PbYfyuN3SZtKwKwwDXb9yLl9uto1Uix/BJ+UOrmJv+pF8ILQ4I/dBqOX0VmRIxcrvHkqFCt0XlgPqYA1BmQXH82zhBVYYU89LGYU78ZKgZG9qeUCiAWxmAuzvgUXuHXL6iYrzs8T0SkunWke9ghsoCsQYtttxxfh1+jo0iY4WqnzJacUisI477Q7wJOa9iW5l5p1YFRdvNtm8NhFnHNctcukqPIb5+rwrvAdS3tNyck6zssdjTNOZ9vFlUQg0eATMZCjDJIquJQ8t7hWNtWxy4r+LT54FM8/KPWwspUajm/I9OtpQ4YEmBpGYhZ9KH0PYgvLoCaGHyCZg0601ClxQ9g6W3Tct4ZBXOnLdYHg8+OX/o4mv/2wZhctTowaL+CqlZyKNAas/WZDhf4tQOrTTnJIDKOptjP5d0wRsFL1ndV4wzuXn3jsfWkok7TT62vnL5c+9aul2LO/TEJ+JyVChcWjQkXfmoj7khAs2zjl9SvtoTgzLmQVUb/QUZes+jtmGEze+804qSi1g+7AWU37F4CHmrPFn7T+HYyF5o5etJos2tS3NJrEsOb2mUjBjDM/+LWyrDO/k2jUIJqNT3ehIbhZYVpWBRl97IT7XKmNAqs1q5AsqOUzH6eiY1ax2bygDIrDMxX323L05Wmq1v65N6815uQdtEju8nj0R+aoG1DLDask9pOZT956CPTG76ypbmunWGVqmKQMwr5JZA0qY5m2iV7FBGKKMrnxuEpL38BUk3AeutiwLILEBlu8nolJFPz3O9lyoBmm8d8/9b8DyqqJV3yfmkQg7cSLe2FQ8jp2unDcOpzcYjNAiMVQWiJSULxf3mYOj1TJrI5T56m+h2ry1NmtIff1ZY0b9KKNJu3UvEaQPQTW9OwpHvrS4O2IJAcH+P5LkFeEEmp6zHmvSudVZeVt4eABWt/Y5/1dD2ItlW30BU0F8XvIj9yyy612EImxCIlvPXcaX7DHSRyWkum/K0wvIC0VARNpfxsjptm6QLk+GbJZT+umASdixcb00jHsdmBKLlwg2kdXgZHXKL6QVjZanc8gJZX9IDtzW2FU2HV4pvAyVWSUVRRje9ORQ7Fm6yRuOGsCmBaEnOQPagN9Ezt5gmGSxohb2PDSU9Ld6mRaEUyLR4LyKnK58bjP3LOCf5twQ2JxDc60lKOk9D34RkWu0A8r8IG22qGvkqT5yujLJso9YgJ696rCqBoLKiG/SLoZ1wavMxizRoAjYpENxbAi5uNwWjdh+nNpEXIV7eDNR2vy7+KK8AZOZn1jMGrSg5j0XdOiNp70XBGzMDm/+Lj/sAr37+M30VwKP5fiWW7ULKNBY4T24rqHl3uH4EmnxsA95u3gX5qUWCNsQDNi8QuQL0rRX4evx8OgjAv/44xMJOqNlqH8s2aE3klULVrKDH1i/AF4OnoiTPYmc6zMHmBfIPmw8ivsk42iIhmd6bzLlatge5oajFTolcKTeenJ8rtFKWRv83sjdWT5qPqnIbzxnxgFojENzbdS/s9SqG7jhKvyTulhVIvpqXSKq1g0p+X+70bu5FLOnRCQk7/ua1YgtQqwSCe0Hp6DPv4LWJ3zK988q5+3CZym2N5XLPWB2lkpdqqKIin256cwLmte6CzAs2P9+oiVonkH/YdIIebvW9sl18pmarJdqT0xoiw9VVePDJopWyHKwYNxD7l/2I8mLhl8UEotYKREupAsywbeqxH/+tnp1XTtOEbKtO+l/pw7x9kAp64qcPMb9jayTt5eSAaovY9llLDnhK4bJ/rMOKuEDRi0LU3+LGF0hVCh4g0jYICQY6teV8m25v43/PvIDkeOtl2eKZWt2DPEypAvJO61Uvzdiv6pVZSnnffHIhtWbhxXwknA+iyen+5XMwJ7xdXRIHrHUmXUgSC2j6piuaHworcC3UHW6+LqQRH/XulbXBDVUQH1XZPkGBgL/x9Ay0UpaLHYvexZb/m4xj6/+CWmlhByDhqXMC0VKphvpULr20KpH5CUBuXCDpIBUTs/IBnKxsjIQqXrRm+4SHAN5ehkpoaOLu/2HZsGeQtOc4SvIsHm3EUtRJgTzM0Sx6fmcKs9pBjLK4QFEcAJN8RlKUwThY0Yp/A22Rxg0B1xpzmDD0+rHt+HLUUN2hJnmpyvLGWZY6MwcxxPU7tHTmH+qPfL5Q1JuyVzUwr5wmc63DQ1RnX5LVcai2Yqekf333Nn2lnhOW9ByN9POCZHOyRep8D/IwSga4WEhv/HhZ871chasBLqjn68IuTZyairGupI/wRlobkQho2Uz3X91exqFvFuG7F1/A8Q0HoFIw1jbP0tSZZV5TeaG5qNcLLcQze4SJegDQOzNVUxHCUr7Fnbq+ox4UAFpf8jcS96zBn//78UkYRhniiRfIP4R6wHtiC/HIQY1Eo+ICRX1qSi70TsF4fHFb8DQnVoFW3bmOgnMbcOfMVmQnCBOFvxZiF0gNdA8lkZNjxVPHNhU/p9XOP79PUQShZdoy6xrHL3JafPkXZPz5PXKP2eypPmtiF4gB3ByAPpGi3pGeJKpTfdJheLR4wKCMt4MO1d7VLBktz/kbeSf/hLwoE0WJh1Fpu3FHbQG7QDjSICS0xU3f4c/CL/Zp4lQvrhZ8h7do/tmDyDu5A0VJB6G4y4+r7hOCrf9xbRvXYHd4RXWFT9NYuIXEwrNhOyKRhltx+byQyrKvoTTtFG5fPY/y7ATcuSqoE2ddxy4QIZB6O8AtOBqeDWPg7NsUHpGRcPFvQFz8tfOZQACmHBhWAyii6spclKSlQ3HnBspz01CadgGVxddQli4T4JM88dgFYg3cQtwglnoCcNf2Q3D0cICz34No2OpKNSpyqwBdLr5yAGWoLCqDssw2gufasWPHDp4UVxM7dkzFLhA7dgxgF4gdOwb4/wAAAP//Px4+Lw8wp7UAAAAASUVORK5CYII=;" parent="1" vertex="1">
          <mxGeometry x="-720" y="480" width="160" height="80" as="geometry" />
        </mxCell>
        <mxCell id="neBnvLhtb3KantFYFcH3-28" value="Esignet - Performs the Authorization" style="label;whiteSpace=wrap;html=1;image=data:image/png,iVBORw0KGgoAAAANSUhEUgAAAUAAAAFACAYAAADNkKWqAAAABHNCSVQICAgIfAhkiAAAIABJREFUeF7tnV9SHLfaxqVmuApU7CrDbcjdVydQISswXoHxCowXEBivIHgFGcgCMl5B8AoyWUFIQVK+y+TWdlXmFD5XQOt71TOYPwamu6dbeiQ9XZXKOUGtln6v9Mwr6ZWkFR8SIAESSJSATrTerDYJkAAJKAogGwEJkECyBCiAyZqeFScBEqAAsg2QAAkkS4ACmKzpWXESIAEKINsACZBAsgQogMmanhUnARKgALINkAAJJEuAApis6VlxEiABCiDbAAmQQLIEKIDJmp4VJwESoACyDZAACSRLgAKYrOlZcRIgAQog2wAJkECyBCiAyZqeFScBEqAAsg2QAAkkS4ACmKzpWXESIAEKINsACZBAsgQogMmanhUnARKgALINkAAJJEuAApis6VlxEiABCiDbAAmQQLIEKIDJmp4VJwESoACyDZAACSRLgAKYrOlZcRIgAQog2wAJkECyBCiAyZqeFScBEqAAsg2QAAkkS4ACmKzpWXESIAEKINsACZBAsgQogMmanhUnARKgALIN1CLwb/f/Vs7O57/SWj0wyqx/ykSrjasZGqVXpJGt1PqIMoMbeQ21MUP734xSI230of3fSz8d/VYvf76VOgEKYOot4J76X4ic0mbDaCtkZmU2QWsV9khk0QriSNTxUMo6NCYbUhxbZR585hTA4E3YTAXedf+zrvLssRahEyERj05f8+Sa+YqfXMRDFUFUw7Ew6sO57OS3h72hCCaf1AlQABNsAf92Vx6cnS9+az07VQxZ4xG7sua0oij1PsxMPpjLzkUQ3xZDaz5pEaAAJmLv99+vPVaZ2pSOvyFe0OWcXSL1L1HNkcwrHowF8X9v6CGWIBZBEgpgBEa8rQp2/u48n3ssc3ebEw/vQaRVbaVaxbDZqAOT5W+We38Viy184iNAAYzIplb0TvPOUxnWbtHLa86w4hkOpaMcGH3+mmLYHFeEnCiACFaYoQx2Pu80X3hO0ZsBYoVXKYYVYAWQlAIYgJFuK+KH7bWnRpstGd7KEJePDwJWDJUxvfns42vOGfqwwOzfpADOztBZDkVcXt55LvN6MsStG1zsrLiJfcgcSGB2/9H+0ZvEKh50dSmAAZjvfXd1Q2LYdujt4RurGCIb0+9kH/foFeLbiwIIbKMP2988z3W2S28P2Eh3F80GWvc7+lSEkDGGqBakAIJZpghSzhd2OMwFM8wMxRGvsK+1eb3UOx7MkA1fbYEABbAFqHWyvBA+pXVX3mfMXh2I8O/I4Q5avaIQ4hiKAujZFhQ+zwbw8nkz6OizFxwae4F/7aMUQE82oPB5Ag/0WTs0ntenryiE/oxCAfTAnosbHqBjf7LX0ScihDyhxrWZKIAOidsjp7TJfkzx9BWHmEP91MgYs7u8f7wXagVCLDcF0IHViu1qZvFHgb3l4HP8RMAEijhCbV5wocSNESmALXN+t726I4eM7nJlt2XQ0WVvDjr6oyyUcFjcpmkpgC3R5XC3JbBpZcthccv2pgC2APj99uoPEs9nvT4+JNAAAYbNNADx1iwogA2SLe7VMNnPPIuvQajM6pKALJIs7R+/IpLmCFAAG2JJr68hkMxmCgF6g002EQrgjDSLI6pM52eGtswIkq9XITCS+5hfPOodHVR5iWk/J0ABnKFVfOiubRqjRPy4d3cGjHy1JoHxTpKTl1wprglQXqMA1mT3bmdN5voY11cTH19riEBxKrU+f8a7SuoBpQBW5DYOal74lQsdFcExeZsE7JD4pQyJ+21+JMa8KYAVrDo+mVn/wiFvBWhM6pJAb2nv6KXLD4b+LQpgSQtOdnT0SiZnMhLwQsDeZzyvPz7hvGA5/BTAEpw431cCEpMgERjJHcZPOC843SQUwHsYcb5vegNiClgCI6XNMx6qcL99KIB38LHxfaem8wsXO2A7OAtWgsAkXpCLI3ewogDeAmZ8kMHcr1zsKNHDmCQEAlwcoQCWa6dc6S3HqWwqOeTzD/mVtVdEXnuM0kOtzFD+vSL/Xvn87+qBHCP2bdnvMN39BGzQ9PLe0Qtyuk6AHuAVHrKzY2uys4PtpASBsbjpoZKVxyJ5pgb2X23MOxU/TPY5N+ty0o7cmqfXZcVzhSJZwlCTJBTBz1lRACdMKH73dCSj/jsRuYHO9GGuzodIK4x2yiJTcysmF3EUYZSabMgepy/LS0NKKXnQ6lVrUwCFBsXvhgAY8480jAMlYjenTgch3lpmF7HO1fy6ys1GLoJIT/HSxowVvGSRvABS/KQxiIcnw6ODTIawoQreNB9uIogbeS5iqNRm6h4iRXDcYpIWwKTF79LLG6R4rFIxbM6zLRF+EUP91TQBjfHvFMGEBTBJ8RNPT1Zc+3mW95Hm8HyLS8piaEVwee/4O9828PX9JD3A5MTPqDc6U/0UPb2qHcue8SjD5E0JIH5e9d1Q06e8OpycAE7i/GyQc9yPDHGlgv1OdtYPcRHDt3HsNsizfKEr5dhKYYicqggmJYBJ7PAw5jcJVbHeXt+3iMTy/eLk79x0RQgfx1Kn2+qRoggmI4DjuzvmfxfDSxBthI8InwQi77YRhBwhrVpVKkYPudqNWgjz/OXST38mc+xbEgIY9akuFL5aYjbLS8VBGfn8bqzzhCkdoJCEAL7bWf09ulNdKHyzaFgj7xajirzTj9AjTOY8wegFMLrDTO3iRqa2ONRtRMMaySTSoXESIhi1AL7//puuyrIfG2nlvjOx+3FNvpvS/Ixv5FW/X4RX5aoXyy6TFAKloxXAmMJd5ISa1/PZSZf3PFSVJPfp7Xzzeb6wa7Tecf/15r8Y+8pwlAJYxHCZxb9DX/EtjpvKVJfD3eY7dts52pArlWf9KA5hiHhlOEoBjGLRw5hXS/vHu213VObfLoH326s2bOaHdr/iIHdtnsT4QxydAIa+6GG9PpXlW9yr66BTO/pEJN7gqKNPvo5tGiYqASwi9o2yF5cH+Whj9h7tH9vtV3wiJBC+N2gGS3vHT2IyTTQCGPROD3tKi4S28LCCmLrW7XUZh8zog2BXiiObD4xGAN/vrMoBB3ojuC4kAc2d7ONmbEOL4OzgsMDjgxYWJYBaPXX42cY+JZeufxfLFE0UAhjq0IJD3sb6ZJAZhdpuY4oPDF4AJye82EMOgnpS2m8ZlGEcF3Z80oyy3mBQlzjF8uMdvgCGts/X3r+RnW/EMoRwrBdRfq74Ec8zmRcM7Gj+CEJjghbA0IYQNsRlPjuT+b63wyh7MitVm0BxYlG+MAgpcFp2iQzn9cl3Ic9fByuAoQ19x+L3cSPkxlK7d/PFUgQmp1BbTzCYg1dDHwoHK4AhrfpyL2+p/s9EEwLvttdkC104d5KEvCocpACGdMqLFb/l/aMt9m4SqEIgJBEM+Wa54AQwpIMOKH5VujzT3iQQkgiqQPeuByeAoTQKih8FrQkCobR3qWuQe4WDEsBQFj4ofk10feZxQSAUEQyx3QclgCEsfITYCCg1+ASCEcHAtskFI4DFceNG/YzcVBnqgmyd8Mv2fnvNHqIAvn84rBNjghDA8bWWi3Kzm1pBbcYUP1TLxFOuUIKlJYTnWSgnGwUhgPA7PmR7Wyc7XecOj3jEBrUmk2DpQ+Rtc3aHyPLe0deoDK+WC14AQwh7CTkQNIRGyjJeJzDeOzw3QD5AIZTDPuAFEN37C8XQPkSk+PE6X/xW63zFKH19+kLrB0qZdTnD8VBiyEbXf5X1ocz3jjpzp//Qq77dcuinn4fiBUILILr3F/o+yKZEcXwV5OJj2RGwLl6JiJoScWvucFrbmbQyIpRK/tGDztzJH9xTrRSdg9lbMLQAIhvYLnos7x/bzp7c80nwtNoQ0dvQSjvnYEVRwA8yow7mspPfUhVE6SMyFMY8PCEELxBWAKG9vwQXPcai98VTufB7U7w7+QfrsftRxUPsy3Fjb1IaNqMviqBPEcEKILL3F9Iy/6wy9WH7m+eoond33cyBTE+IZ/g/EcPhtfnFWXkgvo+8QwrdC4QVQLnf92/EuL8U5v0mXsWODK3sFZ0ynxfsY8Wv39Gne7F7heAOwwuJC+wjtiJIAYTd9WHMP3KDm8T7xelV2KtFT838D9IothAb6yxlEk9E7t0434v5KoJ326uHmCdK4+4OgRRAVO9PRXAHwm0iErPwfV5fc9DRZy9j9AiRh8KofQdOAIuLo42WO37BnkDPO7uPYkRD3TqNpdfRJ69i8+Zhh8JGvVnaP4JbPMMTQMQN3xEOfceLG1kv8Dm+OsJ39Z2RhDPtSjjT3qwZIb2POhSWudiv0TxvKAG0Q7EzM/83UmOyZYlp1XfMuCOn6jQXqIxmr+rlMQMZFr9A65zV6zF+A3UUhbiACCWAkO47qOtep3NMtk/ZI8VCXtmtU/Uy70TlDYKeHzha2jt6WMYYrtJACSDi4gei2161cYyDyhes1wc3B1O1Lu2nt97gx2ehzw2O53cXh2gHJqCNpmAEEHJzdwQLH3ZlUJm5XxBjKtsXs3pfKLbZ6fNnoYfMcEQ13f4wAgh32m2x3e1kJWRPgEPe6R3gvhTo27jK1E5EUMRcf1Umras0SKMqCAGc7Pv915UBSn0ncO8PNpi8FHyoRD2Zt3oJVaIKhYFsB3n+cumnP20EgvcHQgDhLjqXsJel/eMV79apWQCZS/05xt0cNXHM/JrdRSInHL+YOSNPGaB5gUgXqUMI4LudVbnvw/2RSne1x5CHPhS/dlTGiuC8PpEdJOFtg0T0AlFOUfcugHCxfzL3JxHrQYaJUPzaEb/LXM3B0t7xs7a/0kb+aF4gSkygdwEEHP6+kuHvbhuNsM08KX5t0r0igYEOh9G8QJRjsrwLINTwN9CVX4qfG/G7+Eqoc4JoXiDCMNirAKINf1Hc8irdGc6DrlL4kNMGGCUAFxcIwNCrAKK55UjxSWW0AXXPZ5myx5AGbVfDNKZo4WYIq8FeBRAq+DmwPb/Qd6ZM64nx/H0kw7gnIe0YQdsjLEeSPfS5su5XAHfWbPAzxIpraL/mUHOn8Qha5ZpYL2Zef3zisxNXKTTaqMF3yJk3AYQyRGCBzx+2V3tyUdFOlYbPtO0RCG3uGGkxxBj1enn/aKs969yfszcBROrEITVgqB8OX60W8LshjSDAFs68HpHlTQCRhnAIy/Fl+zTikWFlyx55upHMZ8mJx/g7RdCiL3z2Py8CCLUaFdDwFy6MIXJFq1o938O5KuWVtjSQU2IeV3mntbQew2G8CCDUMM4j/CoNCvrGryoViT1tIDcHQg2DPUZg+BHA7dVd+fX5AaEv+HS/q9T//c6q3JTHezyqMPOTFvcO3Ks8wIbB3uYBfQkghvsdyPAXymP2oypBfdV3aEdZWEi3x/lyRPwI4M6abKf0/4Sy+kvvz39bqVIClI3+08qMNKfs60fDuQAizWWFELpA729aN8b8u68OXYUGUl/0tYDkXACRJl/lqHPn9a/SQG1aen9ViWGkD8cLXBsh3Bzna1+wcwGACYA25jc5928Do7vcXgp6f8jWKVG2AFaEkfbj+3BInAsgSvxRCPN/aBvXS3R5JrlGAH9FGGlE5mMhxL0AoiyAaPXsUe/oALXH8rQXVMtUKxf6EWtI84A+5k2dCiBS7JHvY3imdSO0sxKnlZd/v4MA0BWQd9noPYhTojxsSnAqgDBzWgHE/yHtlaa41ScQwmIIyrSUCKDzeXm3AoiyA8Tj1psyXQnJUy5TXqa5n4CPua0qNgGaa3a+I8SpAMKA9uBqV2mQSBPTpcstv96SdqAzfSghDaOl3vGg9LuOExYjEYdPR50NH/beDh1+stKnkNqb65VgpwII42qDhycghSbc25NE9ETw+nPq5CCEY6AqqUJCiWGmpoS5a2/ZqQCinGXnGnLVviST0jBXBdxadhE+k+XdkO7CqGqDlNJDHU/n2DlxKoAoq02u3ewqnQnp1/izcsvikcrUFvLwtgprpr0kgNI3leNVc2cCCDOxD74CjLRB/ZpAyMJRJzvZ4lA3TtmEmZ5yPD/vTABhPBsPS+1Vugzi/J+vjepVuDHtbARwBFC9Wdo/2pytNuXfdiaAEti7KR3pl/JFayclemdGi/9D59VOK0kvV5iRh2MHxZkAAgF+JYcg7KI2cZi5GAvIcWNEtUkK5QLqn06DoSmAQK0baV+mMuq/Mue3wjk/oAbSYlGQtl66XKRMTgB9bLgu225RpglseZE5leXJdOUJwMzRS5FjFUCMe0AcxxmVb4Jy+CnMVkHzj0wTrFQpO9OGTYAC2LL9YFaZKIBTLU3vbyqi6BIgCaDLjQouh8D0AKd0GwgPkHN/0YlbmQpBzT87dFIogGVah6M0ENcFgJ+U48gUSX4GJgIhSgFE2d/qEG7VXgQxTeA4Er8qI6ZvjwAFsD22crsZxl3ALucXquKEEEDgH4iqPJm+GgGUPqoctkF3Q2AQAXQJt1rzK1aB/c+TOmx8VfkwfbsEKIAt8k0RblWcCALoMgarKh+mb5cASh+VKARnF5bRA2y3TVXKHWEVmAJYyWTRJIY5rckSdTgPTQEEasIIAog8RwpkquiKghQHSAFss3kBz3EhCCDyHGmbzSL1vCmALbcAlPkF5A4OIYCOT+Rtudkx+5IEKIAlQdVNBiOAwB0coRHy/L+6LTzs9xDa3ieCnANssTE5hFu1FiAT0c7vZq3KiembJwAx+riolsM+mt4iiEO4dZopgqfsMgyhDiO+0zwBCmDzTK/liBDjVhQIfK/ru+3VQ631ty2bY0r2ZrC0d/zEbxn4dZcEIPahR+0BIuxyKATQOD1yu2ojhrkUCXi1vCpTpp9OAMZBGfdRZ9dWuBsCowigUtBzXO+//6arsuzH6U227RT0AtsmjJQ/1GVcFMB2mwbybgeoc9mAV8zbbSHp5Y4w9/yJeqQCuCsXTfyA0LTQdzvIMHiktPqSrBAIxF8GqB/diIfAMAKIvsr5bnutL2V8DtL1RvKD8WS599chSHlYjIYJQMUAUgAbtu5t2Tl0sevUBumKwkn5KYJ1DBnIO1AhMLEKINKVj+grwSAB0Te770i80pePekf9QPo1i1mSANiII9JV4O7qhjL615I2aTWZUWq4vHf0dasfmTFzqLCEK3URdv15ffKSF6bPaGCg19/trP0t4SArMEVyOEJzFgbzb3flwZlZ/BcFckeffv2w93aIUp6b5QAcBl8t4sgYs7u8f7yHyo/lKkcArV8WpY5RAG29kJba0RdCCl5Aq8F3dKeR/Pe+/JjsIf+YlJOCNFNBTU1dmCBWAcTY5jWmrI3Ze7R/3EVu9lDbk6aAMsrIKrE+zEw+MCYbduZO/uAwGbl1jcsGtwAStQeIsxtEtgSbw+W94++QmyhcfBYyLJYtHgKxeoBoHk1HnzxE91JQF0Pi6W2sCRyBWAUQZ5/rZBis1Qv0sA64IFW43sICRUcgWgEECoUZTzWo18v7R1voDYheILqFWL5GCcQqgIBL7tAnw1w0KtDA6EbbPDMjgU8EYhXAyarTUA5F+ArF3OgHI1xwgovWRzEgyxEfgcgFcCAC+BjFaiGEw1hWhReYzx+inBKDYj+WI0ICkQsgzKkwxTxgANviLpo42iJShF2PVUIgELMAIkaehzIMnkwhQHnQCP2FZYiMQMwCCLgQEsSukE9zgd3/rGsz93tkTZ7VIYFLAjELIOJCiJQpiNXgT0Ph7VWoaQT2XRJolEDsAoi4oimHI8AHRV9tZDC3xzXa8pkZCdiJ+QhvhbtqWMyjnsK6Bc1OJZzmCwP/dwizy5JAwwRiF0DUTf7oZwTebGYFx3xOFkUwLlBquBswu1QJxC6AoPOAwWyNu+FNb8qWvl9S7Susd4QEUhBAxHlA25RC8wJtmTGnFCLsmKySGwIpCCBiPGBhXYfwm2xNFMEmaTIvrwQc9kFnd4LcBIoYDzgp40jOCZT7Qob2uPegHopgUOZiYe8ikIIATuYBMXc1ODRA070A7dDZpuvH/BIg4LD/efMACwH8/puuyrIfAU0arBfIOUHA1sQiVSOQigBCn3Pn0AjVWke51MUca676DJEpx4upgAg47HtePUCLHOmmuBtNIGgvsGDLOEGgXs2ilCaQkgACD4ODjAu82ci4Y6R0t2NCFAIpCSD0MNg2CG2eLPWOByhto245IO9/rVsZvhc3gZQEEHwYLMULa4/wfT1jPCTODpCuJIi7J7N2tQikJoDIw+DCCQzspJj7Gp0dEp/nC7tG651ajZMvkUDbBFITQOCg6AtTB78gcrPNFvcN58qeKwhzP0vb/Yr5B0IgNQEcD4PX+uJpPcc1kTlY2jt+hlu+eiUrdo/kxgohzE199WrCt6IhkKIAFh6J0b8iG1EE+tmj3tEBchnrlK3wwPOFrgz2u4wbrEOQ7zRKIEUBtABlpRLqzuBbjBrdUPhqHQshPP9iS7xBEUJ6hI12amZWnkCyAoi7Ne6K8eIcCt9snXZonOemyxOny/dbpmyIQKoCOB6KLYoXCH7CcZ6/XPrpz15D5obOxobOZHm2Jfcnb9IrhDZVPIVLVQDDWAwp2tlI7hJ+stz76zCeVje9JlYMVT7Xlf2TIobgP1LTq8MUqARSFkD4nSGTRmOUOZzXH5+EeG5gE+2+CKo+1xtKZxsSLL5O77AJqsyjIJCyANr6h3PlYxrzgWW6pf3hOlfzGxJSsyKryevSih8wxrAMOab5jEDyAhhASMwnozk0VohdpZjXVQsiiONHK/1ARPLT/w+xTiGVWaYrHsj87QXvlSA8dYd9yvtxWHc1JgmJwTwt+pYCx7RVLqTOzbJWJ3A5daHtohbmLiAKoAyDQ/ICE10Uqd79+AYSATttcZrP78LtwKIAjptJSF6gFFeCpE+/e9h7O0Rq5CwLCUwjUCw85vM9mZ94Oi2tk79TACcCGJYXqFJfGXbSOfiR1gjA3CpIAby0cWBeIEWwte7JjF0QgDgzkgJ4RQAD8wJtyekJuuiq/EZbBCZD4kNvwe4UwOumDScu8LLcFMG2uifzdUHA64VaFMDrJvb+i1SzxVEEa4LjaxAEiqtVjfrFeWEogJ8jD/VSH4qg8+7DDzZIwMvoiwL4uQUnh3bKvER459RRBBvskczKKQEve/MpgLfbGGaZvkYTlO1IcszX+bPUTpCpgYqvgBFwPvqiAN7dAkILi7lRkySP0QLrzyxORQLOvUAK4N0WCnVB5GqNuHe4Yg9kcu8E3m2vHjo7HZwCeL+9nbvk7TS/3tLe0ct2smauJNAsAad3d1MApxvP6S/S9OLUTGEGHf3xWaqHqtaExtc8EHB6OAkFcLqFi0BNM/f79JTYKbg4gm0flm5MoIjCMIv/OuFBASyHOZKhcFFZY0x3ef94r1zNmYoE3BN4v7Mmv9cOHgpgechxDIUv6sshcXnLM6VrAs7u7aYAljdtDKvCN2o7mqwSH5SnwJQk0D4B8QDtEPhB61+iAFZDHHKA9N01NQeyQPKCCyTV2gJTt0eAQ+D22M6cs5c9izOXemoGI23y7qP9P19PTckEJNAiAafB0PQAq1vSrlKd5gsDZ8Ga1Ys4wxtmYHT+ktvoZkDIV2ciwDCYmfC5ednrGWZuqtjr6JNXHBa7gc2vXBL4sL3aM1rvOGFCD7A+5jjnA6/xGEnMTK+TfdyjENZvJ3yzGoF3O2t/yx26K9XeqpmaAlgT3OQ1p79WsxW19ts2gDoz+S7nB2sj5IslCTjfdEABLGmZe5IFfmpMaQAUwtKomLAmgfc7q3IqtFyk7uqhAM5OOu5Fkc/5UAhnbzPM4XMCThc/Lj5PAWymKUYYJF0GzGSO8Ow1L2kvg4tp7iMg3t+v4v1tOKVEAWwOdwIrw3fCEq+wr7V5vdQ7HjRHlDmlQsDbXDoFsNkmlsDK8L3A7PBYG9PvZPQKm21Z8ebmtc9QAJtvWF4N2nx1ZsjRDKwYzmX/e8MwmhkwRvyql3m/qzwpgO20Lorgda72tjplVH8+OxMxfDtshzpzDYmAnK60I7upel7LTAFsD7/To73bq0bjORfDZKUOtFGDR/tHbxr/ADOEJlBETZjFH6UNbHkvKAWwXRO8216TxQH1vN2vhJ67kYUTfWgFcS47+Y3D5dDteXf5P2x/8zzX2a6znR7TUFIApxGa/e8UwWoMxx6iGcqQeaBFGPPs/B8ezlCNIVJq6/Gd5188hRK+C0AUQDdNhSI4O+dPwiiiKHuUR1YcjVEjm3Nn7uQPeo6zM24qh/ffrz3WOl+RQw1kV4fDnR1VK0ABrEqsfnoujNRnV/1NO6y+/zFKr/gcil0K+rSShvR3x4HMs6KhAM5KsNr7FMFqvJiaBFolQAFsFe+tmVME3TPnF0ngVgIUQD8NowgAzfWB0upLPyXgV0mABGQu+dXS/vGuCxIy3cLnKoGU9w6zJZAABAEKoF8zpHaUll/a/DoJ3CBAAfTfJKwInuWLfRkOP/VfGpaABBIiQAHEMTa3zuHYgiVJhAAFEMvQXBzBsgdLEzkBCiCege3p0qd55yDOe4fxeLNECROgAOIa39spubhIWDISaJYABbBZnk3nxiFx00SZHwlcIUABxG8OXCXGtxFLGCgBCmA4hitWieUsNe4eCcdmLCk4AQoguIFuFG9y/WaPMYNh2Y2lBSVAAQQ1zJRiyYEKmyZXNniae4nDNCFLjUCAAohghXplGJ+0u7Arh07u1MuBb5FA4gQogOE3gPFKsZK5Qf04/NqwBiTgkAAF0CHslj9VnDOYGyuEX7X8KWZPAnEQoADGYceLWoxDZha6cg+DrBhzfjAu67I2TROQGxtfPOod9ZvO97b8eB6gC8qTb1AIHcLmp8IloM2Tpd7xwEUFKIAuKN/4BhdKPEDnJ8MhQAEMx1azlNTGD57nna7chLbFofEsJPluTASW9o6cOWbOPhSTgZquy+XQWIkQcrGkab7MLyACRr1Z2j+Se4vdPBRAN5xLf4WrxqVRMWGEBFwugFh8FEDQRmR2fw/JAAACtklEQVTjCE2ut8RAmxwegxqJxWqWgFH/7WQnKw97w1GzGd+dGwXQFema3ykWTNTiZp6bLg9jrQmRr4VBwGH83wUQCmAYTaMopb2yM8uzLVN4hZwrDMh0LOo0Asb808k+rrv0/jgEnmYU4L9TDIGNw6JVIyBDX5Odbyz3/jqs9uLsqekBzs7Qew7FZe7nekO8QusZcu+xd4uwAFUIuF74uFo2CmAVSwWQdjJnuJHnalMrY0WRe5ADsFuqRfQpfhwCJ9DqLgRR5WZD5g7X6SEmYPQQquhx2EsPMIQG0mIZbYiNVnpFRHG9EEWlRRh5SEOLyJn1VQKy2isLHj3XCx63GYFDYDbNgkBxrL/qrFhhlOO7VgpRVOYBxZENpBECssorYnMwl52J8L0dNpJnA5lQABuAmEoWxSGvk+dSKFOpPetZh4DO9OGcOj1EEj0OgetYku+QAAlER4AeYHQmZYVIgATKEqAAliXFdCRAAtERoABGZ1JWiARIoCwBCmBZUkxHAiQQHQEKYHQmZYVIgATKEqAAliXFdCRAAtERoABGZ1JWiARIoCwBCmBZUkxHAiQQHQEKYHQmZYVIgATKEqAAliXFdCRAAtERoABGZ1JWiARIoCwBCmBZUkxHAiQQHQEKYHQmZYVIgATKEqAAliXFdCRAAtERoABGZ1JWiARIoCwBCmBZUkxHAiQQHQEKYHQmZYVIgATKEqAAliXFdCRAAtERoABGZ1JWiARIoCwBCmBZUkxHAiQQHQEKYHQmZYVIgATKEqAAliXFdCRAAtERoABGZ1JWiARIoCwBCmBZUkxHAiQQHQEKYHQmZYVIgATKEqAAliXFdCRAAtERoABGZ1JWiARIoCwBCmBZUkxHAiQQHQEKYHQmZYVIgATKEqAAliXFdCRAAtERoABGZ1JWiARIoCyB/wc9pL0xTFRj3wAAAABJRU5ErkJggg==;" parent="1" vertex="1">
          <mxGeometry x="-520" y="480" width="160" height="80" as="geometry" />
        </mxCell>
        <mxCell id="neBnvLhtb3KantFYFcH3-29" value="Inji Certify - Issues the Credential" style="label;whiteSpace=wrap;html=1;image=data:image/png,iVBORw0KGgoAAAANSUhEUgAABRQAAATRCAYAAABJtBpbAADX+UlEQVR4Xuz9CbCt13Ufdm5IJCWREgFOkqgJgGZZkgFY0WBbMgDLlh1FEsHIidOdTggm1elOUtUEU9WVdLpTAJIeXV1FsDvdSXcGgulKongIQVuWHFkyADmRJdkSHknNlIgHDiIpTiApkuIgsu/CPctY2PzOt/c995z77rvv96t6Xvfb/3XXOe89EMa3dM49133uSAMAAAAAmPAFmwoAAAAAMGShCAAAAABMs1AEAAAAAKZZKAIAAAAA0ywUAQAAAIBpFooAAAAAwDQLRQAAAABgmoUiAAAAADDNQhEAAAAAmGahCAAAAABMs1AEAAAAAKZZKAIAAAAA0ywUAQAAAIBpFooAAAAAwDQLRQAAAABgmoUiAAAAADDNQhEAAAAAmGahCAAAAABMs1AEAAAAAKZZKAIAAAAA0ywUAQAAAIBpFooAAAAAwDQLRQAAAABgmoUiAAAAADDNQhEAAAAAmGahCAAAAABMs1AEAAAAAKZZKAIAAAAA0ywUAQAAAIBpFooAAAAAwDQLRQAAAABgmoUiAAAAADDNQhEAAAAAmGahCAAAAABMs1AEAAAAAKZZKAIAAAAA0ywUAQAAAIBpFooAAAAAwDQLRQAAAABgmoUiAAAAADDNQhEAAAAAmGahCAAAAABMs1AEAAAAAKZZKAIAAAAA0ywUAQAAAIBpFooAAAAAwDQLRQAAAABgmoUiAAAAADDNQhEAAAAAmGahCAAAAABMs1AEAAAAAKZZKAIAAAAA0ywUAQAAAIBpFooAAAAAwDQLRQAAAABgmoUiAAAAADDNQhEAAAAAmGahCAAAAABMs1AEAAAAAKZZKAIAAAAA0ywUAQAAAIBpFooAAAAAwDQLRQAAAABgmoUiAAAAADDNQhEAAAAAmGahCAAAAABMs1AEAAAAAKZZKAIAAAAA0ywUAQAAAIBpFooAAAAAwDQLRQAAAABgmoUiAAAAADDNQhEAAAAAmGahCAAAAABMs1AEAAAAAKZZKAIAAAAA0ywUAQAAAIBpFooAAAAAwDQLRQAAAABgmoUiAAAAADDNQhEAAAAAmGahCAAAAABMs1AEAAAAAKZZKAIAAAAA0ywUAQAAAIBpFooAAAAAwDQLRQAAAABgmoUiAAAAADDNQhEAAAAAmGahCAAAAABMs1AEAAAAAKZZKAIAAAAA0ywUAQAAAIBpFooAAAAAwDQLRQAAAABgmoUiAAAAADDNQhEAAAAAmGahCAAAAABMs1AEAAAAAKZZKAIAAAAA0ywUAQAAAIBpFooAAAAAwDQLRQAAAABgmoUiAAAAADDNQhEAAAAAmGahCAAAAABMs1AEAAAAAKZZKAIAAAAA0ywUAQAAAIBpFooAAAAAwDQLRQAAAABgmoUiAAAAADDNQhEAAAAAmGahCAAAAABMs1AEAAAAAKZZKAIAAAAA0ywUAQAAAIBpFooAAAAAwDQLRQAAAABgmoUiAAAAADDNQhEAAAAAmGahCAAAAABMs1AEAAAAAKZZKAIAAAAA0ywUAQAAAIBpFooAAAAAwDQLRQAAAABgmoUiAAAAADDNQhEAAAAAmGahCAAAAABMs1AEAAAAAKZZKAIAAAAA0ywUAQAAAIBpFooAAAAAwDQLRQAAAABgmoUiAAAAADDNQhEAAAAAmGahCAAAAABMs1AEAAAAAKZZKAIAAAAA0ywUAQAAAIBpFooAAAAAwDQLRQAAAABgmoUiAAAAADDNQhEAAAAAmGahCAAAAABMs1AEAAAAAKZZKAIAAAAA0ywUAQAAAIBpFooAAAAAwDQLRQAAAABgmoUiAAAAADDNQhEAAAAAmGahCAAAAABMs1AEAAAAAKZZKAIAAAAA0ywUAQAAAIBpFooAAAAAwDQLRQAAAABgmoUiAAAAADDNQhEAAAAAmGahCAAAAABMs1AEAAAAAKZZKAIAAAAA0ywUAQAAAIBpFooAAAAAwDQLRQAAAABgmoUiAAAAADDNQhEAAAAAmGahCAAAAABMs1AEAAAAAKZZKAIAAAAA0ywUAQAAAIBpFooAAAAAwDQLRQAAAABgmoUiAAAAADDNQhEAAAAAmGahCAAAAABMs1AEAAAAAKZZKAIAAAAA0ywUAQAAAIBpFooAAAAAwDQLRQAAAABgmoUiAAAAADDNQhEAAAAAmGahCAAAAABMs1AEAAAAAKZZKAIAAAAA0ywUAQAAAIBpFooAAAAAwDQLRQAAAABgmoUiAAAAADDNQhEAAAAAmGahCAAAAABMs1AEAAAAAKZZKAIAAAAA0ywUAQAAAIBpFooAAAAAwDQLRQAAAABgmoUiAAAAADDNQhEAAAAAmGahCAAAAABMs1AEAAAAAKZZKAIAAAAA0ywUAQAAAIBpFooAAAAAwDQLRQAAAABgmoUiAAAAADDNQhEAAAAAmGahCAAAAABMs1AEAAAAAKZZKAIAAAAA0ywUAQAAAIBpFooAAAAAwDQLRQAAAABgmoUiAAAAADDNQhEAAAAAmGahCAAAAABMs1AEAAAAAKZZKAIAAAAA0ywUAQAAAIBpFooAAAAAwDQLRQAAAABgmoUiAAAAADDNQhEAAAAAmGahCAAAAABMs1AEAAAAAKZZKAIAAAAA0ywUAQAAAIBpFooAAAAAwDQLRQAAAABgmoUiAAAAADDNQhEAAAAAmGahCAAAAABMs1AEAAAAAKZZKAIAAAAA0ywUAQAAAIBpFooAAAAAwDQLRQAAAABgmoUiAAAAADDNQhEAAAAAmGahCAAAAABMs1AEAAAAAKZZKAIAAAAA0ywUAQAAAIBpFooAAAAAwDQLRQAAAABgmoUiAAAAADDNQhEAAAAAmGahCAAAAABMs1AEAAAAAKZZKAIAAAAA0ywUAQAAAIBpFooAAAAAwDQLRQAAAABgmoUiAAAAADDNQhEAAAAAmGahCAAAAABMs1AEAAAAAKZZKAIAAAAA0ywUAQAAAIBpFooAAAAAwDQLRQAAAABgmoUiAAAAADDNQhEAAAAAmGahCAAAAABMs1AEAAAAAKZZKAIAAAAA0ywUAQAAAIBpFooAAAAAwDQLRQAAAABgmoUiAAAAADDNQhEAAAAAmGahCAAAAABMs1AEAAAAAKZZKAIAAAAA0ywUAQAAAIBpFooAAAAAwDQLRQAAAABgmoUiAAAAADDNQhEAAAAAmGahCAAAAABMs1AEAAAAAKZZKAIAAAAA0ywUAQAAAIBpFooAAAAAwDQLRQAAAABgmoUiAAAAADDNQhEAAAAAmGahCAAAAABMs1AEAAAAAKZZKAIAAAAA0ywUAQAAAIBpFooAAAAAwDQLRQAAAABgmoUiAAAAADDNQhEAAAAAmGahCAAAAABMs1AEAAAAAKZZKAIAAAAA0ywUAQAAAIBpFooAAAAAwDQLRQAAAABgmoUiAAAAADDNQhEAAAAAmGahCAAAAABMs1AEAAAAAKZZKAIAAAAA0ywUAQAAAIBpFooAAAAAwDQLRQAAAABgmoUiAAAAADDNQhEAAAAAmGahCAAAAABMs1AEAAAAAKZZKAIAAAAA0ywUAQAAAIBpFooAAAAAwDQLRQAAAABgmoUiAAAAADDNQhEAAAAAmGahCAAAAABMs1AEAAAAAKZZKAIAAAAA0ywUAQAAAIBpFooAAAAAwDQLRQAAAABgmoUiAAAAADDNQhEAAAAAmGahCAAAAABMs1AEAAAAAKZZKAIAAAAA0ywUAQAAAIBpFooAAAAAwDQLRQAAAABgmoUiAAAAADDNQhEAAAAAmGahCAAAAABMs1AEAAAAAKZZKAIAAAAA0ywUAQAAAIBpFooAAAAAwDQLRQAAAABgmoUiAAAAADDNQhEAAAAAmGahCAAAAABMs1AEAAAAAKZZKAIAAAAA0ywUAQAAAIBpFooAAAAAwDQLRQAAAABgmoUiAAAAADDNQhEAAAAAmGahCAAAAABMs1AEAAAAAKZZKAIAAAAA0ywUAQAAAIBpFooAAAAAwDQLRQAAAABgmoUiAAAAADDNQhEAAAAAmGahCAAAAABMs1AEAAAAAKZZKAIAAAAA0ywUAQAAAIBpFooAAAAAwDQLRQAAAABgmoUiAAAAADDNQhEAAAAAmGahCAAAAABMs1AEAAAAAKZZKAIAAAAA0ywUAQAAAIBpFooAAAAAwDQLRQAAAABgmoUiAAAAADDNQhEAAAAAmGahCAAAAABMs1AEAAAAAKZZKAIAAAAA0ywUAQAAAIBpFooAAAAAwDQLRQAAAABgmoUiAAAAADDNQhEAAAAAmGahCAAAAABMs1AEAAAAAKZZKAIAAAAA0ywUAQAAAIBpFooAAAAAwDQLRQAAAABgmoUiAAAAADDNQhEAAAAAmGahCAAAAABMs1AEAAAAAKZZKAIAAAAA0ywUAQAAAIBpFooAAAAAwDQLRQAAAABgmoUiAAAAADDNQhEAAAAAmGahCAAAAABMs1AEAAAAAKZZKAIAAAAA0ywUAQAAAIBpFooAAAAAwDQLRQAAAABgmoUiAAAAADDNQhEAAAAAmGahCAAAAABMs1AEAAAAAKZZKAIAAAAA0ywUAQAAAIBpFooAAAAAwDQLRQAAAABgmoUiAAAAADDNQhEAAAAAmGahCAAAAABMs1AEAAAAAKZZKAIAAAAA0ywUAQAAAIBpFooAAAAAwDQLRQAAAABgmoUiAAAAADDNQhEAAAAAmGahCAAAAABMs1AEAAAAAKZZKAIAAAAA0ywUAQAAAIBpFooAAAAAwDQLRQAAAABgmoUiAAAAADDNQhEAAAAAmGahCAAAAABMs1AEAAAAAKZZKAIAAAAA0ywUAQAAAIBpFooAAAAAwDQLRQAAAABgmoUiAAAAADDNQhEAAAAAmGahCAAAAABMs1AEAAAAAKZZKAIAAAAA0ywUAQAAAIBpFooAAAAAwDQLRQAAAABgmoUiAAAAADDNQhEAAAAAmGahCAAAAABMs1AEAAAAAKZZKAIAAAAA0ywUAQAAAIBpFooAAAAAwDQLRQAAAABg2nWfO7L5GriWfPiXW3v/z7X2gZ9t7aNvae1T7zs+f86LWnv2S1r74pe29txvae3533n0659p7YbvOc4BAACAa5qFIlxLPvJYa2/7v7X2vr/b2mf+cHM46blf39pX/Sutfe2/3toXf+3mEAAAALjWWCjCteA9f6O1J/5frX3w0c3BKX3t/7K1b/jftfYlN28OAAAAgGuFhSJcVJ98T2tv/09ae8d/dvT1uzeHe3Tds1q7+d9p7Rvvbe0Ln7s5BAAAAC46C0W4iN72145+/V9b+/SHNgcH9MVf09p3/hetvfiHNgcAAADARWahCBfJh/9Ja2/5144/ZOUsXXdda1//77f2Tfcfff2Fm0MAAADgIrJQhIsg3tL8u/9ha2//TzcHV8iL/kJrt/1Ea89+0eYAAAAAuGgsFOFq9pmPtPa7/8fW3v4ft/bHn9gcXmFfclNr3/3TrT3vWzcHAAAAwEVioQhXpaP/2b7r9a391r/X2qfeuzk7R551Q2vf9d+39sI7NwcAAADARWGhCFebj1xq7df/1609+Uubg3Ps1p9o7aV/dXMBAAAAXAQWinC1+NynW/vd/+j405s/e/T11eC6Z7V263/b2lf+lc0BAAAAcLWzUISrQbwq8U3/Smt/+Gubg6vMbX/DUhEAAAAuCAtFONeO/uf5tr/W2u/8B8evULxafeFzW/sz/6S1L/22zQEAAABwtbJQhPPqU39w/KrE9//M5uAq97xvae1P/0+tPftFmwMAAADgavQFmwqcF5/7bGtP/L9b+/lvvjjLxPCx327tH/9wa5/9o80BAAAAcDXyCkU4Tz76a629+RWtfeRXNwcX0Fff3dqffN3mAgAAALjaeIUinAufa+3ya1v7he++2MvE8K4HW3vn0S8AAADgquQVinClfeKJ1t7yr7f2gZ/bHFwDvvB5rf2Zf+xDWgAAAOAq5BWKcCX9wU+29gt/6tpaJoY//lhrv/ZvbC4AAACAq4mFIlwpb723tV/50dY+9cHNwTXmj/+wtY++aXMBAAAAXC285RnO2h+9q7U3/6utfeAfbA6uIS/6C619xY8e/frx1r74qzeHAAAAwNXEQhHO0rt/orVf+zdb+8yTm4ML7lnXt/aSf7a1r3jZUf3ho+vnbwIAAADgamWhCGfh00+29uv/5vFC8aL7kq9r7ct/7HiJGK9IBAAAAC4UC0U4tPjAlTe/4vitzhfV8287XiB++dGv59+6ObyG/NF7jn8W5qc+0NrH3tbaH/52ax/9jeNFcvUFX9jac7++teu/s7UX3X5Ub9kEAAAAcPWwUIRD+ewftfZb/25rb/9/tnbR/md23Re29sIfOF4gfuW/cO38PMRPf7i1D/2To1+/0tqTR78+9Kutfex3j7Prjn7FX3PUMHP97Be09qLvb+0rfri1r/mXW3vWlx1nAAAAcI5ZKMIhfOytrT3246199C2bgwvgC7+0tZf8peMl4pf/yPEy7CL7zEdbe///2NoHfnGzQLz0+a8yzeVgqsvCaub6C5/b2tf+q63d9G+19vzvPD4HAACAc8hCEfbtfT/d2mN/tbU//ujm4Cr2RV/VnvpU5lgivugHW/uC52yCC+gP39baB/5Rax/8xdb+4Odb+8ibT/6Kw9F11lHfV/1LrX3n/6O157zk+AwAAADOEQtF2Kff+d+39nv/583FVepLv721r7jr6NePtXb992wOL5g//kRrH/jl1j549Ov9v3C8SPyj9z691EuHup7pi7c/f9v/pbWb/u3jMwAAADgnLBRhHz79gdbefHdrf/CTm4OrSPw8xBf8wPGHqnzFy1v7khs3wQXyR3/Q2nt+prX3/6PjtzE/+ebjpd3olYJnfZ21nr/kL7b2XX+9tWffsDkAAACAK8tCEU7ro29q7Vde1tonntgcXAWe9aWtvfgC/zzEz3y8tff+bGvv/vut/cHDrX341zfBkVzUhfp12Nf1vuak593c2vf8VGtf+q2bAwAAALhyLBThNN7+n7b2W//O8Vtoz7sv+vLWXvIjx69EfPFfvng/D/GT7zv6+/ibrb3r7xz9+umnl3K1jl4heIjrL9jUUd/o+tlf2tr3/VxrN1zQt6EDAABw1bBQhF18+kOtveVfa+29D20OzqnnfcvxAjFeiXjD9x39Lz62WxfEZz7W2h/8w6Nfj7b2np9t7QP/5OklXDrP19u+Dtuun/Pi1r7/F1t77jdsDgAAAODsWSjCSX34V1p77MfP71ucX/BnjxeI8aEqsVC8SGKB+Ps/3dq7/0FrH/yl/bzy7zxdZ13re943tvb9v3zx3qYOAADAVcNCEU7i8mta+61/t7XPfXpzcA58wZe09pIf2vw8xB89fhXbRfHpjxy/ffldP3lcP/mB4/NcrqXZ612/L81e72tO6q9f8oOtfe/fP/qiDwAAAODwLBRhxmc+2tqbX9Hae9+wObjCnv2i1r7y5cc/E/HFP9TaF37JJrgAPvOHrb39odYu/0Rrv/8zx8vbtVfsLV1nPen3Hfo66z7mfut/1No3/h+eOgIAAICzZKEIIx99y/FbnD/21s3BFXKhfx7ix1t7199r7fH/prUn/tbTy7M0e73r96Wzut7XnD/9D1t74fdvLgAAAOBsWCjCmnf/d6295ZVX7lOcr//e45+F+NJ/sbXnfuPm8IL42Dtae8ffbu2dP3n05/xwa5/95PF5LMtGr9DLOuq72q6zzn7fl/6J1v7cm4++/sJIAAAA4ExYKMKSz/1xa7/977X2+P99c3BGvuCLWnvRDz79SsQv+opNcEG89x+29s6fau0dP9nak7+2OTySy7J0yOttX4d9Xe9rTlq7/o7/uLUb/+3NBQAAAByehSL0PvOR1n715a194B9sDg7sOS9s7cX/3PES8SV/ubUvfN4muAA+87HW3vF3W3viDcdvaf7Uk8fLsNlX4IV9XGfd99yZ63hn+j7mbLt+zgtau/Px1p51/eYAAAAADstCEaqz+nmJz/3641cgxhLxBd9/9L/EC/SW1c9++vhViL/337b2jr9z/PMRc/mVDnW9rznpkNfbvg4nvf6W/7C1b/wPNhcAAABwWBaKkN71YGu/9m+19tlD/LzE61q74bufXiJ+6bdvzi+Qd/xUa0+8sbXLf721T25eiRiinuQVdzPXWfc990pfZz3p98Wnfv/5d1ysT/sGAADg3LJQhM9+qrXf+Ldbe8d/vjnYk4v+8xA/+aHjJeLjf6O13//7x69ETLnsSuflel9z0rbrfc1JM9d/4rWt3fS/Ob4GAACAA7JQ5Nr2yXe39qv/fGtP/uLm4JTi59i95J/dLBF/9GL9PMTwsXcdLxAvP9Tae//H9tSH18Qy66SvqDv0ddZ9zz3tddZ9z43rL/vW1v7cbz51BAAAAIdkoci168O/3Npj/0Jrn3j75mBHX/x1rX3Fjx2/CvFFtx/9r+rZm+CC+MN3tPbb/0Vrl9/Q2gfffHyWy6x0Xq73NScd6npfc1Je/5l/1NoN37e5AAAAgMOwUOTadPmB1n7z1ZuLHTz/Tz29RHz+rZvDC+Qzn2jt8b/V2m//l639/sPHZ7G0mnmlXL3OetLvu1Jzr/R11l3nfO2/0dp3/n/iFAAAAA7GQpFrS/y8xLf8a639/n+9OZj0Bc9u7YV3bD5U5a7WvvirN8EFc/lvt/a2v3lU/9bV8TMR00mut30d9nW9rzlp9vo5L2ntL/zB5gIAAAAOw0KRa8enP9Dar/zzrX3o5zcHA8/6sta+/Mdae8lfPq7Pev4muGDe/lOtvfW/ae2Jv93apz769HIqav9KuKzbXiEXzuN11n3Pnbn+gk0d9e3r+s/8Qms3/OnNBQAAAOyfhSLXho++qbVfeVlrn3hic7DFl3zd8fIwPlTlhRfw5yGmd/98a7/9X7X2tr/V2qee3BweyaVUmr3e9fvSvq73NScd8nrb1+E019/477f2zf+nzQUAAADsn4UiF98HHm7tV360tT/+2Oag82XfsXkr89Gv6797c3gBvfNnW7v8k8dvaY5Pa44l1Ele+TZznXXfc/vrrPuee6Wvs55mzvW3tfZnf3VzAQAAAPtnocjF9q7Xt/bmuzcXRbz6MF6J+JU/3tqX3Lg5vIAu/53Wfu9vtvb4G575dua07Xq2L10t1/uak7Zd72tOOun1X3hfa8958eYCAAAA9stCkYvrzf9qa+/6/x1//YXPa+0lf+no148cf6jKs19wfH4R/eE7Wvv1/6y13/ovj77evBIxRD3JK92WrrOeds6hr7Pue+5pr7Pue25/fet/19pL/8XjawAAANgzC0Uunk++p7U3/S9a++hbjl+B+OU/0tpLfngTXlCf+nBrb/3rrf3Of93a78eHzmz+Z51LprSv633NSfu63tecdKjrfc1J/fXX/29b+9a/trkAAACA/bJQ5GL57B+19o7/vLXrv6e1G45+XWR/9MHWHv87rf3uX2/tiZ86XiqNXrl21tdZr5a5V/o662nnvPDPt/a9P3d8DQAAAHtmoQhXm9/+r1v79f9va+/6+aeXSGmf19u+Dlfz9bavw76u9zUnnfT6i768tR987+YCAAAA9stCEa4G77vU2tve2Npb/pPWPrFZFMUS6aSvXDvtddZ9zz30ddZ9z525/oJNHfXt+/ovfvBi/6xQAAAArhgLRTiv3vuPW/udn2jtrX/j+INWQi6N0nm53tectOv1vuakQ15v+zrs4/pP/2JrN3zv8TUAAADskYUinDe/8brWHnugtQ+8eT+vVDvL66z7nttfZ9333Ct9nXUfc2/7idZe+lefOgIAAIB9slCE8+IP33X8Sc2f/PDmoMhlUW/bedr396Xzml9tc9Mh8pf85dZu+L7NBQAAAOyPhSIAAAAAMC0+LgAAAAAAYIqFIgAAAAAwzUIRAAAAAJhmoQgAAAAATLNQBAAAAACmWSgCAAAAANMsFAEAAACAaRaKAAAAAMA0C0UAAAAAYJqFIgAAAAAwzUIRAAAAAJhmoQgAAAAATLNQBAAAAACmWSgCAAAAANOu+9yRzddw5X388tGvJzYXnfP4T+p5eE7xHK7b1PPA81n2oltae84NmwsAAAC4elkocnZyWfj+R46XO1HDhy+19qknj79OdQm0tAzaJd+lb5SnXfLad5p8tq/aJa99ozyN+kZ52iWvfaM8jfpGeRrlX3pTa88/+hULxhffelxfdFRj6fhFlo4AAACcbxaKHEYsD9//6PGy8MmjX1E/vbA0XLNtGZNGeTrt46RR32nzNMrTaefs6/ns83HO6s/3vP2+q1wyftUdx/Wlt1syAgAAcK5YKLIfuUB890PHy8OPHV0vLVPqkmU2r/Wz3fVSra5EvtQ/ytMh8tq3ls/2VYfIa99aPttXHSKvfWv5bF+V5/GKxq++o7Wb7mrtqywYAQAAuLIsFNldLA7f/vrjty7H12nbciSN8jT7T+ZpH++0eTXb4/k+bZRXsz0X/fnGKxe/5e7Wbn5Za1920+YQAAAAzoaFIicTi8N3vL6133+otU9c/vwlSF1+9DWM8rRLXvtGeRr1jfK0S177Rnka9Y3ytEte+0Z5GvWN8rRLXvtGeRr1jfK0S177RnmK65dYLgIAAHC2LBQZi599GEvE33vg+K3No39iti0/eqedc1aPk04756weJ436TpunUZ5OO2f0fEZ5GuVpZs5Z/fnO9sXbor/17ta+5RXHZwAAAHAAFopsF29ljrc0v+PBzcGRutxYWnIcIl/qH+XpEHntW8uj+pmPJ89rHf35nYc/39q3lte+dKg8Ptjl2+5u7U++yqsWAQAA2DsLRT7fe954/GrEWCgu6ZcXvdPm1T56Ro932jyN8nTaxzttXu2jZ/R4p82r2Z6zeD6jPMz2HPL55isW49WLAAAAsAcWijwt3tb8W/c9/bMR65KiXvc1jPJ0mr5ql3yXvlGedslr32ny2b5ql7z2jfI06hvlaZe89o3yNOob5WmXvPaN8jTqq9exUPzuey0WAQAAODULRY4Xib99X2sfu/zMZcQ2M/lZzDmrx0mjvtPmaZSn087Z1/PZ5+Oc1Z/veft9r9nn40TfV1ksAgAAcDoWiteyDzzS2m/df1zrUqKv1ZXIa/UzCU+e1761fLavOkRe+9by2b7qEHntW8tn+6pD5Fm//q7Wvv81fsYiAAAAJ2aheC2KT2r+nftbe3v5sJVq9E9EXUosOW2eRnk67eOdNq9mezzfp43yarbH833aKP+e+44/vOWLbtgcAAAAwDoLxWvN217b2u/c19qnntwcbNSlw9LyYSnfpW+Up13y2jfK06hvlKdd8to3ytOob5SnXfLaN8rTqG+Up13y2jfK06hvlKdd8to3ytOob5Sn+FToH3zd8asWAQAAYMBC8Vrx4UutXXplax85qtv+xrctG3oz+VnMOavHSaedc1aPk0Z9p83TKE+nnTN6PqM8jfI0M+es/nz38fsazYnzWCjGYtGrFQEAAFjxBZvKRRZvb370tqeXibFUCHW5UJcNNe/N5rWvivOsM3ntq/2jPM3mta+K86xLc/q87xvlvdm89lVxnjX7qqU859R5ozzN5Fln81r7vO8b5b2ZPOtM3vet5f28UR6W5lRxnnUmr315HfL8bQ+19l/d3NpvbvlxCAAAAHDEKxQvsvhZif/45ceLxDD7N53LhW39h86rffSMHu+0eRrl6bSPd9q82kfP6PFOm1ezPWfxfEZ5mO055PMd5b3s82pFAAAAtvAKxYvqHQ+29vO3Hb/VOeRSIWStcolQlw+177R5Wsq39aW1fO1xsvaPVy3ltW+Up5k8az8vnCbv+9bylPPCWr72OFnjvPZVS3k/Zy1Pkae1fGleGOVpKV+bE7bNSWt5zqnzwihPS3k/Zy1PkWfNPF6t+BNH/w55/+bfIQAAALDhFYoXUfysxFgo9upyYckoTzP5Wcw5q8dJo77T5mmUp9PO2dfz2efjnNWf73n7fa/Z5+Ps+uf3Aw+0dsurNhcAAABc6ywUL5JPP9naL9z59FucQ10SLNXPdtdLtboSea1X2/PN/lGeDpHXvrV8tq86RF771vLZvuoQee1by2f7qkPktW8tr33h2+5u7ftf4y3QAAAAWCheGLFEjGViLBW3mf2bHvUtLRuq0+ZplKfTPt5p82q2x/N92iivZns836eN8mrU8+JbW3v5w5aKV7lLly61D3/4w5ur8+XGG29sN9100+bqZJ588sn2pje9aXN17bjlllvaDTf43+TV6lr95/Yi2+V/k5cvX25PPPHE5up8Oc2/lwG42CwUL4J4e/Ovv7q1zzy5fXlQz/eV79I3ytMuee0b5WnUN8rTLnntG+Vp1DfK0y557RvladQ3ytMuee0b5WnUN8rTLnntG+Vp1DfK00nyLz66Sbrr4dZecmskXIXuuOOO9uijj26uzpd777233XfffZurk3nkkUfanXfeubkixd93iiXHrbc+/b/dzCwMrhz/3F48Dz/88DP+dzcj/r13//33b67Ol9P8exmAi82HslztYpn4plc+vUwM/TIgrC0LwkyeNfPZObXvNHOqpbz2xXnWpTwdck61lNe+OM+6lKeTzql91S557YvzrEt5GvWdZE6c175qKa99cZ51KU+jvj6vfdUuee2L86yjOVlPO2eUZ/2jo3/XvOHo5jc+tAU492Jhlb8eeuihpxYD+SuWHvHr5ptvbtddd117wQte8NRy6+Uvf/lTy43Xv/7153b5DADAlWWheDWLRWJ8AEvIZUDIGnI5UJcFtW+U92bz2lfFedaZvPbV/lGeZvPaV8V51qU5fd73jfLebF77qjjPmn3VUp5z6rxRnmbyrLN5rX3e943y3kyedSbv+9byft4oD0tzqjjPOpPXvrwO2/LU933yydZ+6uWt/ebChz8BV614+21dPN59991PLRzrsjEXjfHWeQAArl0WilerWCbGqxPrEqDe9Ke6HOjz/L7Q99X+6izyWkP21f7at5SnzGtftUte++I8a5/n94W+r/ZXZ5HXGrKv9te+pTxlXvuqXfJa4zxkDWt5zsna20eeNfPaV/O01JdyTp1XHSKvNc5DrX1f6POsP3v07yFLRbgm5LIxF4233XbbU4vGWDK++tWvbm984xuf6gEA4NpgoXg1ymViqDf39aY/5VJgW576vtofTpunpXxbX1rL1x4na/941VJe+0Z5msmz9vPCafK+by1POS+s5WuPkzXOa1+1lPdz1vIUeVrLl+aFUZ6W8rU5YductJbnnDovjPK0lPdz1vIUedaZvPZZKsI1LZaMDzzwQLvrrrueehVjvH36la98pQUjAMAFZ6F4tanLxFCXBPWmP/V57auW8rU5YS2vfdVoTpqZM8qzZj47p/b1c2pftUte++I86yjPusuclHntq0ZzRnnKfHZO7at2yWtfnGcdzck6MydsmxPnta8azRnlKfPZObWv2iWvfZaKwEZ8Wu2DDz74TxeM8UrGeJu0t0gDAFwsFopXk36ZGOrNfdzs9/q89vXLgaW8N5vXvirOs87ktS+vw7a8N5vXvirOs2ZftZTnnDpvlKeZPOtsXvv6fLYv1DzN5rWv6h+n71vL+761PC31VXGedTavfX0+2xdqnmbz2lf1j9P3reX9vFFuqQgsiEVivE06Fovx6sV4e7TlIgDA1c9C8Wrx6/d8/jIx1Jv8XA5U9eY/81prnrXvqzKvfdU+8qyZ11rzrKN5h85rDdlX+2vfaN6+89oX57WGUV8/rzpEXvvivNYw6uvnVYfIa1+c1xpGff286hB57YvzWsNSX1qaV1kqAivi1Yvx9uhcLsYrF+MMAICrj4Xi1eCdRzfoj792+81/vckPNU8zedaZfK2vz2vfKE8zedZ+XhjlaSnv56zlKfK0li/NC6M8LeX9nLU8RZ7W8qV5YZSnpbyfs5anyNNavjQvjPK0lPdz1vIUeVrLl+aFUZ6W8n7OWp4iT2v50rxQ81gqvs+rj4B1sUiMVy7GYjE+2CU+OdrPXAQAuHpYKJ5373motUtHN+h5Ex+yhryp35anugTYNc+a+eyc2neaOdVSXvviPOtSng45p1rKa1+cZ13K00nn1L5ql7z2xXnWpTyN+k4yJ85rX7WU1744z7qUp1Ffn9e+ape89sV51tGcrKedM8qzZl77+vy/v9NSEZgWH+wSnxztVYsAAFcPC8Xz7CNHN+TxcxPzJj1v2qt6c19v6lOf932jvDeb174qzrPO5LWv9o/yNJvXvirOsy7N6fO+b5T3ZvPaV8V51uyrlvKcU+eN8jSTZ53Na+3zvm+U92byrDN537eW9/NGeViaU8V51pm89uV12Janvi/UPGX+ySePX6kYFWBSvEIxX7UYnxRtsQgAcH5ZKJ5Xnz66Ef8nL2/tM0e13uz38rzmtS9v+pfy/L7Q99X+6izyWkP21f7at5SnzGtftUte++I8a5/n94W+r/ZXZ5HXGrKv9te+pTxlXvuqXfJa4zxkDWt5zsna20eeNfPaV/O01JdyTp1XHSKvNc5DrX1f6PPaV9U8XqH4d4/+HQawg/ikaItFAIDzy0LxvIpl4ieO/gO63rxHDVnDTJ51KU99X+0Pp83TUr6tL63la4+TtX+8aimvfaM8zeRZ+3nhNHnft5annBfW8rXHyRrnta9ayvs5a3mKPK3lS/PCKE9L+dqcsG1OWstzTp0XRnlayvs5a3mKPOtM3vdty9/5SGs/f8/RFwC7sVgEADifLBTPo984ugH/4NGNeKg35/WmPeVN/Wxe+6qlfG1OWMtrXzWak2bmjPKsmc/OqX39nNpX7ZLXvjjPOsqz7jInZV77qtGcUZ4yn51T+6pd8toX51lHc7LOzAnb5sR57atGc0Z5ynx2Tu2rdslrX5xn7fsuvba1tz20uQDYTS4WX/3qV/vwFgCAc8BC8bz5wCPHn+ic6s153rRXedM+m9e+vA7b8t5sXvuqOM86k9e+vA7b8t5sXvuqOM+afdVSnnPqvFGeZvKss3nt6/PZvlDzNJvXvqp/nL5vLe/71vK01FfFedbZvPb1+WxfqHmazWtf1T9O37eW9/NGeViaE/7+K1v7iFcWAaf3wAMPPLVYfO1ry38rAQBw5iwUz5P4uYm/0v3MsXpzHrU3k2fNvNaaZ+37qsxrX7WPPGvmtdY862jeofNaQ/bV/to3mrfvvPbFea1h1NfPqw6R1744rzWM+vp51SHy2hfntYZRXz+vOkRe++K81rDUl5bmVdvy+HAWP08R2JN4heI999zTbrvttnbpkk+UBwC4EiwUz5M3v/J4qRjyZrzenEcNWcMoTzN51pl8ra/Pa98oTzN51n5eGOVpKe/nrOUp8rSWL80Lozwt5f2ctTxFntbypXlhlKelvJ+zlqfI01q+NC+M8rSU93PW8hR5WsuX5oVRnpbyfs5aniJPa/nSvDDKQ3xIyy/et7kAOL1YJsZS8f7779+cAABwViwUz4vHH2jtPeXnjOXNeL05rzftqe8LNU9Lc6qZPGvms3Nq32nmVEt57YvzrEt5OuScaimvfXGedSlPJ51T+6pd8toX51mX8jTqO8mcOK991VJe++I861KeRn19XvuqXfLaF+dZR3OynnbOKM+aee3r821zfvnopj8+qAVgj+677z6vVgQAOGMWiudBfJrzW49utPOmvKo359vyrJnXvj7v+0Z5bzavfVWcZ53Ja1/tH+VpNq99VZxnXZrT533fKO/N5rWvivOs2Vct5TmnzhvlaSbPOpvX2ud93yjvzeRZZ/K+by3v543ysDSnivOsM3nty+uwLU99X6h5WppTxfk/fPXx1wB7FMvEO++886kPbwEA4PAsFM+D3zi6wf7Mk0/ftFf15nw2r315U7+U5/eFvq/2V2eR1xqyr/bXvqU8ZV77ql3y2hfnWfs8vy/0fbW/Oou81pB9tb/2LeUp89pX7ZLXGucha1jLc07W3j7yrJnXvpqnpb6Uc+q86hB5rXEeau37Qp/Xvmom/4NLrf2Stz4D+xc/W/GVr3zlU798EjQAwGFZKF5p733o+FfehPfqzXnmtW8mz7qUp76v9ofT5mkp39aX1vK1x8naP161lNe+UZ5m8qz9vHCavO9by1POC2v52uNkjfPaVy3l/Zy1PEWe1vKleWGUp6V8bU7YNiet5TmnzgujPC3l/Zy1PEWedSbv+0Z5yvNfvP/4ZyoCHEC8SjFerXj5sk+XBwA4FAvFKyk+gCVenVhvxnv15nypL2/aZ/PaVy3la3PCWl77qtGcNDNnlGfNfHZO7evn1L5ql7z2xXnWUZ51lzkp89pXjeaM8pT57JzaV+2S1744zzqak3VmTtg2J85rXzWaM8pT5rNzal+1S1774jzraE7Wn/fWZ+Bw8gNb/FxFAIDDsFC8ki4/0NrHLz/zJrtXb8635Vln8tqX12Fb3pvNa18V51ln8tqX12Fb3pvNa18V51mzr1rKc06dN8rTTJ51Nq99fT7bF2qeZvPaV/WP0/et5X3fWp6W+qo4zzqb174+n+0LNU+zee2r+sfp+9byft4oD0tzqjjP+q5HWvu98kFUAHsWb3v2cxUBAA7DQvFKiQ9iefy1z7z5zpvtah951sxrrXnWvq/KvPZV+8izZl5rzbOO5h06rzVkX+2vfaN5+85rX5zXGkZ9/bzqEHnti/Naw6ivn1cdIq99cV5rGPX186pD5LUvzmsNS31paV510tyrFIEDy5+raKkIALBfFopXyu/c9/QHsdSb7JQ340t537eWp5k860y+1tfntW+Up5k8az8vjPK0lPdz1vIUeVrLl+aFUZ6W8n7OWp4iT2v50rwwytNS3s9Zy1PkaS1fmhdGeVrK+zlreYo8reVL88IoT0t5P2ctT5GntXxpXhjlqc8/ctkHtABnwlIRAGC/LBSvhHh14rtef/x13lyHrCFvxuvN90xfqHlamlPN5Fkzn51T+04zp1rKa1+cZ13K0yHnVEt57YvzrEt5Oumc2lftkte+OM+6lKdR30nmxHntq5by2hfnWZfyNOrr89pX7ZLXvjjPOpqT9bRzRnnWzGtfn59kzmOvbe2TPo0VODxLRQCA/bFQvBLig1hS3nyHrFW9Od+WZ12a0+d93yjvzea1r4rzrDN57av9ozzN5rWvivOsS3P6vO8b5b3ZvPZVcZ41+6qlPOfUeaM8zeRZZ/Na+7zvG+W9mTzrTN73reX9vFEeluZUcZ51Jq99eR225anvCzVPS3OqpTmxTHzsgc0FwGFZKgIA7IeF4ln7wCOtvbd8EEG9+c6b7WqXvPbFedY+z+8LfV/tr84irzVkX+2vfUt5yrz2VbvktS/Os/Z5fl/o+2p/dRZ5rSH7an/tW8pT5rWv2iWvNc5D1rCW55ysvX3kWTOvfTVPS30p59R51SHyWuM81Nr3hT6vfdWu+SWvUgTOTiwVH3rIh0IBAJyGheJZi092DnkzXW+uo/aW8to3k2ddylPfV/vDafO0lG/rS2v52uNk7R+vWspr3yhPM3nWfl44Td73reUp54W1fO1xssZ57auW8n7OWp4iT2v50rwwytNSvjYnbJuT1vKcU+eFUZ6W8n7OWp4izzqT932jPC3lUb1KEThjsVS8dOnS5goAgJOyUDxL8bMT3/vG46/rzXS9Ge/Vm++lvtGcPq991VK+Nies5bWvGs1JM3NGedbMZ+fUvn5O7at2yWtfnGcd5Vl3mZMyr33VaM4oT5nPzql91S557YvzrKM5WWfmhG1z4rz2VaM5ozxlPjun9lW75LUvzrOO5mTt58SrFAHOSHz685133vlUBQDg5CwUz9JbFz7NNG++Q9aq3pxvy7PO5LUvr8O2vDeb174qzrPO5LUvr8O2vDeb174qzrNmX7WU55wvv721b35Va99xb2t//uHWfvDoV9TvPLqOs69/RWvPvn7TvFG/f+b59Jby2tfns32h5mk2r31V/zh931re963laamvivOss3nt6/PZvlDzNJvXvqp/nL5vLe/njfKwNKeK86x9Hq9S/A0/1ww4O7lUBADg5CwUz8qnj26W37n5ZOeq3nznzXa1jzxr5rXWPGvfV2Ve+6p95Fkzr7XmWUfzDp3XGkvE73ldaz/+odb+/COt/akHWvuO+47O73j6V1x/59Gv732wtb9y9M/FD7yhtW951fFycebxTprXvjivNYz6+nnVIfLaF+e1hlFfP686RF774rzWMOrr51WHyGtfnNcalvrS0rzqtPkv3b/5AuBsxNue4+3PAACcjIXiWXnng8c30SlvpuvN9Wze963laSbPOpOv9fV57RvlaSbP2s8Lozwt5f2ctTy95PbW7oxXID7S2s13t/bsGzbBhK+563jx+GOXj1+52D9eta/nG3lay5fmhVGelvJ+zlqeIk9r+dK8MMrTUt7PWctT5GktX5oXRnlayvs5a3mKPK3lS/PCKE9Lee378NH/Bn7PByUAZys+9dknPwMAnIyF4ll54rVP33SHejOd52v5bF+oeVqaU83kWTOfnVP7TjOnWsprX5xnXcrTaefEqwrjFYmxSIxXH57Gc244fuXijz3e2lfc/szHSSd9vrWv2iWvfXGedSlPo76TzInz2lct5bUvzrMu5WnU1+e1r9olr31xnnU0J+tp54zyrJnXvj4/zRwLReAKePWrX90uX768uQIAYMRC8Sx88JHWPn70H6l5M13lzXdYy2tfVW/Kl+b0ed83ynuzee2r4jzrTF77av8oT7N57aviPGs/54ZbWvtLl45fkbhPz7uptR88+mcmfsZi76TPN6/TUp5z6rxRnmbyrLN5rX3e943y3kyedSbv+9byft4oD0tzqjjPOpPXvrwO2/LU94Wap6U51dKcKs5/8/XHP08R4AzFz1P01mcAgHkWimch3u4c8ma6qjff+8prX5xn7fP8vtD31f7qLPJaQ/bV/tq3lKfMa1+1Sx41lonxqsRY/h3K9x39c/N9r9tcbOzyfKs4rzVkX+2vfUt5yrz2VbvktcZ5yBrW8pyTtbePPGvmta/maakv5Zw6rzpEXmuch1r7vtDnta/aRx58OAtwBTzyyCPtgQce2FwBALDmus8d2XzNIcSHsfzsCz7/5rneVK/dZI/6TpunUd9p83SavmqXfJe+pfMX3NLanY+c7OcknsZb7mvtzfdvf55ZwyhPu+S1b5SnUd8oT7vktW+Up1HfKE+75LVvlKdR3yhPu+S1b5Sn2b4X39rav/zY5oJ9u+OOO9qjjz66uTpf7r333nbffUf/zttBLIPO8yf2xu9tn2644YZ2661H/1s5Eq+uiw8X6cVZZPFW3ieeeGJzypr4c33sscfaTTcd8P9gWMTfjZ/feHLxZ3Ze/5l++OGHn/r37EnEv/fuv/98fjDZaf69DMDFZqF4aPHqxDcP3kIz+hvYdtPdO+2cs3qcdNo5Z/U4KfLnXN/aDx3dtB3ylYlLfvHu1t7WfUr4Wf6+1+zzcU7z9z3K00n61lyNj3OaP79Rnk7St+aVj7f2/DP+39k1wkLxyjgP/7mVi8f4s4pFVnz9pje9aZOS7rrrrvaGN7xhc8V5dJ7/PWahCMC1wlueD+29Dx3fXIesVd58h7W89lV5fzKb1768Dtvy3mxe+6o4zzqT1768Dtvy3mxe+6o4zxr59zx49svEEJ8C/bwbP//59Jby2tfns32h5mk2r31V/zh931re963laamvivOss3nt6/PZvlDzNJvXvqp/nL5vLe/njfKwNKeK86yj3IezwN7Fq+9i0RHLgXiFVywUY9EZr8h7zWte026//fZN57XtoYceemrpCgDAdhaKhxRvd/6DNz7zJrlXb74PlWfNvNaaZ+37qsxrX7WPPGvmtdY862jevvKXHN1offVdcXr24hOgv+uBkz3fzGtfnNcaRn39vOoQee2L81rDqK+fVx0ir31xXmsY9fXzqkPktS/Oaw1LfWlpXrXP/LHXxglwBuKt0/fcc89TS7RYMMYrrF71qle1G2+8cdNx7fEBLQAA67zl+ZDi1Ym/8vLlm+h6fdJ8tq86RP5Dj7f2XG9JPFM/e0drf/Do8t9HWDqvedolr32jPI36RnnaJa99ozyN+kZ52iWvfaM8jfpGedolr32jPI36+nNvez4Ib3m+Mq7W/9yKVzHGqxnjVXvX2s9h9FbP88tbns+O/x0AsI1XKB5Svt253iynOM86k+86Jy3NqWbyrJG/+HbLxCvhO4/+g67/e6p/X/3fU+2rdslrX5xnXcrTqO8kc+K89lVLee2L86xLeRr19Xntq3bJa1+cZx3NyXraOaM8a+a1r8/3NcfbnuGKi1cvxicfx89cjLdGv+IVr9gkF99rX/vap37uJAAAn89C8ZA+WF5JFrJWs3ntq+I869KcPu/7Rnkv86+7+6lLzthX3NHal25+luK2v5+s+fdZLeU5p84b5Wkmzzqb19rnfd8o783kWWfyvm8t7+eN8rA0p4rzrDN57cvrsC1PfV+oeVqaUy3Nqfr8nX6GGZwnsVyMVyt+6EMfeupVSxf9LdGxTIxlKgAAn89C8VA+cqm1T1w+/rreJPfqzfe+8toX51n7PL8v9H21v4rzZ11voXglffkd638/o7+/WkP21f7at5SnzGtftUtea5yHrGEtzzlZe/vIs2Ze+2qelvpSzqnzqkPktcZ5qLXvC31e+6p95Fkj/703PnUJnC/x4S7xFsh41eLrXve6C/1hLl6lCACwzELxUD5YXlmTN8lV3kzXm+ttfX1e+2byrEt56vtqf6i5ZeKV9bV3PfPvp/976v/+ap7y7zOs5WuPkzXOa1+1lPdz1vIUeVrLl+aFUZ6W8rU5YductJbnnDovjPK0lPdz1vIUedaZvO8b5WkpX+sLXqUI59rdd9/91M+vfMMb3nAhX7HoVYoAAMssFA8lFor15rlXb6Yz39bXz6l9ozl9XvuqpXzbHAvFK+tr7pr7e1rKU+a1rxrNGeUp89k5ta/aJa99cZ51NCfrzJywbU6c175qNGeUp8xn59S+ape89sV51tGcrEtzUp1joQhXhbvuuuufvmLxoi0WX//612++AgAgWSgeykfe9Myb4pC1ms1rXxXnWWfy2pfXYVvee/4trV1/6+aCK6b+PVX932eofX0+2xdqnmbz2lf1j9P3reV931qelvqqOM86m9e+Pp/tCzVPs3ntq/rH6fvW8n7eKA9Lc6o4zzqTR33fpTgBrhLxisVYLL7mNa9p119//eb06ha/n/jZkQAAPM1C8RDiZyfmz0/Mm+KQtao334fKs2Zea82z9n3VN9yz+YIrKj+YpZd/f9v+Hvu/7zDq6+dVh8hrX5zXGkZ9/bzqEHnti/Naw6ivn1cdIq99cV5rWOpLS/OqQ+TvfHTzBXA1ueeee9qlS5fay172ss3J1S1+liIAAE+zUDyE+ECWvBnOm+OQNfR57Qtred+3lqeZPOu2/NnXt/bSu46vubKed9Py32f+/c3+fYe1fGleGOVpKe/nrOUp8rSWL80Lozwt5f2ctTxFntbypXlhlKelvJ+zlqfI01q+NC+M8rSU93P6/FNPHv07dfN/oAGuKjfddFN76KGHLsTPV4zlaPwCAOCYheIhxEKx3hRHDVlD3izP5rvOSUtzqpn8K+9q7dk3HF9z5eXfU/37ir+nrKO/z5PmtS/Osy7ladR3kjlxXvuqpbz2xXnWpTyN+vq89lW75LUvzrOO5mQ97ZxRnjXz2tfn+57jbc9wVYufr3gRXq3ow1kAAJ5moXgI/Qey1Jvk3mxe+6o4z7o0p8/7vlFe+TCW8+NDm5/R2Vv6+6yW8qW/71GeZvKss3mtfd73jfLeTJ51Ju/71vJ+3igPS3OqOM86k9e+vA7b8tT3hZqnpTnV0pyqz7NaKMJV74Ybbnjq1YqvetWrNidXnze+8Y1PfeozAAAWiofxiSeeebNcb5J79aZ5X3nti/OsfZ7fF/q+2h+ee2NrL75jc8EV9+mjG5r695O2/f2l+vecsq/2176lPGVe+6pd8lrjPGQNa3nOydrbR54189pX87TUl3JOnVcdIq81zkOtfV/o89pX7SPPmnlUC0W4MOJVfvFJ0FejWCbGUhQAAAvFw4gPZKk3y3mTXNWb5XqT3VvKa99MnnUpT31f7Q9f78NYzo2Pbf75Wvr7XPr7q3mKPK3la4+TNc5rX7WU93PW8hR5WsuX5oVRnpbytTlh25y0luecOi+M8rSU93PW8hR51pm87xvlaSlf6wtRP/LE8dfAhRCfBP3YY49dlZ8CbaEIAHDMQnHf4ucnhnrTHLVXb5Yz39bXz6l9ozl9Xvuqpbz2+TCW8+O9j2z/e4rzrEt5Wvr7rkZzRnnKfHZO7at2yWtfnGcdzck6MydsmxPnta8azRnlKfPZObWv2iWvfXGedTQn69Kc1M/xCkW4cG699db24IMPbq6uHt72DABwzEJx3z6z+Y/MejNcb6J7s3ntq+I860xe+/I6bMvDS1/W2nNv2lxwxb3zoWf+PVX932eofX0+2xdqnmbz2lf1j9P3reV931qelvqqOM86m9e+Pp/tCzVPs3ntq/rH6fvW8n7eKA9Lc6o4zzqT175PuoGHiyY+rOVqfPuzVykCAFgo7t8HHjmueROcN8Uha1Vvmg+VZ8281ppn7fu+1oexnBuferK1d7zxmX9PVZ4v/T2G+vecRn39vOoQee2L81rDqK+fVx0ir31xXmsY9fXzqkPktS/Oaw1LfWlpXnWIPKtXKcKFFG9/fs1rXrO5ujpYKAIAWCgeTr0ZjpvjkDX0ee0La3nft5anmTxrzb/kxv283Tk+ROT9j+7+630L9ax/nQe/9cDx38+2v888n/37Dmv50rwwytNS3s9Zy1PkaS1fmhdGeVrK+zlreYo8reVL88IoT0t5P2ctT5GntXxpXhjlaSnv52zLvUIRLqx77rmnveIVr9hcnX/e9gwAcHSr9rkjm6/Zhzff3dq7Xn/8db05XjOTn8WcpfwbXtXadzywuTiFN9/T2u+9dnOxcYjnu+S0j5O++3Wt3XwFX60Zr0782zcfL1Zmf9+n+fMb5WmUp9POGT2fUZ5GeZqZc1Z/vvv4fY3mnNXjpJPO+b57j37dt7ngNO6444726KPn5P9I0rn33nvbffft9vf8yCOPtDvvvHNzdf74z611saCLn6v4xBNXx4cwveENb3jqLdtcGef532MPP/zwU8/vJOLfe/fff//m6nw5zb+XAbjYvEJx3+ITnkO9GY4aslazee2r4jzr0pw+7/tG+b4+3fntZcmaNR+nGj2fNMrTbF77qjjPeunVx6+0vFJ++4FnLhNHzzf7qqU859R5ozzN5Fln81r7vO8b5b2ZPOtM3vet5f28UR6W5lRxnnUmr315Hbblqe8LNU9Lc6qlOVWfb+sDLpwbbrjhqvqQFm97BgCudRaKh1JvgutNcq/eNO8rr31xnrXP8/tC3xf1Rbfv58NY3n30H925iKvz83lU9Xmk+nxT7VvKU+a1rzpJHq8QfOzVcXr2PnSptbfcf7Lnuy2vNWRf7a99S3nKvPZVu+S1xnnIGtbynJO1t488a+a1r+ZpqS/lnDqvOkRea5yHWvu+0Oe1r9pHnjXzpT7gQopXdb3qVa/aXJ1v5/XVcQAAZ8VCcd8+/eHjWm+C8ya5qjfL9Sa7t5TXvpk861Ke+r6o+/owlifKKw7q/JnnE2aeb6/P1/r6vPb1+eNHv5f4dZZikfmzm7fxnfT5hpqnyNNavvY4WeO89lVLeT9nLU+Rp7V8aV4Y5WkpX5sTts1Ja3nOqfPCKE9LeT9nLU+RZ53J+75Rnpbytb6Q9Z2bD7wCLrR4a+WNN964uTq/Ll++/NQvAIBrlYXivn1080mk9aY5aq/eLGe+ra+fU/tGc/q89lV9/uzrW/u6PSwUP370H9vvfuPm4kj/fMLM8+nN5Fkzn51T+/o5UX/5lWe3VIxl4s/d+cxXeGadeb6h5inz2leN5ozylPnsnNpX7ZLXvjjPOpqTdWZO2DYnzmtfNZozylPms3NqX7VLXvviPOtoTtalOWk0B7iw4q3PV8vPa4uf2wkAcK2yUNy3epNcb4pD1mo2r31VnGedyWtfXoc+/8o9/aDx+urE0D9eb9vzCXkdtuW92bz2VXGeNfvCWSwVc5kYb3dO/fPpLeW1r89n+0LN02xe+6r+cfq+tbzvW8vTUl8V51ln89rX57N9oeZpNq99Vf84fd9a3s8b5WFpThXnWWfybX3AhXb33XdfFa9StFAEAK5lFor7lje/tdab5F69aT5UnjXzWmueNc6/Yc8fxpJyfn0+Vf88Qq01zzqad6g8loq/fqBP5IslYnyic10mhl2eb+2L81rDqK+fVx0ir31xXmsY9fXzqkPktS/Oaw2jvn5edYi89sV5rWGpLy3Nqw6RL/UBF97V8CpFP0cRALiWWSgeSr0ZjpvjkDX0ee0La3nft5anmTzr9bcc/br1+Po03v/I8Vue6+Md4vn288IoT0t5P2ct/7WjG56H72ztY3v6OUrxqsRfu/+Zb3OuTvt8U+RpLV+aF0Z5Wsr7OWt5ijyt5UvzwihPS3k/Zy1Pkae1fGleGOVpKe/nrOUp8rSWL80Lozwt5f2ctRy4ZlwNr1KMn6H45JML/381AMA1wELxUOpNcdSQNdSb5Zl81zlpaU5V831/GEt9vJifNc9Hz2c2r31xnnUpT/uY8wePtPaTN7f2S6883WLx8dcfvyrxzfcdLxb7xwknfb61r9olr31xnnUpT6O+k8yJ89pXLeW1L86zLuVp1Nfnta/aJa99cZ51NCfraeeM8qyZ174+P/Qc4JpwNbxK0dueAYBrlYXivtWb5HpTHLJWs3ntq+I869KcPu/7lvJ9fBhLvLruHd3bnUP/eL2l51OfbxrlaTavfVWcZ12aU/PLD7b2d25u7X+4rbXfeW1rT3ZvV+7F0jCWiP/w5a39zRe09otHf+5xtvQ4KZ9HfT5VfT7ZVy3lOafOG+VpJs86m9fa533fKO/N5Fln8r5vLe/njfKwNKeK86wzee3L67AtT31fqHlamlMtzan6fFsfcE2IVylef/31m6vz6dKlwf9fDwBwQVko7lve/Nab4HqT3Ks3zfvKa1+cZ+3z/L6Q9ete0dqzb9hcnMK7H3rm80j5POrzqfrnE+rzTbVvKU+Z175ql7z2xXnWPI+fe/ir97T2925r7SeOgn9w5zN/xduZ4/xvbZaI7zz6s6qf4tw/XrWPvNaQfbW/9i3lKfPaV+2S1xrnIWtYy3NO1t4+8qyZ176ap6W+lHPqvOoQea1xHmrt+0Kf175qH3nWzJf6gGvGXXft6UPiDsQrFAGAa5WF4qHUm+C8Sa7qzXK9ye4t5bVvJs+6lKfs29fbnX/3tdsfJ85nn09Yy+ucqs/X+vq89o3ytJbHW6Lfe/Qr6/uOftX+ENdZ4/wked+3lqecF9bytcfJGue1r1rK+zlreYo8reVL88IoT0v52pywbU5ay3NOnRdGeVrK+zlreYo860ze943ytJSv9YWlHLhmnPeF4hNPPLH5CgDg2mKheCj1pjlqr94sZ76tr59T+0Zz+rz2VXH+JTe29uI7jq9P48OXWvvI0a9tj5N16fmmmec7yrNmPjun9vVzal+1S1774jzrKM+6y5yUee2rRnNGecp8dk7tq3bJa1+cZx3NyTozJ2ybE+e1rxrNGeUp89k5ta/aJa99cZ51NCfr0pw0mgNcM2KheJ4/nCU+mAUuMh88BMA2For7Vm+S601xyFrN5rWvivOsM3nty+sQdR8/OzH83gPPfJyqPt5pn+9S3pvNa18V51mzr1rKc06dN8rTTJ51Nq99fT7bF2qeZvPaV/WP0/et5X3fWp6W+qo4zzqb174+n+0LNU+zee2r+sfp+9byft4oD0tzqjjPOpNv6wOuKd72DFeOnxMKwDYWivuWN7+11pvkXr1pPlSeNfNaa76vtzv//hvXn08+7rY8a32eWWuedTTv0HmtIftqf+0bzdt3XvvivNYw6uvnVYfIa1+c1xpGff286hB57YvzWsOor59XHSKvfXFea1jqS0vzqkPkS33ANeW8LxS9ShEAuBZZKB5KvRmOm+OQNfR57Qtred+3lqdR/pUva+25N20uTuHtD7b2mScP/3wjz9rPC6M8LeX9nLU8RZ7W8qV5YZSnpbyfs5anyNNavjQvjPK0lPdz1vIUeVrLl+aFUZ6W8n7OWp4iT2v50rwwytNS3s9Zy1PkaS1fmhdGeVrK+zlrOXBNuvXWWzdfnU8WigDAtchC8VDqTXHUkDXUm+WZfNc5aWlOta9XJ7799Z//OPXx9vV8l/LaF+dZl/J0yDnVUl774jzrUp5OOqf2VbvktS/Osy7ladR3kjlxXvuqpbz2xXnWpTyN+vq89lW75LUvzrOO5mQ97ZxRnjXz2tfnh54DXFNuuOGGdsstt2yuzh9veQYArkUWivtWb5LrTXHIWs3mta+K86xLc/q874vrZ1/f2kv38Haij18+/gTj/nGq/vn0+rz21f5Rnmbz2lfFedalOX3e943y3mxe+6o4z5p91VKec+q8UZ5m8qyzea193veN8t5MnnUm7/vW8n7eKA9Lc6o4zzqT1768Dtvy1PeFmqelOdXSnKrPt/UB15w77tjDh8YBALA3For7lje/9Sa43iT36k3zvvLaF+dZ+zy/b1+vTowPY1l6PtVMXmvIvtpf+5bylHntq3bJa1+cZ+3z/L7Q99X+6izyWkP21f7at5SnzGtftUtea5yHrGEtzzlZe/vIs2Ze+2qelvpSzqnzqkPktcZ5qLXvC31e+6p95FkzX+oDrjnn+W3Pjz766OYrAIBrh4XiodSb4LxJrurNcr3J7i3ltW8mz7qUh6+/Z/PFKb37jcvPp1rKt/WltXztcbL2j1ct5bVvlKeZPGs/L5wm7/vW8pTzwlq+9jhZ47z2VUt5P2ctT5GntXxpXhjlaSlfmxO2zUlrec6p88IoT0t5P2ctT5Fnncn7vlGelvK1vrCUA9ccr1AEADhfLBQPpd40R+3Vm+XMt/X1c2rfaE6f177w/Fv282Es737o+C3P2x4n9c8nbOsbzRnlWTOfnVP7+jm1r9olr31xnnWUZ91lTsq89lWjOaM8ZT47p/ZVu+S1L86zjuZknZkTts2J89pXjeaM8pT57JzaV+2S1744zzqak3VpThrNAa45N920h/9WOSA/RxEAuNZYKO5bvUmuN8UhazWb174qzrPO5LUv6r5enRif7hyWHqfqn0+vz2tfXodteW82r31VnGfNvmopzzl13ihPM3nW2bz29flsX6h5ms1rX9U/Tt+3lvd9a3la6qviPOtsXvv6fLYv1DzN5rWv6h+n71vL+3mjPCzNqeI860y+rQ+4Jt1+++2brwAAuNIsFPctb35rrTfJvXrTfKg8a+ZZn7WnD2P59JPHb3cOM89nlGfNvNaaZx3NO3Rea8i+2l/7RvP2nde+OK81jPr6edUh8toX57WGUV8/rzpEXvvivNYw6uvnVYfIa1+c1xqW+tLSvOoQ+VIfwDlz+fLlzVcAANcGC8VDqTfDcXMcsoY+r31hLe/71vK0lH/lXa09+4bNxSnkqxPDIZ9vFXnWfl4Y5Wkp7+es5SnytJYvzQujPC3l/Zy1PEWe1vKleWGUp6W8n7OWp8jTWr40L4zytJT3c9byFHlay5fmhVGelvJ+zlqeIk9r+dK8MMrTUt7PWcuBa9p5/jmKFooAwLXGQvFQ6k1x1JA11JvlmXzXOWlpzr7e7vx7r918cWTpcerzifOsS3lamlMt5bUvzrMu5emQc6qlvPbFedalPJ10Tu2rdslrX5xnXcrTqO8kc+K89lVLee2L86xLeRr19Xntq3bJa1+cZx3NyXraOaM8a+a1r88PPQcAAIArykJx3+pNcr0pDlmr2bz2VXGedWlOn2f9khtbu/7Woy9O6f2PHH8YS+ofp9c/n16f177aP8rTbF77qjjPujSnz/u+Ud6bzWtfFedZs69aynNOnTfK00yedTavtc/7vlHem8mzzuR931rezxvlYWlOFedZZ/Lal9dhW576vlDztDSnWppT9fm2PuCadJ5foXjp0qXNVwAA1wYLxX3Lm996E1xvknv1pnlfee2L86w1/4Y9fxhLWno+1Uxea8i+2l/7lvKUee2rdslrX5xn7fP8vtD31f7qLPJaQ/bV/tq3lKfMa1+1S15rnIesYS3POVl7+8izZl77ap6W+lLOqfOqQ+S1xnmote8LfV77qn3kWTNf6gM4Z5588snNVwAA1wYLxUOpN8F5k1zVm+V6k91bymvfTJ615l979/HXp1E/jKV/nPp41VK+rS+t5WuPk7V/vGopr32jPM3kWft54TR537eWp5wX1vK1x8ka57WvWsr7OWt5ijyt5UvzwihPS/nanLBtTlrLc06dF0Z5Wsr7OWt5ijzrTN73jfK0lK/1haUcAACAK8pC8VDqTXPUXr1ZznxbXz+n9o3m9HnUr3nFfj6M5d0PHS8Vw9Lj1OeR+r6wrW80Z5RnzXx2Tu3r59S+ape89sV51lGedZc5KfPaV43mjPKU+eyc2lftkte+OM86mpN1Zk7YNifOa181mjPKU+azc2pftUte++I862hO1qU5aTQHuCbddNNNm68AALjSrvvckc3X7MMHH9l8sVFvis/DzXE8/nOP/oM8fp3WI7e19mT3M4NGv99d8lo/210v1epK5Ev9ozwdIq99a/lsX3WIvPat5bN91SHy2reWz/ZVh8hr31pe+9KVyLN+ze2t/ZXu36/sJH4O3aOPPrq5Ol/uvffedt99922uTuaRRx5pd9555+bq/PGfW/tx3XXxL4XzJ5adjz/++OaKQ3vBC15wbt9m/vDDD5/4533Gv/fuv//+zdX5cvvttz/171cA6FkospsPXzr6L6bbNhedugRYMsrT7D+Zp3280+bVbI/n+7RRXs32eL5PG+XVbM+VeL4WintjoXhl+M+t/TivC8Xg7/jsnOd/DiwUAbhWWCiym7fc09rbXvv5N/1xncuAvoZRnnbJa98oT6O+UZ52yWvfKE+jvlGedslr3yhPo75RnnbJa98oT6O+UZ7i+qtub+05N7T24ltbe9HRr/g6fNFRjWu4QiwUrwz/ubUfFooEC8WzY6EIwDZ+hiK7efvrP3+JEpaWLLUv//tvW56W5lRLee2L86xLeTrknGopr31xnnUpTyedU/uqXfLaF+dZl/I06jvJnDivfdVSXvviPOtSnkZ9fZ71Ode3dtPLWvvTr2ntxx9r7X91dPijR//x/Zceau277jvK7mrtq45uLuKXZSIAAABXOQtFTu7tDx5/GEsuV6q6ZNmWZ53Ja1/tH+VpNq99VZxnXZrT533fKO/N5rWvivOs2Vct5TmnzhvlaSbPOpvX2ud93yjvzeRZR/kXXd/aN72itR99uLW7j/738EMPtfad91gYAgAAcOFZKHJy8enOsWzJ5UqV56fJaw3ZV/tr31KeMq991S557YvzrH2e3xf6vtpfnUVea8i+2l/7lvKUee2rdslrjfOQNazlOSdrbx/5S29v7Y7XtfY/u3xUHzy6PtnbmgCA3V261H0gIABwRVgocjIfv9zae9749NIl5fKlLmNqnpbybX1pLV97nKz941VLee0b5Wkmz9rPC6fJ+761POW8sJavPU7WOK991VLez1nLU+RpLV+aF0Z5WsqzxiLxRx4++vVIa99899M/ExEAODPn9dOdAeBaY6HIycTbnetyJtXlS13K9Pq+sK1vNGeUZ818dk7t6+fUvmqXvPbFedZRnnWXOSnz2leN5ozylPnsnNpX7ZLXvjjPOpqTNfOve1lr//xjx4tEr0YEgCvKKxQB4HywUORk4sNY6tKlV5c12/KsM3nty+uwLe/N5rWvivOs2Vct5TmnzhvlaSbPOpvXvj6f7Qs1T7N57av6x+n71vK+by1PS31VnGf9shuPX5EYPxvRz0UEgHPBKxQB4HywUGRe/OzET1x+5lKmV5c1u+ZZM6+15llH8w6d1xqyr/bXvtG8fee1L85rDaO+fl51iLz2xXmtYdTXz6tm8++6t7V/6eifda9IBGCSV86dDX/OAHA+WCgyLxaKdRkTtbeU175RnmbyrP28MMrTUt7PWctT5GktX5oXRnlayvs5a3mKPK3lS/PCKE9LeT9nLU+Rp7V8aV4Y5emFtxy/vflP3bc5AIA5Xjl3Nt70pjdtvgIAriQLReZ8+ug/kt+xebtzXc706rJmqS+XOLvMqZby2hfnWZfydMg51VJe++I861KeTjqn9lW75LUvzrMu5WnUd5I5cV77qqW89sV51qU8fNMrjn9Oorc3A8C5dPny5ad+AQBXnoUic+LDWEIubULWKvPaV9Vlzkxe+2r/KE+zee2r4jzr0pw+7/tGeW82r31VnGfNvmopzzl13ihPM3nW2bzWPu/7RnlvW/7nXtfa7Uf/jPvkZgA4t66GtzvfcIP/lgDg2nDd545svobt/v7NrX18838RrsubJafNq330jB7vtHka5em0j3favNpHz+jxTptXsz2zj/ec61v7iw8d9mclxv9uPv7E5qIz8/vp7fI94awe66yf3xcd/R2+2KtKT+KOO+5ojz766ObqfLn33nvbffft9iMHHnnkkXbnnXdurs4f/7m1H9ddF/8CP58efvjhp/73xeHcfffd7fWvf/3m6nza5X/r8e+9+++/f3N1vtx+++1P/fsVAHoWiox9+NLRfyXf9vQSpq9h6bzm6TR91S75Ln2jPO2S177T5LN91S557RvladQ3ytMuee1bOo9l4j+357c4x/Lw/Y8e/7zR+PrJzSsplp5P1m3PM+yr77ObutZXrfXNzpvty3ravuff1NrNd7X2ba+wYBywULwy/OfWflgoXtte8IIXnOufVXn99dfv9PwsFAG4GnnLM2O/98DxTXtYuskPfV77qtGcNDNnlGfNfHZO7evn1L5ql7z2xXnWUZ51lzkp89pXjeaM8pT57JzaV+2S1744zxrn+1wmxuLwt49uAn7m5uNX8v7q3ccLxVwmhtHzTofqG31/XC85zbzZvqxrfWmt78NHfw9vOvp31X972/Gvd7r5AbhIHnrooXP/wTe33ur/oAXAtcNCkXXxYSzveePm4kjcvNclQC/z2lflzf9sXvvyOmzLe7N57aviPGv2VUt5zqnzRnmaybPO5rWvz2f7Qs3TbF77qv5x+r61vO9by1Pk8RbZfSwTP3A043+6s7Wfvbm137qvtU9cPp4f6vMI9fml/vmG/jrNzAtLfWntcQ45b9SX1vrCaF7m4X2XWnvD0d/N3zr69cnzffMJwJxYKAIA54e3PO/bT/d3wUdGf8J5U7yt77R5GuVpZs55e76HfD6jvJrt8XyfNsqr2Z5t8569h2VivCLx0itbe//mFXD1cbZ9HfI6an1+2/rCtq9D/f59z6tmvidsy2a/Z+37T/P7+7KbWvuRN7T2Eq8aSd7yfGX4z6398Jbna1O8MvHmm28+969Q3PXfYd7yDMDVyCsUDyXvG6Lmf/vW/wbu89oX1vK+by1PM3nWmXytr89r3yhPM3nWfl4Y5Wkp7+es5SnytJYvzQujPC3l/Zy1PEWe1vKleWGUp6W8n7OWp8jTWr40L2Qen+S86zIxXq0bb23+uZufuUzc9nz6x8/rfH5hra8663lp6fvjOs6rpXlZZ+dt68s8zMwL9fyjl49fqRivWgTgqvTAAw+c+2UiAFxrLBQPJW+C+5vhlDe7s/muc9LSnGomz5r57Jzad5o51VJe++I861KeDjmnWsprX5xnXcrTSefUvmqXvPbFedalPI36TjInzmtftZTXvjj/3te0duNdx9cn9ZFLrf3Cna39zn2fP7e/zrrWl9b6ou57Xjpt39r3h7jOuo95aWZe1nr+qaObUG9/BrgqxSLxta997ebqfPMzFAG4llgo7lvexEbNm9p6k9ubzWtfFedZl+b0ed83ynuzee2r4jzrTF77av8oT7N57aviPOvSnD7v+0Z5bzavfVWcZ82+ainPOXXeKE8zedbZvNY+7/tGefq6l7X2HfdsLk7oHQ8eLxM/eumZ88PSdVrrC3G9Ni/zsK0v87TUl5a+P9V5o750lvPCaefFUvFvnt+3wwKw7Gp6daK3vANwLbFQ3Le8iV26ya03uyn68qZ4X3nti/OsfZ7fF/q+2l+dRV5ryL7aX/uW8pR57at2yWtfnGft8/y+0PfV/uos8lpD9tX+2reUp8xrX7VLXmuch6xhLc85WcOX3nj8VuddxDIxfl7iZ45uZPq5ob+utvXVObPztvXVGpb6liz1HXJe6q+rbX11zmnnvf9Sa7+x4z8LAJy5y5cvn9ufLdi78cYb2w033LC5AoCLz0LxUPqb2V7mUevNcm8pr30zedalPPV9tT+cNk9L+ba+tJavPU7W/vGqpbz2jfI0k2ft54XT5H3fWp5yXljL1x4na5zXvmop7+es5SnytJYvzftzD7b2nB3+A/9Nrzz+lfNCnRv669A/fqjXmYeZeeG08zJPS31pX/Oyb+m8t9aXc8I+5v38q731GeAq8cpXHv3/w1cJr04E4FpjoXgoeROctZc3tzXf1tfPqX2jOX1e+6qlfG1OWMtrXzWak2bmjPKsmc/OqX39nNpX7ZLXvjjPOsqz7jInZV77qtGcUZ4yn51T+6pd8qjf/qrWXrrDf+C/88HjVyf2+sffdj3qS2fVN/r+uF5ymnmzfVnX+tJaX9SZebFM9CpFgHMv3up8NX26sJ+fCMC1xkJx3/qb2/4mtzeb174qzrPO5LUvr8O2vDeb174qzrPO5LUvr8O2vDeb174qzrNmX7WU55w6b5SnmTzrbF77+ny2L9Q8zea1r+ofp+9by/u+Pn/O9a39qfs2FycQy8R4m3OdH/r5Yek661Jf5mFmXpqZF5b60trjHHLeqC+t9YXRvMzDtr7Mf+P1my8AOI8uXbrUXv3qV2+urg5eoQjAtcZCcd/qzW3WepPby7z2VfvIs2Zea82z9n1V5rWv2keeNfNaa551NO/Qea0h+2p/7RvN23de++K81jDq6+dVh8hrX5zXGkZ9Oe/7Hjj5W53j05x//egGJuekOnfpvDf6/r6m/jpt66s1LPUtWeqr81J/vc0+5m3rq3Nm523ryxo/S9HbngHOpfgAljvvvPo+RMsrFAG41lgoHkrezOZNbMga+rz2hbW871vL00yedSZf6+vz2jfK00yetZ8XRnlayvs5a3mKPK3lS/PCKE9LeT9nLU+Rp7V8aV4Y5Wkp7+es5SnytJbnnK+4vbVvuvupo2mffvL4ZybWD2BJ/fzUX6e1vqjnfV5a+v64jvNqaV7W2Xnb+jIPM/PCzLz3XXrqEoDzI5eJV8unOqeXvexlm68A4NphoXgoedOaNWQN/c1tWMt3nZOW5lQzedbMZ+fUvtPMqZby2hfnWZfydMg51VJe++I861KeTjqn9lW75LUvzrMu5WnUd5I5cV77qj7/jnuO/p8Teut9x69QDP3jxHXW/nyXvrTWF3Xf89Jp+9a+P8R11n3MSzPzso7mvfPq+blcANeCXCbG252vNnfdddfmKwC4dlgo7lvetEbNm9h6k9ubzWtfFedZl+b0ed83ynuzee2r4jzrTF77av8oT7N57aviPOvSnD7v+0Z5bzavfVWcZ82+ainPOXXeKE8zedbZvNY+7/uW8i+7sbUbT/gf9rFIvPzazcWR+jihzl86T3Gdlvquv6W1b3xVa7e8prU/9/Dxr9vLrzj/pqM8+vLxwrbHrY8XlvrS0venOm/Ul85yXtj3PADOjVgi3nbbbVflMvH6669vd999wndFAMAFYKG4b3nTunSTW292U/Tlze6+8toX51n7PL8v9H21vzqLvNaQfbW/9i3lKfPaV+2S1744z9rn+X2h76v91VnktYbsq/21bylPmde+ape81jgPWcNaHvW2HT6I5Tdf/fTcEHP6x6k19ddVnsdy8E++prUf+VBrP3h0o/QnH2jtG+9p7SV3fP6vbzo6v/Uo/6Gjvh9+/Ojro+977o3bH7fWsNS3ZKnvkPNSf11t66tz9jnvI5efugTgynrooYeeemXi5ctX57+XvToRgGuVheKh9Dezvf7mNmtvKa99M3nWpTz1fbU/nDZPS/m2vrSWrz1O1v7xqqW89o3yNJNn7eeF0+R931qecl5Yy9ceJ2uc175qKe/nrOUp8rSWP+/Gk//sxA8+0tr7j34tPa8QNefX89Bfh+y/4ZbWfuDh1v78peMF4rNP+AExz7uptW8++r4fObrB+u7XtfaCo3nppM8v87TUl/Y1L/uWzntrfTkn7HOehSLAFRVvcX7lK1/ZXv7yl191PzOxslAE4FploXgoedOatdff3IZtff2c2jea0+e1r1rK1+aEtbz2VaM5aWbOKM+a+eyc2tfPqX3VLnnti/OsozzrLnNS5rWvGs0Z5Snz2Tm1r5rNv3mHtxy99f7Pnzt6nLR0/azrj1+ReOel1l58x/H5ad189PuKVy1++73H1yd9ftvOU1wvOc282b6sa31prS/qSecBcEXEqxLjLc4PPvjg5uTqFG93tlAE4Fplobhv/c1tf5Pbm81rXxXnWWfy2pfXYVvem81rXxXnWWfy2pfXYVvem81rXxXnWbOvWspzTp03ytNMnnU2r319PtsXap5m89pX9Y/T963lfV9cn/TViZ+43NoHNh/OsTSviuv+vL9+/i2tff/RvG/Y4UNhZnzHfa39pceW3wYdlp5fWnveeX2IeaO+tNYXRvMyD9v6MgfgioifkRhvb45XJV6tb3GuLBMBuJZZKO5bvbnNWm9ye5lvu9ndR54181prnrXvqzKvfdU+8qyZ11rzrKN5h85rDdlX+2vfaN6+89oX57WGUV8/rzpEXvvivNawre+Ft7T2pTcdX896/IHNF536fEJebzsPuUy8/tbNwYHccDT/L1965ge3RA1Lz2/JUl/OWTof2ce8bX11zuy8bX21AnBmHnnkkaeWiPGqxPj6orjvvh1+bjMAXBAWioeSN7P15rXexPZ5f5O7lvd9a3maybPO5Gt9fV77RnmaybP288IoT0t5P2ctT5GntXxpXhjlaSnv56zlKfK0li/NC6M8LeX9nLU8RZ625d++w6sC3/vGpx+/qs8nZL50HtexTIy3OJ/05yTuKh7nB49uyOLnNNbnv+359db6Rt8f13FeLc3LOjtvW1/mYWZemJ0HwMHEz0V8/etf326++eanXpUYb3O+SG6//fZ2000n/D9kAsAFYqF4KHnTWm9e603s0s3tWr7rnLQ0p5rJs2Y+O6f2nWZOlefPub61F9/e2kuOfn3bva1906uOv/7yo1/PPsp2eZzaF+dZTzqnWsprX5xnXcrTSefUvmqXvPbFedalPI36TjInzmtfFecvPeHPK/zIpdb+6PLy3KXrrP15vjLxrMVS8c8fPW68/Tmt/T5Gv7+T9K19f4jrrPuYl2bmZZ2ZB8Be5RIxXo34ghe8oN19990X4q3NS7w6EYBrnYXivuVNa9S8ia03ub3ZvPZVcZ51aU6f932jvDeb174qzrPO5LUva7zV8595XWs//HhrP/Zka7c/cvzrTxz9h90tDzx9/bKj7C881tqtr3n6lVy9pcep+ucTal+f932jvDeb174qzrNmX7WU55w6b5SnmTzrbF5rn/d9mcenO5/07c7x6c75/SHnhvo4YenxQ3wAy20Pnt0rE3vPOXrcHyiv+Fh63mmX3995mRf2PQ+AU4tlYSwQ49Oa4+3MuUS8aK9G7N1yyy3tjjv29MFrAHCVslDct7xpXbrJrTe7KfryZndfee2L86x9nt8X+r7aX51FXmvIvq97RWv/7OOt/YVLrd14d2vPnVggxc+b+6Z7WvuLR98T3xuvXqxmnk+f1758nkt5fl/o+2p/dRZ5rSH7an/tW8pT5rWv2iWvNc5D1rCUn/TViSE/jCXl3NA/n7yu5+Fb7zv8z0wcecHR43/nlk9/zj+f3lJf//sMS31LlvrqvNRfV9v66px9zgNgSiwNH3300ad+3X///U8tD+MtzNddd91Tb2eOBWJ8WnN84Mq14p57DvThawBwFbnuc0c2X7MPP725U82b1lqrpXyXvtPmadR32jzt0hevLvyTD7T2kj39X4Lf90hrjx39h+CH37T8POrzGeVpl7z2nSaf7at2yWvfKE+jvlGeRvkPvO7kn/D8yM2tffzy8bzPHv2qc/vHWTqPV8refo5unv72Ta394RPLv4/Z319a65udN9uX9az7vub21v5Kt1S+RsSramIxcB7de++9O7+NMD7oIZYc55X/3NqPWGKdVw8//PCJXrUWS7h4dd95FG9dvpYWhCdx44037v1t3PHvvVjWnkfxsyIv0gfpALA/For7lgvF0N/EbjOTn8Wcs3qcNJN/46uO38q877eUfvrJ46XiE0f/IX+S53uaP79RnkZ5Ou2cfT2ffT7Orn9+dz3W2gtP+ErBuvyvNdXrpa//zMOtvfgcvd3pbQ+29kuv3P772Hae6vW2r0Ner31/2Gfftq9D/f76z8e2vhBfWyhurs4XC0VGLtJC8TwvkdjupH/PMywUAbgaecvzvtWb2by5zf/2Xfpv4Nm89lVxnnUmr315Hbblvdm89lVxnnWUx89JjJ+JeIifTxczv+fBo/mvOdnzzeu0lOecOm+Up5k862xe+/p8ti/UPM3mta/qH6fvW8tr30mXifHzE0POD/3j1utQHz8+iOU8LRPD18ePAbjx838fae33l9e1Pyz1pdl5o7601hdG8zIP2/oyB4AdxHJt38tEALhaWSjuW725zVpvcnuZb7vZ3UeeNfNaa56176syr33VPvIQy8T4OYmH9s33PHOp2Jt9vllD9tX+2jeat++89sV5rWHU18+rDpHXvjivNfR9L7xl88Ue9c+3f55fdwb/bO4ilor9814y+v2l/nqbfczb1lfnzM7b1lcrAJxQvE0dADhmoXgoeTNbb17rTWyf9ze5a3nft5anmTzrTL7W1+e1b5SHG19xNsvEFEvFeMxdn2+IPK3lS/PCKE9LeT9nLU+Rp7V8aV4Y5Wkp7+es5Sny1OfxScenkY9f1ecTMs/zrz3HC8X+efd/XmHp95fXo++P6zivluZlnZ23rS/zMDMvzM4DgEnxIxluumniAwEB4BphoXgoedNab17rTezSze1avuuctDSnmsmzZj47p/aN5sQHXXzXFfi//sbbn+Oxw0meb8q89lVLee2L86xLeTrpnNpX7ZLXvjjPupSnUd9J5sR57Uu7fMJz2jZ36TprvN35EG/D34fnHd3oxNueU/19jH5/J+lb+/4Q11n3MS/NzMs6Mw8AJsQHsfhkZwB4JgvFfcub1qh5E1tvcnuzee2r4jzr0pw+7/tGeW82r31VnGddyuPTnK+U2xYee+n51ufd533fKO/N5rWvivOs2Vct5TmnzhvlaSbPOpvX2ud9X+a7qt+fc0N9nFAf/0Xn/GcnfUV5frv8/kZ96SznhX3PA4BJDzzwQLvhhnP6f0wEgCvEpzzv2y8tLBvyZnb2T/pa7A8vOfqz+7bdPt1zb3757tYuv35zsTH7+znJ73dt3qHzah89o8c7bV4t9dx279GvE/5zEx/K8kt3PnNePzuvo9bn9+2vae3rz/GrFN5y9GfxlvJJkdt+j/XrkNdR6+93W1/Y9nXY5/fv+/nEvK/2Kc/nkU95ZsSnPHPWXvGKVxz8Zyf6lGcArkYWilB97HJrP3Xz5y8flmq1S177TpPP9lW75LVvlKdR3yhPa/kPvqG1G+/aXEyqC8WY99lNzbn949T6Zx8+369SfOdDrf38y4+/zt/H7O8vrfXNzpvty3rWfV9joXgeWSgyYqHIWbrlllue+nfLoV+daKEIwNXIW56hip9B91Uv21wcyfuWXEbUpUS1S1774jzrKM+6y5yUee2rRnNGecp8dk7tq9by03woy7a5a8/jvKs/33H297ft97Xt+2bmzfZlXetLa31RTzoPALa4/vrrn3plorc6A8AyC0XofXV5tVu/rOiXEkt5XWqkUZ5m8qyzee3r89m+UPM0m9e+qn+cvm8tX5p3Ujk/9I/bz8/HP+/630da+/3ldf/7W+pLs/NGfWmtL4zmZR629WUOAAPxcxNvvfXWzRUA0LNQhF78LMeUS4hty4hcWvTLi1pD7RvN23de++K81jDq6+dVh8hrX5zXGpb69q1/vkvP87zqn/eS2d/f7O93H/O29dU5s/O29dUKAFvEz028++67N1cAwBILRejF255vuOX466UlxNIyol9e9DJfmhdGeVrK+zlreYo8reVL88IoT0t5P2ctT5GnPv/Uk5svdpSPX9XnEzLvz8+jT5c/j23Pd+n3l9fbzlNcx3m1NC/r7LxtfZmHmXlhdh4AdOLnJsarEwGAdRaKsCR/Dt3SEmJpGZH5tmXFUl774jzrUp5OOqf2VbvktS/Osy7ladR3kjlxXvvSBy9tvtjBtrlL11k/fIrHOwsfKs+v/j5Gv7+T9K19f4jrrPuYl2bmZZ2ZBwDFWX0ICwBcBBaKsOSGzc/MySVE1LqsSH3e943y3mxe+6o4z5p91VKec+q8UZ5m8qyzea193vdlvqv6/Tk31McJ9fE/fjlOzq/4pPK0y+9v1JfOcl7Y9zwAKCwTAeBkLBRhSX5ycF1i5LJiaWmxlOf3hb6v9ldnkdcasq/2176lPGVe+6pd8lrjPGQNS/k+5NzQP5+8jvqBR4/+n3PsveX5bfvzqb+/UH9/WcNS35Klvjov9dfVtr46Z5/zAGDDJzoDwMlZKMKaXD7UJcTSMmImz9rPC6fJ+761POW8sJavPU7WOK991VLez1nLU+Spz9/9yOaLHfWPH/rnk48f9SOXzu+rFOPVifW55e8jn3+qv79Q8/732/fNzsu+pfPeWl/OCfueB8A1L5aJ8cpEn+gMACdjoQhL8oMt+iXEtmXELnnti/OsozzrLnNS5rWvGs0Z5Snz2Tm1r1rLP/XhzRc72DZ39Dze89BTl+fObz+w/PsY/f7iesm275uZN9uXda0vrfVFPek8AK5plokAsDsLRViSH2zRLyv6pcRSXpcaaZSnmTzrbF77+ny2L9Q8zea1r+ofp+9by7Oe5kNZcn7oH7deh/r4b3ttnJw/73zj5/8+0trvL69rf1jqS7PzRn1prS+M5mUetvVlDsA1L39momUiAOzGQhHW5BJi2zIilxb98qLWUPtG8/ad1744rzWM+vp51SHy2hfntYalvpMuFV94x+aLLfrn2z/PeFvxOx48+uIcedvR84m3PPfPe8no95f66232MW9bX50zO29bX60AXLMsEwHg9CwUoRdvd37f5oMtlpYQS8uIfnnRy3xpXhjlaSnv56zlKfK0li/NC6M8LeX9nLU8RZ6W8g/s8CrFL7nxuObjV/X5hMzr+Xl6leKnjv6Z/bX7l5/30p/XWt/o++M6zquleVln523ryzzMzAuz8wC45rziFa/wac4AsAcWitB7V/n5eEtLiKVlRObblhVLee2L86xLeTrpnNpX7ZLXvjjPupSnUd9J5sR57at2+WCWL7t1+9yl66x5/uFLrb3tgc3FFfY7R88jXp249vsY/f5O0rf2/SGus+5jXpqZl3VmHgDXlNe97nU+zRkA9sRCEXp/UJZTuYSIWpcVqc/7vlHem81rXxXnWbOvWspzTp03ytNMnnU2r7XP+77M37N5RelJvOiOp78/5NxQHycsPX74rfuPF4tXUvy8z7ccPY+w9LzTLr+/8zIv7HseANeMG2+8sT322GPt7rvv3pwAAKdloQhVvN35XW/cXBypS4xcViwtLZby/L7Q99X+6izyWkP21f7at5SnzGtftUtea5yHrGEp/8PLx79Oov85ijk39M8nr+t5+MzRPy+PvfLpTwU/a/FW53/48qf/HPrnl+e9pb7+9xmW+pYs9dV5qb+utvXVOfucB8A14VWvelW7dOmSn5cIAHt23eeObL5mH956/9M3r309idN+f1qac5J5p/3+NDPn+lta+6q7NhdXyK/f19pvbH4WXZh53mGXvPadJp/tq3bJa98oT6O+UZ5m8u97TWvffs/x9ayHb2rtj55o7bNHX9e5/eOsncf1849uUv7sw609+wzfQhVLzJ+7s7UnL42f3+zvL631zc6b7ct61n1fc3trf2WHt8pfAHfccUd79NEdXtV7Bu699952331H/x7eQfxMtDvvPPrfxDnlP7f247rr4n/M59PDDz/81P++ZsU/6/ffv3mFOXt3/fXXt4ceeuhEfydXynn+Z+H2229/6t+vANCzUNy3ny7/odvfxG4zk5/FnLN6nNTnsYz5wcdae+5Nm4MzFj+D7u/evLlYMPp9nTZPozydds6+ns8+H+c0f34vvLW1u47++TmJ37yntcc3H67Sz63X274OeR1Lxe8/o6ViLBP/wZ3Hb3cOM89v23naNmNb39r3h332bfs61O+v/3xs6wvxtYXi5up8sVBkxEKRGfHvknvuueeq+VmJFooAXI285Xnf6s1s3tzmf/su/TfwbF77qjjPOpPXvrwO2/LebF77qjjP2uexJHnTqzcXV8DSY/fPN6/TUp6/r/r7G+VpJs86m9e+Pp/tCzVPs3ntq/rH6fvW8r7vg5dO/rbnm8orGvt59Tr0jx/q9UeOHv/h2w7/MxXjFYl/7+hx6isT09LzS9ued8jrQ8wb9aW1vjCal3nY1pc5ABdSLL8ef/zxpxZ0PngFAA7LQnHf6s1t1nqT28t8283uPvKsmdda86x9X5V57atOm7/7odZ+9wp8cu5bjx7zneXTndPM76fWkH21v/aN5u07r31xXmsY9fXzqkPktS/Oaw1rfb92wn92vuSm1l54++aiqM8n5PW28/Txy8dLxfiwln2LhfuvH839H47mx+PU5xM1LD2/JUt9dV7qr7fZx7xtfXXO7LxtfbUCcGHEIjFeIRqvpLvppiv0ThcAuMZYKB5K3szWm9d6E9vn/U3uWt73reVpJs86k6/19XntG+Xhza9u7X1n+NaKdz3U2mNHj7nr8w2Rp7V8aV4Y5Wkp7+es5SnytJYvzQujPC3l/Zy1PEWe1vK3lw/UmfXN9z1zfqjPJ2S+dL70fH7zaObP3Hz0fF6/OTily0dzfua21n5t81bQ+rhRT/r81vpG3x/XcV4tzcs6O29bX+ZhZl6YnQfAVa0uEq+Gn5UIABeJheKh5E1rvXmtN7FLN7dr+a5z0tKcaibPmvnsnNo3O+cXX97aEw9uLg4olon/+JWnf76Z175qKa99cZ51KU8nnVP7ql3y2hfnWZfyNOo7yZw4r31Vnsdbnt96wn9u4tOeX3T7M+f2jxPXWWf74mdy/srdrf0PN7f2m/cfv6rwJOL7L736+Od6/vLRnPp27v5x09rzGz3vk/StfX+I66z7mJdm5mUdzfsib4UDuFq94hWvsEgEgCvMQnHf8qY1at7E1pvc3mxe+6o4z7o0p8/7vlHem81rXxXnWdfyTz3Z2q+88rBLxbe+trX/6eXHbyU9yfOtfX3e943y3mxe+6o4z5p91VKec+q8UZ5m8qyzea193vct5Y/t8HbjP/HA03NDfZxQ54/6Up7HIjFesRiLxb939Cv+uY4F4++/sbX3Pfr0r7iOTxiPBXcsEX/q6NfvHD2vWCyuPZ9q5vmEtXmjvnSW88K+573k1s0XAFwNbrzxxqc+bOVDH/pQe/DBBy0SAeAKs1Dct7xpXbrJrTe7KfryZndfee2L86x9nt8X+r7aX51FXus/eWVr/2iz9NuXmPULRzMv3TP3fPq89uXzXMrz+0LfV/urs8hrDdlX+2vfUp4yr33VLnmtcR6yhrU86kcvn/xVivEJzTe9anNxJOb0j1Nr6q+rpb5YLl4+em6xYPxHd7X280c3Q49ufv3C0fVvHJ1H3r+acdvj1hqW+pYs9R1yXuqvq219dc4+5wFw7sUS8VWvelV77LHH2uXLl33YCgCcIxaKh9LfzPb6m9ttN7lLee2bybMu5anvq/3htHlayrf1pfiglp+++fhVXadZLMb3xivA4pVf8VbnMHo+J3m+ozxrPy+cJu/71vKU88JavvY4WeO89lVLeT9nLU+Rp7U85/zqDq9S/Kb7Wnv+Lcdf98+nn5/665D92/oyDzPzwmnnZZ6W+tK+5mXf0nlvrS/nhH3O8wpFgHMpfi7ia17zmn+6RHzggQfarbf6dzYAnDcWioeSN61Ze/3NbdjW18+pfaM5fV77qqV8bU5Yy2tfNZqT+jlPLQPvO14svunVrT156ehwUryVNL4n3kb660cz4u3UqX+cUJ9PnGft+6pd8toX51lHedZd5qTMa181mjPKU+azc2pfddI8ft7gr5/wE5+ffUNrtzzY2rOuHz9O2nY96ktn1Tf6/rhecpp5s31Z1/rSWl/Uk8yzUAS44mJ5GK9AjAVi/EzEz33uc0/9XMR77rnHEhEAzjkLxX3rb277m9zebF77qjjPOpPXvrwO2/LebF77qjjPOpPXvqixDPzdB1r72dta+9svaO3RO49fuRivPPzd1x7/XMT4OhaIkT101BNvJY2fRfeZhVc3Lj1OtfR8qqU859R5ozzN5Fln89rX57N9oeZpNq99Vf84fd9a3vf1efwsxbo8nhFvff72o39W6pzUzw9L11mX+jIPM/PSzLyw1JfWHueQ80Z9aa0vjOZlHrb1Zf6SW47+rm/aXABwaLfcckt72cte9tTPQIzF4eOPP/5Pl4fxCsRYIPqZiABwdbFQ3Ld6c5u13uT2Mq991T7yrJnXWvOsfV+Vee2r9pFnzbzWmserFt//yPGrDuNn0sXPRHzT0a94JeNbH2jtfUdZLBFHj3favNaQfbW/9o3m7TuvfXFeaxj19fOqQ+S1L85rDaO+nPfJo7/7Xzz65+Gkvubu1m593efPz7lL571tfdtq6q/Ttr5aw1LfkqW+Oi/119vsY962vjpndt62vqx/4ujvGIC9iYVhvtowloZveMMbnlocxgeoxOLw0qVL7aGHHnrqZyDG4vCmm/wfdQDganfd0f8nv3Q7xq5+Ou5Yj9Sb176G0+SzfdUh8l36RnnaJa99ozyN+kZ52iWvfaM8jfpGedolr32jPI36RnnaJc/6ww+39tIdXvXwprtbe8frj7/Ox6tzw9J11ovc99lNXevLOurb97ys2/q+6PrWXnn5qF67P9Q/buYfffTRzdX5EouIWDjsIl7pdOedd26uzh//ubUf110X/2M+n2KBdpJX2cU/6/ffv8PP/N2z66+/fvXtxfX3FH35oShRvS15P87LPwtLYlEc/34FgJ6F4r7lQjHUm9g1M/lZzDmrx0mnnXNWj5NOO+esHieN+k6bp1GeTjtn9Hy25c85uvH5q48f15N6x4OtvemVx1/n3H7+tuu1vm1fh/r99fezrS9s+zrMfH84z33bvg7brred/7nXtHbbDq9cBQAA4J/ylud9qzezuQyIGrJWs3ntq+I869KcPu/7RnlvNq99VZxnnclrX+0f5Wk2r31VnGddmtPnfd8o783mta+K86zZVy3lOafOG+VpJs86m9fa533fKA/xcxR/9uWbixP62rtbu+V1z/yglpwblq7TWl8Yzcs8bOvLPC31paXvT3XeqC+d5bywj3kvvsUyEQAAYA8sFPctb2KXbnLrzW6KvrzZ3Vde++I8a5/n94W+r/ZXZ5HXGrKv9te+pTxlXvuqXfLaF+dZ+zy/L/R9tb86i7zWkH21v/Yt5Snz2lftktca5yFrWMtzTtb07kda+9Xd3kb51FLxzxx9/5fd8vlz++tqW1/Ubc9z27xtfbWGpb4lS32HnJf662pbX51zmnnPub61H33o+BoAAIBTsVA8lP5mtpd51Hqz3FvKa99MnnUpT31f7Q+nzdNSvq0vreVrj5O1f7xqKa99ozzN5Fn7eeE0ed+3lqecF9bytcfJGue1r1rK+zlreYo8reVL80Jcx6c+/86Dx9cnFZ/+HEvFb7738+f2z2fb4+d15mGtrzrtvMzTUl/a17zsWzrvrfXlnLDrvFgm/vjR359PdgYAANgLP0Nx3/wMxbObc1aPk0Z9p83TKE+nnbOv57PPxzn0n2/8HMX4kJYXneKHyH/8cmuX7m7t/ZsPtegfL6+3nYdtX4dD9a19f9g2Y1vf2veHffZt+zrU769//1m/7MbWfuSh1l7igwMAAAD2xSsU923p5jZqyFrN5rWvivOsM3nty+uwLe/N5rWvivOsM3nty+uwLe/N5rWvivOs2Vct5TmnzhvlaSbPOpvXvj6f7Qs1T7N57av6x+n71vK+by1Pn3yytZ+6s7UPXNoc7OC5Nx2/WvHPxmLy9s9/Hlm3Pb+U10t9vZl5YakvrT3OIeeN+tJaXxjNyzzk+Vcf/f38z4/+ri0TAQAA9sorFPetvkIxjf6E8+Z3W99p8zTK08yc8/Z8D/l8Rnk12+P5Pm2UV7M9o8f7oj28UjHFKxbf/uDxr48/sTk80j9+XvfPb1tf2PZ1qN+/73nVzPeEbdns96x9/0l/f/HhKz/wQGtfc8fmAAAAgH2yUNy3XCjGn2reBPc1nCaf7asOke/SN8rTLnntG+Vp1DfK0y557RvladQ3ytMuee0b5WnUN8rTLnntWzrf51IxxXLx/Y+09vsPtfaJo6+ffNPx+dLzybrteYbz2vfZTV3ryzrq29e8eGvzzXe19g1Hv77aIhEAAOCQLBT3zc9QPLs5Z/U46bRzzupx0qjvtHka5em0c0bPZ5SnmsdS8Xtf09o33705OIBYMsav0fPa5qTfd1aPk67084u/wxd7SzMAAMBZslDct5+67umlxrZaHSKvfWt51PrKoG21uhL5Uv8oT4fIa99aHtWf78nzWkd/fvv68/2+B1r7jldtLgAAAIA1For71v8MxZk/3X650TttnkZ5Ou3jnTav9tEzerzT5mmUp9M+3mnzah89o8c7bV7N9uzyeDfe1drtrzv+JGgAAABgK5/yfCh1WRHLi17mdbmxra/Pa99MnnUpT31f7Q+nzdNSvq0vreVrj5O1f7xqKa99ozzN5Fn7eeE0ed+3lqecF9bytcfJGue1r1rK+zlreYo8reVL88IoD0881Np/f9vpPgEaAAAArgEWiodSlxa5zKhymVHzbX39nNo3mtPnta9aytfmhLW89lWjOWlmzijPmvnsnNrXz6l91S557YvzrKM86y5zUua1rxrNGeUp89k5ta/aJa99cZ51bc4fXm7tDbe19qv3t/apJzeHAAAAQGWhuG91mVGXFyFrNZvXvirOs87ktS+vw7a8N5vXvirOs87ktS+vw7a8N5vXvirOs2ZftZTnnDpvlKeZPOtsXvv6fLYv1DzN5rWv6h+n71vL+761PC31VXEefuW+41crXn5ocwAAAAAkP0Nx3/qfoRhGf8J1ybHktHka5Wlmznl7vod8PqO8mu3xfJ82yqvZnn0+n5fe0dp33XtcAQAAAAvFvfulbulQlxN9rdb6Ttq/5DT9H3h0+fuWvn/UN8rTLnntG+Vp1DfK0y557RvladQ3ytMuee0b5WnUN8rTLnntG+Vpre+rjv63/acsFgEAAMBCkbGfuam1TzyxuTgy+iemLmHWnHbOWT1OOu2cs3qcNOo7bZ5GeTrtnNHzGeVplKdtfS+6tbXvuKe1m17mE6EBAAC4JlkoMvZ7D7T2a68+/roubZaWN4fIl/pHeTpEXvvW8qif7a6XanUl8qX+UZ4Okdc6+vO70n++N97V2rfcfVRfdnQBAAAA1wYLRcY+frm1v3/z5uLItmVLOm1e7aNn9HinzdMoT6d9vNPm1T56Ro932rya7TmL59Pn8ZboeDv0U/X2zSEAAABcPBaKzPmlu1p7zxufuWypS5el86WlzGn6ql3yXfpGedolr32nyWf7ql3y2jfK06hvlKdd8to3ytOob5SnuH7xrcdviY4F45fddPwr+599/XEOAAAAVyELRea8+6HWfvnlx1+P/onJpclM35rRnLN6nDTqO22eRnk67Zx9PZ99Ps5Z/fmet9/3mn0+zmn+/EZ5Oknfmn7O19ze2l95ZHMBAADAlfQFmwrrXnpXa8+98emb/JC1qkuAbXnWmbz25XXYlvdm89pXxXnW7KuW8pxT543yNJNnnc1rX5/P9oWap9m89lX94/R9a3nft5anpb4qzrPO5rWvz2f7Qs3TbF77qv5x+r61vJ83ysPSnCrOs87k2/oAAAC4oiwUmfeVdz3zJj9v/qt95Fkzr7XmWUfzDp3XGrKv9te+0bx957UvzmsNo75+XnWIvPbFea1h1NfPqw6R1744rzWM+vp51SHy2hfntYalvrQ0rzpEvtQHAADAFWWhyLxvuOeZN/tRe0t57RvlaSbP2s8Lozwt5f2ctTxFntbypXlhlKelvJ+zlqfI01q+NC+M8rSU93PW8hR5WsuX5oVRnpbyfs5aniJPa/nSvDDK01Lez1nLU+RpLV+aF0Z5Wsr7OWs5AAAA54KFIvOee1NrL779+GY/ZK3qMmCpry4JTjqnWsprX5xnXcrTIedUS3nti/OsS3k66ZzaV+2S1744z7qUp1HfSebEee2rlvLaF+dZl/I06uvz2lftkte+OM86mpP1tHNGedbMa1+fH3oOAAAAV5SFIifzdXc/86a/V5cA2/KsM3ntq/2jPM3mta+K86xLc/q87xvlvdm89lVxnjX7qqU859R5ozzN5Fln81r7vO8b5b2ZPOtM3vet5f28UR6W5lRxnnUmr315Hbblqe8LNU9Lc6qlOVWfb+sDAADgirJQ5GTiw1medf3TN/u9ugTYNa81ZF/tr31Lecq89lW75LUvzrP2eX5f6Ptqf3UWea0h+2p/7VvKU+a1r9olrzXOQ9awluecrL195Fkzr301T0t9KefUedUh8lrjPNTa94U+r33VPvKsmS/1AQAAcEVZKHIyz77heKmYS4FUb/7r0qC3lG/rS2v52uNk7R+vWspr3yhPM3nWfl44Td73reUp54W1fO1xssZ57auW8n7OWp4iT2v50rwwytNSvjYnbJuT1vKcU+eFUZ6W8n7OWp4izzqT932jPC3la31hKYf/f3t392vbed2HebKIpdixRcmS6ziWw0O5hS0nMcm0SWynzqEa20BdF+coTYEgSUOyRRH0iiT6B5C8b0Hxrnckgd70ohUFpOmFA1BE7SZFPkg2aNwLOyTlFooR2yHd2G4sR+4aZ69RDr6aa77vWWvO/fk8wMZ71vyNM9biPpt7rzn2/AAAAC6UgSL3L27OEmKnP9Wd/zo0aLV14VBdr08vzzXz0T61ru1T66pj8loX23Pt5bke0ydlXuuqXp9enjIf7VPrqmPyWhfbc+31yXWkTzjUJ7bXuqrXp5enzEf71LrqmLzWxfZce31yneuTen0AAAC4UAaK3L8HH919PPLhcKCqQ4BDea4jea3Lx+FQ3hrNa10V23PNumouzz61Xy9PI3muo3mta/PRulDzNJrXuqp9nrZuKW/rlvI0V1fF9lxH81rX5qN1oeZpNK91Vfs8bd1S3vbr5WGuTxXbcx3JD9UBAABwoQwUOU7cnCV3/qs6BDg2zzXzutY8116/rfO6hqyr9bWu12/tvNbF9rqGXl3br9oir3Wxva6hV9f2q7bIa11sr2vo1bX9qi3yWhfb6xrm6tJcv2qLfK4OAACAC2WgyHHq3Z6rOgzIvNb18jSS59r2C708zeVtn6U8RZ6W8rl+oZenubzts5SnyNNSPtcv9PI0l7d9lvIUeVrK5/qFXp7m8rbPUp4iT0v5XL/Qy9Nc3vZZylPkaSmf6xd6eZrL2z5LOQAAAJfCA3+ws/8za/jlF/Z/2Dn1M1t3rk/R9vn07Wn6zOP7Byf4R09O09de3T8oRl/3SL7U57yeJ53a57yeJ/XqTs1TL0+n9um9nl6eenka6XNen981/rt6fc7redL99vns7vvWX/7q/gEAAAAXyUBxbX97twecO8GH1mqLvNbNbY9rIN5+c/eHE/36buf+F76wf7A393zVMflcfS9PW+S1bimP9ZvN47m1uoh8rr6Xpy3yuvY+f5fh81vrlvJaly4ir+vo56+Xpy3yXA0UAQAALg2nPK8tdn7rGnKnOdeq3WluHZPXutiea27/4K2zj1PFUY7f8dD+wd7c66lG8rqGrKv1tW4uT5nXuuqYvNbF9lzbPP9eaOtqfXUeeV1D1tX6WjeXp8xrXXVMXtfYHnINS3n2ybW1Rp5r5rWu5mmuLmWf2q/aIq9rbA91betCm9e6ao0818zn6gAAALhQBopbqTvBuZNc1Z3lupPdmstr3Uiea81/9ZWzP58qrqUY2uepz1fN5Yfq0lK+9Dy5ts9XzeW1rpenkTzXtl84JW/rlvKU/cJSvvQ8ucb2WlfN5W2fpTxFnpbyuX6hl6e5fKlPONQnLeXZp/YLvTzN5W2fpTxFnutI3tb18jSXL9WFuRwAAIALZaC4lbrTHGur7ixnfqiu7VPren3aPNdfnbn24TFyoHjoeVptXThU1+vTy3PNfLRPrWv71LrqmLzWxfZce3mux/RJmde6qtenl6fMR/vUuuqYvNbF9lx7fXId6RMO9Yntta7q9enlKfPRPrWuOiavdbE9116fXOf6pF4fAAAALpSB4trqTnLdKQ65VqN5ratie64jea7feH+doxS/49Y0fd+d/YOd9nla7etptXmty8fhUN4azWtdFdtzzbpqLs8+tV8vTyN5rqN5rWvz0bpQ8zSa17qqfZ62bilv65byNFdXxfZcR/Na1+ajdaHmaTSvdVX7PG3dUt726+Vhrk8V23MdyQ/VAQAAcKHclGVt//PM3m/vM1x3nuecmqc2j2sg/sTr+wcn+Nor0/SPnto/2Nnq9R5y6vOdmlejNV7vh3p5NVrj9X6ol1ejNRfxet2U5cZ5//33p7fffnv/6Hi3b+++dgAAgFUZKK4tB4p1p7hdwyn5aF11KP+pd86OMjzV3/rkNP3+B/PPU5+vl6dj8lrXy1OvrpenY/Ja18tTr66Xp2PyWtfLU6+ul6dj8lrXy1OvrpenY/Ja18tTr66Xp2PyWtfLU69uKTdQvBZySPjWW2/d+3Ou4atfvV7/vs8999z0/PPP7x+Ne+WVV6b33ntv/4iLEEPoxx9/fP9o3AsvvLD/E/fjk5/85PToo4/e+/Nl+QWAf8ur54knnphu3Vphn+YSePfdd6dXX13p8lTcl7nv//Fe5Stf+cr+0Taefvrpe98Lb6rXXnttlV8iH/Lggw9OzzzzzP4RazJQXFs9QrHuDC8Zybfq80PP7T7uf4fnW/zj3f+gv/LS2Z+3fL3VeT1POrXPeT1P6tWdmqdenk7t03s9vTz18jTS57w+v2v8d/X6nNfzpPvtY6B4Jb3xxhv33iTGm/E6PLwJjh0oxo5MfN64OMf+2z3wQHzT4lQxXIzBUPy/cOfOnQsZEvm3vHpef/31o34RMP3fr07TP/mvpumbuz/nR7z3aB//6/3abq+P4+PzT07TT/7Xuz8cL37B9oUvfGH/iPN06Pv/3bt3Nx0qxve9N998c//oZon3iV/84hf3j7YRn9v8xRXrcg3FteXOb6y5M5zvSebem4zmta6K7bnO9Wnztu5rK/326wf3E/+556na19Nq81pX63t5Gs1rXRXbc53r0+ZtXS9vjea1rortuWZdNZdnn9qvl6eRPNfRvK5t3tb18tZInutI3tYt5W2/Xh7m+lSxPdeRvNbl43AoT21dqHma61PN9ana/FAdl1YMDePIntgRih3y2Ln70pe+dG/n6CYNE4HjxfeR2MGMo0kefvjhex/xfSWO2oLV/evfnabf+41p+sbuI9d/tf9zrv9vWWNbXduPb/zLfWOukzh74JFHHtk/Wl9833vqqXIJsRviPP67X375ZcPEDRkori13futOcN1JbtWd5rXyWhfbc23zWH939+bs66+dPT5FnDb94O6b7NzrqUbyuoasq/W1bi5Pmde66pi81sX2XNs8/15o62p9dR55XUPW1fpaN5enzGtddUxe19gecg1LefbJtbVGnmvmta7maa4uZZ/ar9oir2tsD3Vt60Kb17pqjTzXzOfquFRiJ/+ll166t9P/2GOP3fvN/nU7fRm4OPE9Jr6vxPeY2PE0WGQT7fuTfBxye318iPct11KcjhxDxTh1divRPz5uivhFcxyZuOUvnONU8ieffHL/iC0YKG6l/jCZ+6HT/rCqP6SqubzWjeS5zuVhjbs9hzhKce71VHP5obq0lC89T67t81Vzea3r5Wkkz7XtF07J27qlPGW/sJQvPU+usb3WVXN522cpT5GnpXyuX+jlaS5f6hMO9UlLefap/UIvT3N522cpT5HnOpK3db08zeVLdWEu51LIU7JiJz+OJLKTD2wtdrZzsOioZ1Y19/4kHof6/iXkWtW/x7UUR7nF0dNbiu9tN+WXsjFM3PK9Y1wPM86SYVsGilvJHzr1h09Vf+j0fji1fWpdr0+b17r0z74yTd9Y4U3Z992dpo89ePh5Qvt6wqG6Xp9enmvmo31qXdun1lXH5LUutufay3M9pk/KvNZVvT69PGU+2qfWVcfktS6259rrk+tIn3CoT2yvdVWvTy9PmY/2qXXVMXmti+259vrkOtcn9fpwoeJC8bFDH8NERyICFyEHi3F0NKyivi9p34fEGtq1qn+faysu5RKn0G5p60HbZRC/iN7yPWScnr718JczBoprqz9MDv0QqkbzWlfF9lxH8lqXj8MaRyl+2yen6Y/e/dbnqdrX02rzWpePw6G8NZrXuiq255p11VyefWq/Xp5G8lxH81rX5qN1oeZpNK91Vfs8bd1S3tYt5WmurortuY7mta7NR+tCzdNoXuuq9nnauqW87dfLw1yfKrbnOpIfquNCxBu/2IGPU0ccjQhctDhCMXZKb+J1x9hAvt+o7z/qGtp1jvct1168D4q7im/lPE4FvkjxC6EtfxkUp6XHc9zku2afJwPFtdUfRrku/fDJvNZVa+S5Zl7XzP/pSv9T/1vNac+t3L6U55p5XWuea6/f1nldQ9bV+lrX67d2Xutie11Dr67tV22R17rYXtfQq2v7VVvktS621zX06tp+1RZ5rYvtdQ1zdWmuX7VFPlfHuco3tnFEokEicNnEjmNcv9Up0Jxk7v1HPA71/UnIdY73LTdCfN/Z+iYtzz777P7R9XEe/13xb+MmLOfHQHErh34YpTavdWEpb+uW8tTLf3u3k/jrKxx2/ODuf94/8tD2rzfyXNt+oZenubzts5SnyNNSPtcv9PI0l7d9lvIUeVrK5/qFXp7m8rbPUp4iT0v5XL/Qy9Nc3vZZylPkaSmf6xd6eZrL2z5LeYo8LeVz/UIvT3N522cp59zFm7I4KtFpI8BlFjup8UsPQ0WONvf+Ix6H+v6kx/uWGyPO3Hjood1+70biPdh1ugbgeRx5+eKLL053797dP+I8GChupf5Qqj+MUv6wGc2P7ZPm+lSxfc2bsxx6PbE917k8ZV7rqrm81sX2XOfytGWfai6vdbE917k83W+fWlcdk9e62J7rXJ56dffTJ7bXumour3WxPde5PPXq2rzWVcfktS6259rrk+upfXp5rpnXujbfug/nIk4jdOMD4KqIoaLTnzlafV/Svg+p7096vG+5MeKU2viF65Z3fo6j+a7L9aq3vjZknIYel8HgfBkoru3QD6Mw90NoNK91VWzPda5Pm7d1NV/r5ix//MmPPk9Vn28kr3W1vpen0bzWVbE917k+bd7W9fLWaF7rqtiea9ZVc3n2qf16eRrJcx3N69rmbV0vb43kuY7kbd1S3vbr5WGuTxXbcx3Ja10+Dofy1NaFmqe5PtVcn6rND9WxqXizF6cPxm/GAa6S2Ll3V0+Oku836vuPuoZ2neN9y40Sp9Zu/X7pOtyk5TxuwuJ968UwUFxb/WGUln74zP2wqo7Ja11sz7XN8++FWGOY+PUVTmuLm7P8sTsffR0pX0d9PVV9Pam+3lTr5vKUea2rjslrXWzPtc3z74W2rtZX55HXNWRdra91c3nKvNZVx+R1je0h17CUZ59cW2vkuWZe62qe5upS9qn9qi3yusb2UNe2LrR5ravWyHPNfK6OzcQRPjFMjBXgKoojenwP476170/yccjt9fEh3rfcOHGK7XPPPbd/tL7zOFV4SzHo2/omLNflKM6ryEBxK/WHydwPnfaHVf0hVc3ltW4kz3UuT1m31s1Z4ijFQ88T20dfT1jKa5+qzZfq2rzW9fI0kufa9gun5G1dm3/v7Wn60d0Pufj48ZfPPv7U/nFk3zlz7Y/2+UL7PLm2z1fN5W2fpTxFnpbyuX6hl6e5fKlPONQnLeXZp/YLvTzN5W2fpTxFnutI3tb18jSXL9WFuZxNuAYZcF1cx5sZsLG59yfxONT3LyHXqv49bpznn39+0zs/x3u0q/h9bevXncNEd3S+OAaKW8kfOvWHT1V/6PR+OLV9al2vT5vXuiq3/9Zb0/Q7KxxS/X13p+nbZwZV7esJS6+n93qX8lwzH+1T69o+ta46Jq91sT3XXp7robpve3CafnD3A+2nXp+mv74Lf/qr0/Sjz599/OCTZx+P7B//zC774u7f++fenKYffvrshjrZJ9fe65nLU+ajfWpddUxe62J7rr0+uY70CYf6xPZaV/X69PKU+WifWlcdk9e62J5rr0+uc31Srw+rM0wErpPYwXTECvelvi9p34fEGtq1qn+fGykut7DlnZ/jSL8YXF4V53FkZXzO3dH5Yhkoru0P7S/KuvRDqBrNa10V23MdyWtdPg41/6crXXvmoSf3fyja52vNvZ7e6615azSvdVVszzXrqrk8+9R+vTyN5LnO5XHk4d13p+nHX5mm7318v3HAp3bfiP/M7t/9L+3+7k+8/OFgcY3XG9sPvd7Ynutc3VLe1i3laa6uiu25jua1rs1H60LN02he66r2edq6pbzt18vDXJ8qtuc6kh+qY1VxXR7DROC6eeGFF/Z/ggH5fqO+/6hraNc53rfcWHGUXPwiY8ubtMT3tbhW7FWw9bUfn3766enJJ2fmDZwrA8W1fWI/IW9/KIW5Hz5zP6yqNfJcM69rzXP92qtnfz5VnPbcytdRX09VX8fo6+312zqva8i6Wl/rev2OyePU5bvvnB11+LETD/mOIxh/7q2zU6KPfT3pmLzWxfa6hl5d26/aIq91sb2uoVfX9qu2yGtdbK9rmKtLc/2qLfJcv8dvH7dyla/LA3BI7Nhf9RsZcI7m3n/E41Dfn4Rc5+Tf50bKoeKW4m72l/06sVvfhOXOnTtuwHVJPPAHO/s/s4b/7fFp+s03PvpDqV3DKfloXXW/+aMvzw8E79f/svt8/Mb+8xHa56lrdUxe63p56tX18nRMXut6eZrLY/D3pzY6/P1XX5umX9x9HfzeBx99PXOvo+apV9fL0zF5revlqVfXy9Mxea3r5alX18vTMXmt6+WpV7eU/9ju6/zHrs5pHldFvCm96LvixelB8Qb88ccfn27dunXvI8QpLDfxmjjxeXjjjd3PzZVseaH46yr+DeLjfj3wQHzDWs91/LeLneD4BUasH3ywe2+xsTiC5ZidzrX/LePaavm9bU3x/fu9997bPzrdeX7Nrf3aX3/99aP+v52+9t9O0z/+L8/ea/zr3cfI+s2Fjz/5N6fp39/1PEEMYuLMgbXcvn37uM/NDXTs9/9WfH3He6ytxHuk+Jq/jO+Ttv5vj/eN8f/ITXyPeBkZKK4tB4ohPrO5M7xkJD+PPjX/vjvT9GdXOJz6a7sd1X944BvKmq93yanPk07ts8XzxA1WPrfxod6/+dbunc3dafqXB9709V5vWvO/e04vT708jfQ55fX08nQ/dUt6fc7redL99jFQXF2cMhNHJ563hx566N4dEfNNuzeEHxWfkzUHit7mnZ+1h1DX/d8ujh6MHc8Y+G01XIwh3jvvvLN/NG7tf8ujh10dV/n7xdqv/eSBYh0KxqfhfoaI9eNP/M1p+ouXa6AYg+KrdO296yKO0tvy7sbxXurLX/7y/tHlsPU1ueN08niOLX5Bw3Gc8ry2797/IIsfPLkznO9J5t6bjOa1rortuc71afO27lD+9a+sc3OWOMoxbhKS2udrHXo9odb38jSa17oqtuc616fN27pe3hrNYz2PYWL47kd37/pem6aPzVwPZOT15jqa17XN27pe3hrJcx3J27qlvO3Xy8Ncnyq25zqS17p8HA7lqa0LNU9zfaq5PlWb17pPeOOwpnijt+Vvj1vxBjCOFHrzzTfvDRFigBBvhA0T4eaKHcIYcsT3hK3ujhq9nfbMkHy/Ud9/1DW065zsw40X73Xi1NytxC+GL9OgON5bbn0ZnfhvNky8XAwUt1J/mCz98Jn7YVUdk9e62J5rm+ffC21drHF04RrqqdO1f76Oqr6OVF9vqnVzecq81lXH5LUutufa5vn3QltX66vR/HO7N97nMUxMMVT88zNfD2v999S8rrE95BqW8uyTa2uNPNfMa13N01xdyj61X7VFXtfYHura1oU2r3XVGnmumedqoLiq+K35lm/4UhyN+PLLL///Q0R34gNa8YuFOFLxxRdf3G9Z19bXM+OaaN+f5OOQ2+vjQ/Lvw058b9vyzs+X6SYtW9+EJd5PbnGkN6cxUFxb3pSl/jCZ+6HT/rCqP6SqubzWjeS5zuWprYv1V1e6OUu923PtP/J6wsjrbbX5Ul2b17penkbyXNt+4X7y7979UPp3LuAitD9wd5oe2V9bp/d601ze/nct5SnytJTP9Qu9PM3lS33CoT5pKc8+tV/o5Wkub/ss5SnyXEfytq6Xp7l8qS7k+nFHsq0ldq5ffXWl7+8HxBGJcYpVvLGMO/A5EhHoiV90bHGk4mW/eQGXxNz7k3gc6vuXkGtV/x7s5S9Mtrzz82W4ScvWN2GJnw3u6Hw5GSiu7dv2O035Q6f+8KnqD53eD6e2T63r9WnzWlfN5XHK89dX+I3Hg4/uPva/mWlfTxh9PdVInmvmo31qXdun1lXH5LUutufay//0l06/k/OxHnl+mv7IQ/3XmzI/VNf2qXXVMXmti+259vrkOtInHOoT22td1evTy1Pmo31qXXVMXutie669PrnO9UlzfdzleTXx2+wtxW/i442t6zUB92uL7xsGiiz67JPT9NP/fJp+ZvfxH+w+fnb38R/tP+7uPr64+/jLu4//ZPfxV/Yff2338dd3H39j9/Hk7uM/233857uP/2L38ZP/zb4xnImzM7Y8ijAvY3MeZ57MiYHplteKjPeV8RxcTm7KsrZv7P5H/juf+ujO8NzOcbqIvK5x8eCl/LNPTNOfXuF/4BhM/vKXDj9PXavrWL+kV/+pRy/m6MTqV3ZfD7+4v/Za7/Uek9e6pXy0rtoir3VL+WhdtUVe65byWpcuIo/1ux7avVl3Daw1rH2h91b8BjlObXZE4vGu8k0Wbjo3ZVlHHIWy9lHU9/u5dFOW7a392rf6HF8EN2W5nmIotuX1q+PrP/4/OE/xC5vHHnts/2h9cemceA7vKy8vA8Ut/PzuC/73y93qep/hyHPnec6peerlqa372X/x4ZGXEP6HW9P02/u7Pve+/k7Nq9GaLV9PL69Ga7zeD83ln709TX/ZNbDWsMWOeophot8gn+4qDwhuOgPFdWxxB/r7/VwaKG5v7dduoHiYgeLlseX7sBA3wItf7J6HOCLy4Ycf3uzIyDhNPP5fcP3ty80pz1uI6yjmz+NY8z1JfW/S5rUuLOVt3VKeRvJc23ytm7NwfXz+mbN17uuvmstrXS9PkaelfK5f6OVpLm/7LOUp8rSUz/ULvTzN5W2fpTxFnpbyuX6hl6e5vO0zlzvdeRVxPUPDROCy22Ln0WnPwGUQ75Vu3769f7S+OPX4vN6PxdB7y9Os47/DMPHyM1DcQgwU605xrCHXUHeWR/Jj+6S5PtVSvtbNWbg+/vjds3Xk6y7XubpenjKvddVcXutie65zeerVtXmtq47Ja11sz7XXJ9dT+/TyXDOvdW2+dh8DxVVs9Rtr17YB1nTr1vp39b+oa4sBtOIo7DiVdyvPPvvs5r9E2fpGMHFU7d27+/1NLjUDxS18++6NUN0ZrjvJrdG81lWxPde5Pm3e1vXy8MHum0V8QPrO3df4d+5+EM59vVTt11drLq9rm7d1vbw1kuc6krd1S3nbr5eHuT5VbM91JK91+TgcylNbF2qe5vpUc32qNs/1E+vvXN5EX/nKV/Z/Wk+cjrLlhcaBm2nLnW2AixTXA4z3Tlvd+Tl+gRKXjdjqFynxS+Qtf5EcZ704Rf/qMFDcQh6hmOpOcqvuNK+V17rYnmub598LbV2tD79ywTcC4fL5gbuHv17SMXldY3vINSzl2SfX1hp5rpnXupqnubqUfWq/aou8rrE91LWtC21e66o18lwzj/Wz1+OaSBcpfoscpzyvLd7wbXE0EXCz+b4CXGdxKu+WQ7l4z7f2tWhDvJ/c8sYycdbLeV0DknUYKG7hu3c7v3VnOXeSq7qzXHeyW3N5rRvJc53LU1tX68PXv3J2B2tIH/vk4a+XNJfXul6eIk9L+Vy/0MvTXL7UJxzqk5by7FP7hV6e5vK2z1KeIs91JG/renmay5fqQtyQhZNt8aY1jiB65pn99VQB4Ap68cUX710Lbq2Pn//5n993hmVxSm98/W0lbmiy5vu0OOIxvsa3kme9uKPz1WKguJVP73aC685zq+5MZ36oru1T63p92rzWVXN5rfv996fp605ro4iB4qGvl9T7uortubZ11TF5rYvtufb65DrSJxzqE9trXdXr08tT5qN9al11TF7rYnuuvT65zvVJtY/rJ65ii9OdnY4CwFUXPx9j8LLWxy/+4i/uO0NfDPziFN+trHmTlhgmbnk92vj/x9HpV4+B4lbiKMW6UxxyrUbzWlfF9lxH8lqXj8OhvHJzFqpPPbr89RLmvq6q2J7rXN1S3tYt5WmurortuY7mta7NR+tCzdNoXuuq9nnauqW87dfLw1yfKrbnOpLH6nTnk8Wbv7VPd47fIj/55JP7RwDreu+99/Z/Arje4hTfONV3K2vcpGXrm7C8/PLL7uh8RRkobiWuoxhypzjkWtWd763yXDOva81zbevSr391mn5n/WtwcYXl10v9uqmOyWtdbK9r6NW1/aot8loX2+saenVtv2qLvNbF9rqGubo016/aIjdQPNkWbwANE4Etrf1LEKfQAZdVfH+Ko/O2vEnLKUcXnsdNWLyvvLoMFLfyvfvbnOfOccg15M5y3Xkezdu6pTyN5Lku5W7OQvq1r3749bL0ddPmta6Xp8jTUj7XL/TyNJe3fZbyFHlayuf6hV6e5vK2z1KeIk9L+Vy/0MvTXN72qfn3PDJNH7cTeKp4k7o2b/yArWzxSxBHvgCX2XkNFe/X1jdhuX379qbDSrZnoLilf/POhzvHIddQd6ZH8mP7pLk+1UgenPZMVb9elr5uDtX18pR5ravm8loX23Ody1Ovrs1rXXVMXutie669Prme2qeX55p5rWvztfo4OnEVaw8U482unXNgK1ueVgdwWcV7qy3vcHy/w8Fjh5Cj4jTvuAkLV5uB4pY+vb/bc91Jbo3mta6K7bnO9Wnztq6Xt37PzVnY+83dG/7e10v79dWay+va5m1dL2+N5LmO5G3dUt726+Vhrk8V23MdyWtdPg6H8tTWhZqnuT7VXJ+qzX9wf6Q3J3n77bf3f1pH3JUQYCuvvrruL6/jjvQAV0GcAfL000/vH63vfk5f3vImLPHL6XgdLkdx9Rkobqme9lzXqu58r5XXutiea5vn3wttXa2vYvvXHJbMzq+9Mfb1cr95XWN7yDUs5dkn19Yaea6Z17qap7m6lH1qv2qLvK6xPdS1rQttXuuqNfJcP/agIxRXsvabQUcnAluJayeufVS171nAVRJHKd65c2f/aH0jN1jZ+iYsMUz0vfl6eOAPdvZ/Zgu/sPsf5f95+1t3nutO9dJOdq/u1Dz16trtP/3ONH2H27rfWHF04t967PDXS5rLa10vT8fkta6Xp15dL0/H5LWul6deXS9Px+S1rpen+6n7kSem6Wf88uJU8Wbwscd2/6+u6PXXX58ef9ywdyvxuX3jjTf2j07n32reiy++uPrOzAMPxDe09dzEt+jx/Wrtndjnnntuev755/ePxqz9b7nV9821v1+c59fc2q/92M/x2q/jmK+3VgzV1zzVdI3XxPmKXwbH1+baZ5mkODLwnXfemT1CMIZ9W143MX7+PvPMM/tHXHUGilt790vT9E+e3T84oPcvEPncTnfr1D738zx/6sVp+kHfCG6sv7/7t/+ll87+PPL1Mvp1dcrXZy9P91O35Co+zymfv16e7qduyc992SnPK1h7pyR427CttXdumbfFgMdA8TSxAzt6Kt79OObf2kBxe2u/dgPFwwwUr6Y4Yjt+8fXBBx/st6wrer/55pv7R2e2+EV0FXd03uL7PBfHKc9bi9Oe8z3J3HuT+Lk9kte6Kn/uj+a1Lh+HQ3kr81/ZD5O4eeI6mr+8v77R6NdLratie65zdUt5W7eUp7m6KrbnOprXujYfrQs1T6N5rava52nrlvK2Xy8Pc32q2J7rUh6nOxsmriLejAJcZvF9KoYnW+1kOq0OuIpu3bq16U1LYnhYj0Q8j5uwbHnTGS6GIxTPQ5z2/FsLhyvnzvWhf4lT89TL00ifeL7PPTNN33bEhVRHX+8hp/791mV6Pb0eH9t9vn9ouwv1Dnn7+d3HC/sHO73//lPzarRmy9fTy6vRGq/3Q7Hd6c6riSMSXnih/P96otu3b69+fTM+au2jZZjnCMWLFTuu8XUeO8tbHq0SO7DHnELtCMXtrf3aHaF4mCMUr7atT0F++eWX790MZotLTqS4CUv88shNWK4fA8Xz8H/t3ij977tvAnUnOtZ83K5hKR+tq7bIj6nr5emYvNb18tSr6+XpmLzW9fIUj3/85Wn63JNnj89bHJ34Pz48Tf9qt46+3qW6Xp6OyWtdL0+9ul6ejslrXS9Pvbpeno7Ja10vT726fPxX35ym73FEyRoMFK+etXdumXcVBoprv77LIoaJW+20tnJH+X4ZKG5v7dduoHiYgeLVF9/H1r4DfhX/H2z1/i6GidHb0eLXk4HiefjG+7ufDLd264HrH/T+BXIne6RuSa/PeT1POrXPeT1POrXPWs8TR4XeeefsaMXz9r8+NU2/3BxJ0Hu96dT/7sjP4/ObRvqc8np6ebqfuiW9Puf1POlQ/plHpumvnc+O5k2w9kAx7jq45ek3rL9zy7yrMFDkNKccEWOguL21X7uBIkuuwy9E1/5aPS/H/mKHq8E1FM9DDIDqtRSr3PkOS3mtq/Ln/qE+bd7W9fLWaF7rqtie60he62p9L0+jea2rYnuuc33avK3r5a2RPAbUf+cC3mT80pfmh4m915vraF7XNm/renlrJM91JG/rlvK2Xy8Pc32q2J7rSF7r8nE4lKe2LtQ8zfWp5vpUsf0xN3u6zPx2Gbgq7t696/Q64NqIX+g+9NBD+0dXw9NPP22YeM0ZKJ6XW7ud5NyZrurO91p5rYvtubZ5/r3Q1tX66jzyuoasq/W1bi5Pmde66pi81sX2XNs8/15o62p9NZq//9Y0/d3trqXxLX71tWn6+zN3K1/rv6fmdY3tIdewlGefXFtr5LlmXutqnubqUvap/aot8rrG9lDXti60ea2rTs0/7mYsa7vqv40HONYzz/gFFXB9xC9IYqgYR19fBXFWi5uwXH8GiuflE49O06dv7x/s5M503bmOtTWX17qRPNe5PLV1tT6cmqe5/FBdWsqXnifX9vmqubzW9fI0kufa9gvH5O+8cj5DxV/ZPc8v7q8BmuZeT83TXN72WcpT5Gkpn+sXenmay5f6hEN90lKefWq/0MvTXN72WcpT5LmO5G1dL09zea37kSen6eOOJgHgNHFUjCOqgesmvq9teSOrtcQNsa7C6+R0rqF4nn7ttWn6h1/cPyh6/wJ1J3zJqX3O63nSqX3O63lSr+7UPPXylHXf+/g0/YUvb3NNxX/w7DT9k85vlkb+ey7b53eNf4er+DynfP56ebqfutZT70zTJ27tH7CGy3htKJZd1WskXTWuoXh9xSmBcdOXU053Xvvo7hgCbHH69drfL85ztzD+jeIGPWs59nN8GX9Ouobi+q7bTeXiyL9nn505e+wScBOWm8VA8by9vttZ/t339g926s733E74Fnldv9k8nluri8jretVeb9b38nRsHtfp/ImXp+mzK50u+ptvnQ0T/9nuB+8xrycdk9e6pXy0rtoir3VL+WhdtUVe65byWpe2zH/kiWn6ab/JXNvadwU0UNyegeL5MFC8vra6AcpldJUHipeFgeLNcN0GimHrOz8f6yZ9D8Ypz+fv325+wCztfIc18lwzr2vNc23rqsxrXbVGnmvmda15rr1+W+d1DVlX62tdr98xedyo5Y0vnt2s5ddO+GH5L989u5Pz//TYWZ9jX086Jq91sb2uoVfX9qu2yGtdbK9r6NW1/aot8loX2+sa5urSXL/qlPzPGVJt4datdY/4XPNoEoC1xanOdmSBmyCOUoxTiy+TuKOz78E3i4Hiefvsk9P07Q99uDNdd65jTUt5W7eUp5E815F8qa7Na10vTyN5rm2/0MvTXN72WcpT5Gkpn+sXenmay2tdHFEYQ8XXHp6mf/zCNP2Lt/bBghgi/tJL0/Tzu7/35d3fi2sm9l5PL09zedtnKU+Rp6V8rl/o5Wkub/ss5SnytJTP9Qu9PM3lbZ+lPEWelvK5fqGXp7k81s8/4VTnKyJOUQO4jJ544gk3AABujDjFP466vCw3aYnvwe7ofPMYKF6EOEqx7kzXnfHU5qN1oeZprk81kuea+WifWndKn2our3WxPde5PG3Zp5rLa11sz3UuT6N9fvvdaXp793X2tx+bpv9utzGGhfERN3GJU5nz8X//qbMh4j945mwYmUaf51CeenX30ye217pqLq91sT3XuTz16tq81lXH5LUutufa65PrqX16ea6Z17o2v98+P+boRACOFzuybgAA3DSXZajoJiw3l4HiRcijFEPufIdcq7pzfijPda5Pm7d1vbw1mte6KrbnOpLXulrfy9NoXuuq2J7rXJ82b+t6eWs0r3VVbM8160Kcvhwfv7z7Rv9/fulseBiPf+/9+eebe56ap5E819G8rm3e1vXy1kie60je1i3lbb9eHub6VLE915G81uXjcChPbV2oeZrrU831iWsnOjrxynjvvXINYIBLIK5ZZ0cWuKni5icXeXR23Ajrul2fknEGihflR/dvfOrOd+5sV8fktS6259rm+fdCW1frq/PI6xqyrtbXurk8ZV7rqmPyWhfbc23z/Huhrav11XnkdQ1ZV+tr3VyeMq911TF5XWN7yDUs5dkn19Yaea6Z17qap7m6lH1qv2qLvK6xPdS1rQttXuuqY3LXTtzU2texeffdd/d/ArhYcUTMm2++6UZRwI0XpxrHNWTPWxwZ+dprr21yF3uuBnd5vkh/b7ej9xtvLO+E1+1zdafmqVd3ap5OqauOyY+p6+XpmLzWnZKP1lXH5LWul6deXS9Px+S1rpenXl0vT8fkta6Xp15dL0/H5LWul6c2/7PPOd15Y1vcKTJ24OO34Wxj7TuOxt0W+VbxNbz2DpC7PJ8fd5w/s/b3C3d5Pp27PF9O1/Euz3Pu3r07feUrX9k/2l7chMV1E282A8WL9Lvv7t7pP/ytO92tuhO+5NQ+5/U86dQ+5/U8qVd3ap56eTq1z1qvZ83nOa/P72X7716y5vOc8vnr5Wm07rsemqa/+tY0fdxvNLe29pDDm8dtGRBcXQaK24rT6uJ7zzPPPONomD3fL05noHgz3JSB4vvvv3/va/rtt9/eb9mOX+wQnPJ8kb791jTdevps5zvMvQ+tO+eH8lxH8lqXj8OhvDWa17oqtuc6kte6fBwO5a3RvNZVsT3XrKvm8uxT+/XyNJLnOprXujYfrQs1T6N5rava52nrlvK2bilPc3VVbM91NK91bT5aF2qeRvNaV7XP09Yt5W2/Xh7m+lSxPdc4MtEw8Upyp2fgvMTpdHfu3Ln3i4y45ELsvBomAsyL749xCvLWN2mJG2EZJhIMFC9a3PH5Dz/04U54q+6cH5vnmnlda55rW1dlXuuqNfJcM69rzXPt9ds6r2vIulpf63r91s5rXWyva+jVtf2qLfJaF9vrGnp1bb9qi7zWxfa6hl5d26/aIq91sb2uYa4uzfWrRvPP3p6mzzvC7bzEdcbWtOaRHACtGCC++OKL9y6vEEfbxM6xo6IBxty6deve982txPvKi7wJDJeLU54vg9/46jT9vS98dCe87pQfWkMvT1vkx9T18nRMXut6eerV9fJ0TF7rennq1fXydExe63p56tX18nRMXut6eerV9fJ0TF7rennq1fXydExe63p5iscff/DsVGd3dj43cXrgSy+9tH+0jnfeeefeG1bW5xTGq2vtU57jdLLL7oUXXtj/aT1x3c/4/4A+3y9O55Tnm+GmnPJcxd3vn3rqqf2jdcSRj3GmiveAJAPFy+If3p2mf3bgAqrxLzS3c94ayZf6nNfzpFP7nNfzpFP7nNfzpF7dqXnq5enUPr3X08tTL08jfc7r87vGf1evz3k9z0++OE2PPbN/wHnY4g2l6yhux4Dg6lp7oHgV/u3i+8Crr766f7SO2FGNoxOd2tzn+8XpbsJAMU5Pvek/s+P7yU28odzaN2n58pe/fK8nJAPFy+Ib70/TL+y+yf3Oe/sNe/Gvkzvnczvpc3mtW8pj/WbzeG6tLiKfq+/laYu81i3lsfr83n9e197n7zJ8fmvdUl7r0kXkdR39/PXy1Mu///Y0/cc367fDl0H8Jvmxxx7bP1pHvCmPHX7WZ0Bwdd3EgWKckhwDwA8++GC/ZR0u9j/G94vT3YSBov+fbq74d1/zSHJHkNNyDcXL4ts+OU0/+sr+QbG0cx7m8lqX723n8vx7oa2r9dV55HUNWVfra91cnjKvddUxea2L7bm2ef690NbV+uo88rqGrKv1tW4uT5nXuuqYvK6xPeQalvLsk2trjTzXzGtdzdNcXco+tV+1RV7X2B7q2taFNq911VL+sQen6adnvsexuRj+rX1x7hhSujkLEEf9bDGoiB3guAkLAHB5GSheJp9+fJoefnr/YK/unMcacg0jea5zeWrran04NU9z+aG6tJQvPU+u7fNVc3mt6+VpJM+17RdOydu6pTxlv7CULz1PrrG91lVzedtnKU+Rp6V8rl/o5WkuX+oTDvVJS3n2qf1CL09zedtnKU+R5zqSt3W9PPzMK66beIG2OD3FBbmBENdpfeihh/aP1rP2pRoAgHUZKF42P7LbQftEuSNn3TmvO+0pd9pH81pXzeVLfcJSXuuqXp800qeX55r5aJ9a1/apddUxea2L7bn28lyP6ZMyr3VVr08vT5mP9ql11TF5rYvtufb65DrSJxzqE9trXdXr08tT5qN9al11TF7rYnuuc30+/8Q0fc71Vi7SFgPFuG7aTbvAOTAvrtW6tvj+skVfAGAdBoqX0Y/tdtD+0P70tLpznjvtVe60j+a1Lh+HQ3lrNK91VWzPdSSvdfk4HMpbo3mtq2J7rllXzeXZp/br5Wkkz3U0r3VtPloXap5G81pXtc/T1i3lbd1Snubqqtie62he69p8tC7UPI3mta5qn6etW8rbfr08zPX5nkec6nwJbHW9my3u8ApcPfE95s6dO/tH63n22WfvXacRALh8DBQvo7ie4r/72tmf6855rK2RPNfM61rzXNu6KvNaV62R55p5XWuea6/f1nldQ9bV+lrX67d2Xutie11Dr67tV22R17rYXtfQq2v7VVvktS621zX06tp+1RZ5rYvtdQ1zdWmuX9XmH39wmv7D/fcyLlRc52yLnf04gsiF3oGwxWUQYpjoewwAXE4GipdVXE/xR1786M55rCHX0MvTSJ7rSL5U1+a1rpenkTzXtl/o5Wkub/ss5SnytJTP9Qu9PM3lbZ+lPEWelvK5fqGXp7m87bOUp8jTUj7XL/TyNJe3fZbyFHlayuf6hV6e5vK2z1KeIk9L+Vy/cCiPYaLrJl4aW5z2HOIoRac+A3G357ib7Npeeukl32MA4BIyULzMHn5mmn7giY/upIdcQ+7UH8pT3ck/Ns8189E+te6UPtVcXutie65zedqyTzWX17rYnutcnu63T62rjslrXWzPdS5Pvbr76RPba101l9e62J7rXJ56dW1e66pj8loX23Pt9cn11D69PNfMa12bx/pTL0/TZ7c5zZbjPPnkk5vcOCF88YtfdNdnYLMbtMSpzwDA5WKgeNk98so0/dE7H+6kt+rOfd2pT23e1vXy1mhe66rYnutIXutqfS9Po3mtq2J7rnN92ryt6+Wt0bzWVbE916yr5vLsU/v18jSS5zqa17XN27pe3hrJcx3J27qlvO3Xy8Ncnyq25zqS17p8HA7lqa0LNU+ZP/L0NH3+yXubuFy2OnUwTkv8whe+YKgIN1xcXmGL7zPxvcWd5QHgcjFQvApiqPjgIx/u1Fex85478XWnP9Wd/zbPvxfaulpfnUde15B1tb7WzeUp81pXHZPXutiea5vn3wttXa2vziOva8i6Wl/r5vKUea2rjsnrGttDrmEpzz65ttbIc8281tU8zdWl7FP7VVvkdY3toa5tXWjzWlfF9h9+Ypr+gp2+yypOe37wwf1Nv1YWQ8XHHnvMXVnhhoujoW/fvr1/tJ64vMK77767fwQAXDQDxasgbtISd36OoWLInftQd+5ze5vnOpentq7Wh1PzNJcfqktL+dLz5No+XzWX17penkbyXNt+4ZS8rVvKU/YLS/nS8+Qa22tdNZe3fZbyFHlayuf6hV6e5vKlPuFQn7SUZ5/aL/TyNJe3fZbyFHmuI3lbl3kME93R+VKLo4filMQtPfXUU/dOgXZnVri5tjhKMb6nOPUZAC4PA8WrIoeKn2iOVKxDgrrTn9q81lVz+VKfsJTXuqrXJ4306eW5Zj7ap9a1fWpddUxe62J7rr0812P6pMxrXdXr08tT5qN9al11TF7rYnuuvT65jvQJh/rE9lpX9fr08pT5aJ9aVx2T17rY/pnd9ybDxCshdvS3upZieu2116aHH3743hFFBotw8zz++OPTE088sX+0nvje4gYtAHA5GCheJTFU/PHdm6jvKDuCdec+dupbbV7r2uHAXN4azWtdFdtzHclrXT4Oh/LWaF7rqtiea9ZVc3n2qf16eRrJcx3Na12bj9aFmqfRvNZV7fO0dUt5W7eUp7m6KrbnOprXujYfrQs1T6N5rava52nrlvK231Iew8S/ZAfvKjmP05JjkBjDS4NFuJnimodbXGIhjoL2/QQALp6B4lUTQ8WffOvsSMVQd/JzOFDVnf/M61rzXNu6KvNaV62R55p5XWuea6/f1nldQ9bV+lrX67d2Xutie11Dr67tV22R17rYXtfQq2v7VVvktS621zX06tp+1RZ5rYvtdQ1zdWmu3/ffPhsmfnz3vYkrI44eunPnzv7RtnKw+KlPfereqdCvvvqqYQDcAFtdYiGuo+gGLQBw8QwUr6I8UjFPf647+aEOB9JInutIvlTX5rWul6eRPNe2X+jlaS5v+yzlKfK0lM/1C708zeVtn6U8RZ6W8rl+oZenubzts5SnyNNSPtcv9PI0l7d9lvIUeVrK5/qFXp7m8rbPUp4iT0t52y+umWiYeGXFUYpbn/rcitMV44YNMVyMG7jE9dBiwPjGG2/sK4DrZKtLLLhBCwBcvAf+YGf/Z66ab7w/TX/38Wn6rbfPHvf+JeswYE4vT6c+Tzq1z3k9Tzq1z3k9T+rVnZqnXp5O7dN7Pb089fI00ue8Pr9r/Hf1+tzv83z+iWn6KddMvOreeuute4O9y+LWrVv3PsKjjz567winqywGKTFAvR9x9KgB68V67rnnjrqpyAMPxDfR9VyXt+hxzcMvfOEL+0frif9XXn/99f2jm2nt7xc3cbdw7c/hsd8/qrX/n1njNXE1xb97/AJmLfE9N/6fgWSgeNXFUPH/eGaafvXVD4cBdShQH8+t32wez63VReRz9b08bZHXuqU8Vp/f+8/r2vv8XYbPb61bymtduoi8rqOfv3b7n3lumv6cN6bXRRypGNckY323b9++7xtIGChePAPF9W31df3yyy/f99D+OjFQPJ2BIteZgSJbc8rzVRenPz/6yjR97umP7vynfG/bDgdyrXmuub32SeeR1zVkXa2vdXN5yrzWVcfktS6259rm+fdCW1frq/PI6xqyrtbXurk8ZV7rqmPyusb2kGtYyrNPrq018lwzr3U1T3N1KfvUftUWeV1je6hrWxdq/hdfNky8ZmJnfIu7sQKkrW4EFZdNcE1WALgYBorXxZ/40jQ9utvR/7YHP9z5D0vDg6qtq/Xh1DzN5Yfq0lK+9Dy5ts9XzeW1rpenkTzXtl84JW/rlvKU/cJSvvQ8ucb2WlfN5W2fpTxFnpbyuX6hl6e5fKlPONQnLeXZp/YLvTzN5W2fpTxFnuuh/GO77y1/5c1p+vzNPRLkOoudfUNFYCtxKYM4SmptedMnAOD8GSheJz+w29H/ia9O0x8uF7+uQ4Q6XGjN5bWu7ROW8lpX9fqkkT69PNfMR/vUurZPrauOyWtdbM+1l+d6TJ+Uea2ren16ecp8tE+tq47Ja11sz7XXJ9eRPuFQn9he66pen16eMh/tU+uqXv49j0zTE+9O02ce3W/gOjJUBLYUd3x+8MEH94/W89JLL933pQUAgNMZKF43n9jt8N9+a5o+ffvscQ4H6rAg1lCHB4fy1mhe66rYnutIXuvycTiUt0bzWlfF9lyzrprLs0/t18vTSJ7raF7r2ny0LtQ8jea1rmqfp61bytu6pTzN1VWxPdfRvNa1+WhdqHkazWtd1T5PW7eU5/rI09P0V3bfU9zJ+UaIoeIWRxEBxE2WvvSlL+0frStOfQYAzpeB4nUU11WMIxX/xIsfHQ7U4UGu7fBgrq7KvNZVa+S5Zl7Xmufa67d1XteQdbW+1vX6rZ3Xuthe19Cra/tVW+S1LrbXNfTq2n7VFnmti+11Db26tl+1RV7rYntdQ+Zx+YSf/fI0/eQ2O39cXnH6YFx0e4sjiYCbLa7ZGjcrWlvcsX6rYSUAMM9A8Tr73DPT9BfenKZPPPLhUCHU4UGqw4aRfKmuzWtdL08jea5tv9DL01ze9lnKU+RpKZ/rF3p5msvbPkt5ijwt5XP9Qi9Pc3nbZylPkaelfK5f6OVpLm/7LOUp8rSUz/ULvTzN5W2fpTxFniL//t3OXpzi/Lm7Z9u4ceIOfrGD/sgju58fACva6pqHcSfTd9/d/ewCAM6FgeJ19+D+FOgfeu6jw4VWHTocynPNfLRPrTulTzWX17rYnutcnrbsU83ltS625zqXp/vtU+uqY/JaF9tznctTr+5++sT2WlfN5bUutuc6l6deXZvXuuqYvNbF9lx7fXI9tU9s//iD0/TvvThNX/yqU5y5dxOFGCrGKdCOVgTWEr+w2OJ6rXGDFqc+A8D5MVC8KX7o+Wm6/eY0fdcj3zpkCHXYUPPWaF7rqtie60he62p9L0+jea2rYnuuc33avK3r5a3RvNZVsT3XrKvm8uxT+/XyNJLnOprXtc3bul7eGslzHcnbuqW87dfLw1yfKrbnOpLXunwcYv3cnWn6G+9O0yPPnG2DvTiaKAaLd+7svkYAVhDfV7b4RcVrr73mBi0AcE4MFG+SOFrx8bfOrq0Y10drhwu51uFD6zzyuoasq/W1bi5Pmde66pi81sX2XNs8/15o62p9dR55XUPW1fpaN5enzGtddUxe19gecg1LefbJtbVGnmvmta7maa4uZZ/ar9oir2ts/66Hzq6V+LOvOSqRg+JoxdhRj2srbnH9M+Bmie8pcdfnLTz11FP3jlYEALZloHgTxbUVfyquj/b0fsNOO2TINZ2ap7n8UF1aypeeJ9f2+aq5vNb18jSS59r2C6fkbd1SnrJfWMqXnifX2F7rqrm87bOUp8jTUj7XL/TyNJcv9QmH+qSlPPvUfqGXp7m87XMoj9Ob/8xzZ0clulYig+JUxTj6JwaLjlgEThFHKT700EP7R+uJ6yi6QQsAbM9A8aaKO0H/yd2brZ96Z5p+4ImPDh1iDbmGOowYyWtd1euTRvr08lwzH+1T69o+ta46Jq91sT3XXp7rMX1S5rWu6vXp5Snz0T61rjomr3WxPdden1xH+oRDfWJ7rat6fXp5yny0T64/vPt//j99d5r+7DYXxuf6i8FiHLH4zjvvTE8//fQmQwHg+ttq8OcGLQCwPQPFm+47bk3TY69M00+8Pk2fuf3h0CHkWo3mta6K7bmO5LUuH4dDeWs0r3VVbM8166q5PPvUfr08jeS5jua1rs1H60LN02he66r2edq6pbytW8rTXF0V23MdzWtdm4/WhZqn0bzWVe3z/NAT0/Q33pmmv7j7f97pzawgTluMgUDsuMdRi3GjBTdwAUbdvXt3s8soxKnPAMB2DBQ585nHp+nPf3X38frZEYshhxFVHV5sleeaeV1rnmuv39Z5XUPW1fpa1+u3dl7rYntdQ6+u7Vdtkde62F7X0Ktr+1Vb5LUuttc19OraftUa+cce3B+RuB8kftetswxWFkctvvLKK/euXfbmm29OL7744r3Tog0YgSXxfWMLcXmGrXoDAAaKtGKwGEcs/vQ70/SDT0/TH9rvCOawog4vYm3N5bWul6eRPNe2X+jlaS5v+yzlKfK0lM/1C708zeVtn6U8RZ6W8rl+oZenubzts5SnyNNSPtcv9PI0l7d9lvIUeVrK5/qFXp7m8lxjkBjXSIxTmw0SOWePPvrovRsuxGnROWD88pe/PD333HP3hoyPPPLIvhK46eJI57h0whaeffZZN2gBgI088Ac7+z/Dt/rG7k3Y11+bpl/50jT91ttn23pfMXXIseTUPuf1POnUPuf1PKlXd2qeenk6tU/v9fTy1MvTSJ/z+vzez3/Xw3d2H3en6Yef3G+Ayyt29N966617f47Tpttrns1tu0pisOrmEAAAXEcGioz7YLfT97VXzgaMv/Pe/JCjDj/Wyufqe3naIq91S3ms32wez63VReRz9b08bZHXtff5uwyf31q3lNe6tFb+nQ+dDRDjw5GIAAAAbMxAkeO0w8Xq0PAj9fJqjZre852ap16eTn2+U/NqjZre852aV6M15/F6enkYrTnm9XzXQ2dHIv7Qk9P0mUf3GwEAAGB7BoqcLoaLv/7Vs+HiP3/jw+HH3BCkbr/fuuqY/Ji6Xp6OyWvdKfloXXVMXut6eerV9fJ0TF7rennq1fXydExe6w7lD92Zpu9//GyQ6EhEAAAALoiBIuuL4WJ8/PPdRwwbv/HBPmj0vvLqMGVOL0+nPk/q1Z2ap16eTu2z1utZ83nO6/N72f6758RpzHHk4R97/OzDUYgAAABcEgaKbO933j37iCHj+zFgfP9s/f0PvnWYUocwc6trEt5/XuuW8tG6aou81i3lo3XVFnmtW8oP1cWpy3G0YXx8+tGzwWGsH/9kVAIAAMClY6DIxYojGH/v/bPhShzR2Prt/TAy3e9X6/3Uj9ZGXR0O9ahfdhnrRy3V5pCwPn8MCWNYGDIHAACAK8ZAEQAAAAAY9m/sVwAAAACALgNFAAAAAGCYgSIAAAAAMMxAEQAAAAAYZqAIAAAAAAwzUAQAAAAAhhkoAgAAAADDDBQBAAAAgGEGigAAAADAMANFAAAAAGCYgSIAAAAAMMxAEQAAAAAYZqAIAAAAAAwzUAQAAAAAhhkoAgAAAADDDBQBAAAAgGEGigAAAADAMANFAAAAAGCYgSIAAAAAMMxAEQAAAAAYZqAIAAAAAAwzUAQAAAAAhhkoAgAAAADDDBQBAAAAgGEGigAAAADAMANFAAAAAGCYgSIAAAAAMMxAEQAAAAAYZqAIAAAAAAwzUAQAAAAAhhkoAgAAAADDDBQBAAAAgGEGigAAAADAMANFAAAAAGCYgSIAAAAAMMxAEQAAAAAYZqAIAAAAAAwzUAQAAAAAhhkoAgAAAADDDBQBAAAAgGEGigAAAADAMANFAAAAAGCYgSIAAAAAMMxAEQAAAAAYZqAIAAAAAAwzUAQAAAAAhhkoAgAAAADDDBQBAAAAgGEGigAAAADAMANFAAAAAGCYgSIAAAAAMMxAEQAAAAAYZqAIAAAAAAwzUAQAAAAAhhkoAgAAAADDDBQBAAAAgGEGigAAAADAMANFAAAAAGCYgSIAAAAAMMxAEQAAAAAYZqAIAAAAAAwzUAQAAAAAhhkoAgAAAADDDBQBAAAAgGEGigAAAADAMANFAAAAAGCYgSIAAAAAMMxAEQAAAAAYZqAIAAAAAAwzUAQAAAAAhhkoAgAAAADDDBQBAAAAgGEGigAAAADAMANFAAAAAGCYgSIAAAAAMMxAEQAAAAAYZqAIAAAAAAwzUAQAAAAAhhkoAgAAAADDDBQBAAAAgGEGigAAAADAMANFAAAAAGCYgSIAAAAAMMxAEQAAAAAYZqAIAAAAAAwzUAQAAAAAhhkoAgAAAADDDBQBAAAAgGEGigAAAADAMANFAAAAAGCYgSIAAAAAMMxAEQAAAAAYZqAIAAAAAAwzUAQAAAAAhhkoAgAAAADDDBQBAAAAgGEGigAAAADAMANFAAAAAGCYgSIAAAAAMMxAEQAAAAAYZqAIAAAAAAwzUAQAAAAAhhkoAgAAAADDDBQBAAAAgGEGigAAAADAMANFAAAAAGCYgSIAAAAAMMxAEQAAAAAYZqAIAAAAAAwzUAQAAAAAhhkoAgAAAADDDBQBAAAAgGEGigAAAADAMANFAAAAAGCYgSIAAAAAMMxAEQAAAAAYZqAIAAAAAAwzUAQAAAAAhhkoAgAAAADDDBQBAAAAgGEGigAAAADAMANFAAAAAGCYgSIAAAAAMMxAEQAAAAAYZqAIAAAAAAwzUAQAAAAAhhkoAgAAAADDDBQBAAAAgGEGigAAAADAMANFAAAAAGCYgSIAAAAAMMxAEQAAAAAYZqAIAAAAAAwzUAQAAAAAhhkoAgAAAADDDBQBAAAAgGEGigAAAADAMANFAAAAAGCYgSIAAAAAMMxAEQAAAAAYZqAIAAAAAAwzUAQAAAAAhhkoAgAAAADDDBQBAAAAgGEGigAAAADAMANFAAAAAGCYgSIAAAAAMMxAEQAAAAAYZqAIAAAAAAwzUAQAAAAAhhkoAgAAAADDDBQBAAAAgGEGigAAAADAMANFAAAAAGCYgSIAAAAAMMxAEQAAAAAYZqAIAAAAAAwzUAQAAAAAhhkoAgAAAADDDBQBAAAAgGEGigAAAADAMANFAAAAAGCYgSIAAAAAMMxAEQAAAAAYZqAIAAAAAAwzUAQAAAAAhhkoAgAAAADDDBQBAAAAgGEGigAAAADAMANFAAAAAGCYgSIAAAAAMMxAEQAAAAAYZqAIAAAAAAwzUAQAAAAAhhkoAgAAAADDDBQBAAAAgGEGigAAAADAMANFAAAAAGCYgSIAAAAAMMxAEQAAAAAYZqAIAAAAAAwzUAQAAAAAhhkoAgAAAADDDBQBAAAAgGEGigAAAADAMANFAAAAAGCYgSIAAAAAMMxAEQAAAAAYZqAIAAAAAAwzUAQAAAAAhhkoAgAAAADDDBQBAAAAgGEGigAAAADAMANFAAAAAGCYgSIAAAAAMMxAEQAAAAAYZqAIAAAAAAwzUAQAAAAAhhkoAgAAAADDDBQBAAAAgGEGigAAAADAMANFAAAAAGCYgSIAAAAAMMxAEQAAAAAYZqAIAAAAAAwzUAQAAAAAhhkoAgAAAADDDBQBAAAAgGEGigAAAADAMANFAAAAAGCYgSIAAAAAMMxAEQAAAAAYZqAIAAAAAAwzUAQAAAAAhhkoAgAAAADDDBQBAAAAgGEGigAAAADAMANFAAAAAGCYgSIAAAAAMMxAEQAAAAAYZqAIAAAAAAwzUAQAAAAAhhkoAgAAAADDDBQBAAAAgGEGigAAAADAMANFAAAAAGCYgSIAAAAAMMxAEQAAAAAYZqAIAAAAAAwzUAQAAAAAhhkoAgAAAADDDBQBAAAAgGEGigAAAADAMANFAAAAAGCYgSIAAAAAMMxAEQAAAAAYZqAIAAAAAAwzUAQAAAAAhhkoAgAAAADDDBQBAAAAgGEGigAAAADAMANFAAAAAGCYgSIAAAAAMMxAEQAAAAAYZqAIAAAAAAwzUAQAAAAAhhkoAgAAAADDDBQBAAAAgGEGigAAAADAMANFAAAAAGCYgSIAAAAAMMxAEQAAAAAYZqAIAAAAAAwzUAQAAAAAhhkoAgAAAADDDBQBAAAAgGEGigAAAADAMANFAAAAAGCYgSIAAAAAMMxAEQAAAAAYZqAIAAAAAAwzUAQAAAAAhhkoAgAAAADDDBQBAAAAgGEGigAAAADAMANFAAAAAGCYgSIAAAAAMMxAEQAAAAAYZqAIAAAAAAwzUAQAAAAAhhkoAgAAAADDDBQBAAAAgGEGigAAAADAMANFAAAAAGCYgSIAAAAAMMxAEQAAAAAYZqAIAAAAAAwzUAQAAAAAhhkoAgAAAADDDBQBAAAAgGEGigAAAADAMANFAAAAAGCYgSIAAAAAMMxAEQAAAAAYZqAIAAAAAAwzUAQAAAAAhhkoAgAAAADDDBQBAAAAgGEGigAAAADAMANFAAAAAGCYgSIAAAAAMMxAEQAAAAAYZqAIAAAAAAwzUAQAAAAAhhkoAgAAAADDDBQBAAAAgGEGigAAAADAMANFAAAAAGCYgSIAAAAAMMxAEQAAAAAYZqAIAAAAAAwzUAQAAAAAhhkoAgAAAADDDBQBAAAAgGEGigAAAADAMANFAAAAAGCYgSIAAAAAMMxAEQAAAAAYZqAIAAAAAAwzUAQAAAAAhhkoAgAAAADDDBQBAAAAgGEGigAAAADAMANFAAAAAGCYgSIAAAAAMMxAEQAAAAAYZqAIAAAAAAwzUAQAAAAAhhkoAgAAAADDDBQBAAAAgGEGigAAAADAMANFAAAAAGCYgSIAAAAAMMxAEQAAAAAYZqAIAAAAAAwzUAQAAAAAhhkoAgAAAADDDBQBAAAAgGEGigAAAADAMANFAAAAAGCYgSIAAAAAMMxAEQAAAAAYZqAIAAAAAAwzUAQAAAAAhhkoAgAAAADDDBQBAAAAgGEGigAAAADAMANFAAAAAGCYgSIAAAAAMMxAEQAAAAAYZqAIAAAAAAwzUAQAAAAAhhkoAgAAAADDDBQBAAAAgGEGigAAAADAMANFAAAAAGCYgSIAAAAAMMxAEQAAAAAYZqAIAAAAAAwzUAQAAAAAhhkoAgAAAADDDBQBAAAAgGEGigAAAADAMANFAAAAAGCYgSIAAAAAMMxAEQAAAAAYZqAIAAAAAAwzUAQAAAAAhhkoAgAAAADDDBQBAAAAgGEGigAAAADAMANFAAAAAGCYgSIAAAAAMMxAEQAAAAAYZqAIAAAAAAwzUAQAAAAAhhkoAgAAAADDDBQBAAAAgGEGigAAAADAMANFAAAAAGCYgSIAAAAAMMxAEQAAAAAYZqAIAAAAAAwzUAQAAAAAhhkoAgAAAADDDBQBAAAAgGEGigAAAADAMANFAAAAAGCYgSIAAAAAMMxAEQAAAAAYZqAIAAAAAAwzUAQAAAAAhhkoAgAAAADDDBQBAAAAgGEGigAAAADAMANFAAAAAGDQNP1/APcKERhbiisAAAAASUVORK5CYII=;" parent="1" vertex="1">
          <mxGeometry x="-320" y="480" width="160" height="80" as="geometry" />
        </mxCell>
        <mxCell id="neBnvLhtb3KantFYFcH3-30" value="Inji Web - Face of the Inji Stack" style="label;whiteSpace=wrap;html=1;align=center;verticalAlign=bottom;spacingLeft=0;spacingBottom=4;imageAlign=center;imageVerticalAlign=top;image=data:image/png,iVBORw0KGgoAAAANSUhEUgAAA+gAAAH2CAYAAADj4KYmAAAAGXRFWHRTb2Z0d2FyZQBBZG9iZSBJbWFnZVJlYWR5ccllPAAAN9BJREFUeNrs3etyG2d+J+DmiBalT8NUyeJY8gG+AlNXIPCznYi0k+wkmazA8uScjMgrEHUFopLdrZxcgrJzSjY26Yz9WdAVmL6Cgc+W7KrQn2xKUGHfl2jKlERKANgNdKOfp6oNScah8W+g0b9+D50kAAAAAAAAAAAAAAAAAAAAAAAAAAAAAAAAAAAAAAAAAAAAAAAAAAAAAAAAAAAAAAAAAAAAAAAAAAAAAAAAAAAAAAAAAAAAAAAAAAAAAAAAAAAAAAAAAAAAAAAAAAAAAAAAAAAAAAAAAAAAAAAAAAAAAAAAAAAAAAAAAAAAAAAAAAAAAAAAAAAAAAAAAAAAAAAAAAAAAAAAAAAAAAAAAAAAAAAAAAAAAAAAAAAAAAAAAAAAAAAAAAAAAAAAAAAAAAAAAAAAAAAAAAAAAAAAAAAAAAAAAAAAAAAAAAAAAAAAAAAAAAAAAAAAAAAAAAAAAAAAAAAAAAAAAAAAAAAAAAAAAAAAAAAAAABQDFNKADzJ/fdP1cJNLf3r9rFXv95SFQAAENCB/AP5fLi5GJZ6WOYPuVs7LK2w3ArLZgjt2yoHAAACOnD0UD4bbhbDcjn5vrW8XzGcb4blSgjqbdUEAAABHRgumK+E5VJYZjN4ymZYVrWoAwCAgA70H87XMgzm+8VwvhxC+qYqAwCAgA4cHswbyXBd2Qe1mQZ1rekAACCgA/uCeZzw7WrSm/xtVLbSkG7mdwAAENCh8sE8dmGPLeYrY1qF2IK+IKQDAICADlUO53Fm9utJ9uPMhXQAABDQgT6CeS0N5vUCrZaQDgAAT/ADJYCJC+exK/sHBQvnUWzFv5mOhQcAAB6hBR0mJ5jXkuK1mh8ktqSfO/bq121bDQAAvqcFHSYjnBe11fwgsSV9I528DgAASE0rAZQ6mNeScrSaP2o+Xe8lWxEAAHq0oEN5w3mcob0sreYHWUxb/gEAgMQYdChjMI9dw2Pr8+KEvKVzZnYHAAAt6FC2cF5Peq3mixP0tq7bsgAAYAw6lCmcr4WbyxP0lmKreSssN2xdAADQxR3KEMxr4WYj6U2sVnYxkL8blk2XWQMAAAEdyhTOY1f22AW8rJck234klG9Pyra59/aP4jaZn0q6e3vTrenXb2/71AIAIKDDZAXzGP6uhqVRwtVv74XyEMg3SxvA/+O5WriJSz2Z6v4whvGwx5xNb/ftRLsP702ndrvub4XHxJMSrenFO0I7AAACOpQ0nO9dI7xMXdofjCcv44zs9379XAzdsd6vpAG8/vCe8rEQ/qSAvv8xMZzHkxRXQlBv+3QDACCgQ3nCeSPptZyXoUt7DOSlG09+91dnZqemuvWkdwLkfLJ3HfmpJ+wZhw/o+zXD/7syfUFQBwBAQIciB/MydGkv5Xjyu788M5uG8F4Yn0rmp3b3fN3D94b5BPT4/2LNVkNIb/rUAwAgoEPxwnmRu7S3k5KNJ7/78xDIp9JA3rudf3SvN8aAvvf/mtO/99WyTz8AAAI6FCecN5LidWmPY8j3WslLMZ48hPIYxONyIdk/idvUwXu9AgT0+F8hHQAAAR0KEs5jq3mjIKsTW8dvJSUZT373387U0tbxC+nt7MFBuNABXUgHAEBAhzEH81q42UjG26V9+5FQXvjx5Ds3zu4G8gcTvD0lhJcioE+lIf13hXQAAAR0GHU4X0x6483H0aW9vRfKyzCefKd5No4lj/WKk7st7tVs6glhuaQBPVoOIb3pGwIAIKADownna+Hm8ohftlTjyXeun63thvGp5GKyv5V8/05rMgP6dlinc8de+6rtmwIAUF3TSgC5B/PY8hu7tNdH9JKlGk8eQnns6n8x6bWS1yr6MYmfkdizYsE3BgCgurSgQ77hfD4N53kGz/KNJ3/rbAzjF3a7sE8d0N3/CS3gE9qCnq5TsnDsta9avjkAANWkBR3yC+eNJL9LqLWTEo0n/+5fn58Nwfqx8eQ8Jraiv6wMAADVpAUd8gnnMZivZPy0pRpP/t2/PD+b9MaTx2uTL04d1qI8YAv4hLegx/VaPvba103fIgCA6tGCDtkG86zHm5dqPPmDUJ70QrlPxFDieHwBHQCggrSgQ3bhPI43v5kcrfv23njy2FLeKsN48u/+6fm9y6FdSG8P3MtoQU/6bUGP/zl37LXi95IAACBbWtAhm3DeSIYfb97eC+UhkLfK8H6/+8eHu6/7BGTuUliWlQEAoFq0oMPRw/kw481j6+iNpNdKXoqW0gehfH/39cdajQ/fy2hBTwZpQd8+9trXv+PbBQAgoAP9BfNBx5vv77reLsN7/Pb/vLA3+/oTu68L6JkH9Pj/lsowQz8AANnRxR2GC+f9XN+8dOPJ9wXzGMbjZGW6r4/PhfTzAwCAgA4cEs5jaI3Xqz5ovHk7Kdl48geh/H+/sH9MueuUj19dCQAAqkUXdxgsnK+Fm8uP/HPpxpM/COX/64XYE+BS0pvwbbavLuUH7UF0cc+ji3v0clmGQwAAcHRa0KG/YB5blONkcI30n0o3nvxBKP+HEMqnHnRfr9m6hVZPXBMdAEBABx4K53G8eQziS0nJxpPvhvK/f6GWTvIWg/m8rVoarygBAICADqTSML5QtvUOoXzvsmgxlNdtyVJyMgUAQEAHyurbay/sXau8oRoCOgAAAjowylC+/mIMchd7obxrBvbJYVsCAFSIWdyhrKH86otx1vVG8ui48sNmXZ96yjf/kBnVzeKejHMW92ihbJfsAwAAAAAAAAAAAAAAAAAAAAAAAAAAAAAAAAAAAAAAAAAAAAAAAAAAAAAAAAAAAAAAAAAAAICJM6UETKJ7b/+oHm5mwzKfdHf/6fyD/9lN//1R3T6/Dt0B//2Ar123O+xjD7jvUR57yL91u1OZP2ce7+fA9cyhHk94zu2wbO37ezvc96N9/94+8Veftn0jAQAQ0Jl4nbfnYtiu9wL31PmQo2pJbxkihAnoAnr27yddx9ZueE+SD+OfT/71J1u+vQAACOiUP5S/M7cYQtD574P5vuB7pBAmoAvouQX0R22nof1WWDZDYG/7ZgMAIKBThkAeW8kXw3IhvT0kMAnoAnppAvqjYkDfDI+9cfJvtK4DAAjoULRgvjEXw/jF3VDeV4gT0AX00gb0/Y+NYf1GWJohrLftCQAABHQYVyivhZtGGsxrg4U4AV1An4iAvv/vmzGsn/zbTzbtHQAABHQYTTDfPB3D+OUQkhvDhzgBXUCfuIC+px2WKyGoN+0tAAAEdMg3mPdazQ8PyQK6gF7tgC6oAwAI6DCiYP60kCygC+gCuqAOACCgQ6bBPM7IvpKG8/5DsoAuoAvoB4kzvq+GoN6ydwEAENBhkHAeZ2W/muyf/E1AF9AF9Cxq0UyD+rY9DQCAgA5PCuax1fx6sncN8ycGFAFdQBfQh3rdJNkO918++XdmfAcAENDhoHD+7ul4DfMYzmf7CygCuoAuoA8Z0PfuHwN6DOpa0wEABHTYDeYxkMfu7I3Bwo2ALqAL6EcM6FEM50shpLfsjQAAyuMHSkAO4Xw+3NxMHp2hHRiVeILs5rf/8MKaUgAAlIcWdLIN5/91OraYX032d2nXgv74empBz+T9aEHva917Xd5/pss7AICAToXC+bNrSbx82qOBREAX0AX0cQb0aCsN6Vv2VKMxPTPTSJ50xYr8NTs7O+0B1jeua2MCN0U7XR76t0Fqw1M/O2uqUPzveQG2U9P3DgR0RhvOrz84uBPQBXQBvWgBPYot6AtC+shCSxzmUx/jKiyEg+HWAOsb1/VmBTdV/F7sfSfi7Tf7Qr0g399np6sKxf+eF2A7DbRPgkrvV5WAIwbz2JV9Y8wHosDT9cal//0LsSXdpdjg++/F3u9X/YBQsxfcY1D/MP3zluAOgIBOUcN5bHGZVw0oTRjZSEN6UzmgL/PpsrgvuO+1vN8KS0vLIABZMYs7w4Xz3wjnUGLXQ0hvKAMMba/l/XL8LYzdh8PyQRznmw4XAAABHeEcENJhTOb3Bfb/DstGnCwwLLNKA4CAjnAO9BPSF5UBMhd/K+N3K06g+iCsKwsAAjpZuyqcw8SFdN9pyNduWE9b1uOt7xwAAjpH0/nNvkupAZOiN7v7NSEdRvR9i7+jcbz6Ta3qAAjoDBvOG8I5THRouB5CurGyMDr1pNeq/ltBHQABnUHC+e5BhErARJv3PYexqAnqAAjo9OX+e8/OTk0lGyoBlbD47bUX1pQBBHUABHSKKYZz3V6hOi6HkF5XBhh7UL9pMjkAAR0euP/es2tJb4wcUC0bxqPD2MXf3ziZ3JprqQMI6Ajn8az9ZZWAStqdNE4ZoBAup0FdazqAgE6FOTiHaovj0ReVAQqhlob0NaUAENCpmLRruzP1UHXdqevfrr+oay0Ux+V0bLrvJYCATjXC+alaoms70BNDwFVlgEKpJ7q8AwjoVIau7cB+jW/XX6wrAxRKLSyxJd0wFAABnUl1/71T8YfegTjwKL1qoHhiD5cN10wHENCZXLqyAgepf7v+ohAAxXRdSAcQ0Jkw9987FX/cayoBHEIrOgjpAAjoOPgGCqCmFR2EdAAEdHKm9RzokxN5IKQDIKDjoBsoAK3oUHxXXYINoLymlaDatJ4XWiu93QrL3sFWvJ1VGsYontBrKgMUVvyNiJdge7mzs7OtHAACOuVySQkKYzsNPu8e/+PPW4fd6e4vztTCzWK67WrKxojFVvT6yZWPW0oBhQ7pG2FZUAqActHFvcLuv3cqtsbqBleMYH4lLC+HYL76pHAeHf+Tz9thWQ/Ly+nBV1sJGTEn9qD46tMzM2vKACCgUxZTDrILIHZfPxdC+VpYBu6KGEJ66/hPdoP6FaVkhBa/XX+xpgxQeJdDSK8rA4CATsHdf/9U7P62qBJj1Tz+R5+fC0v7qE8UQvpauFlWUkaooQRQCnFmd3OXAJSEMejVFcO5H+zxhvNMA3UI6c27Pz+zezCmvIzAxbCsKQMZamX0PLfC8soBv3H1ita1FpaVHL+vrQp/Zk3cCgjoZOaCEoxLd+v4H32RS2t3GtLjwcJVdSbvg/5v11+cP7ny8ZZSkIXOzs5IJjRLL0E2mwb2l9KQNenzscSu7puhxltl3W6FPIiembmZVPfEDyCgkxXd28cqjjNfyvMFQkhfDyH9goMGRiC2ogvolO1EwN5ntvVI2Kqn+83zE7r/jCduzeoOIKBTQGUN51tpwC2zd5/58RftEbxObKH/rY86I9iXrCoDExLcW3uhPR2zvZiG9UkZEhZndV8M73PT1gYQ0CmWMnZv355+/fY5m64/x3/yefvuz880ExN5ka/Yzb12cuXjtlIwYWE9ngxupstyCLaN9Lez7L3PYiu6gA5QYGZxr6Z6CdfZAcXgrikBI2C4DFUI7M2wxOFJe5e1LGtvrlp6sgEAAZ0iuP/+qbLOOCpsDuj4Tz6PQwLaKkHOzisBFQrq7bCspUF9uaT72Mu2JICATnHUS7jOW9Ov3zYR1XBaSoB9CmQe1LfTVvUyBnWt6AACOgVSxtYurefD+0gJyNlsvNyaMlDhsN4MN3GOlDJ1fb9oywEI6BRDvYTrbPz58FpKwAgI6FQ9pG+nXd/PleQ3q55eDx4AAZ1xuf/+qVpSvvHnzeml29u2HhRY1zh0SIN6O51MLl5vvF3w1b1kiwEI6IxXGc+W37DZoPBqSgAPBfVWUvzW9EZ6vXcABHQE9L60p5dut2w2wYnCqysBPBbSt9PW9CsFXk2XSQQQ0Bmjl0q2vlrPj+4VJWAUvr36Yk0V4MCgvpb0ZnovIt3cAQR0xqhsB9BNm+zI6kqA/QuMPaQ3CxrS56dnZnx3AQR0xvVDXKJ13Zxeut22yYZ39+dnaonZtbF/ASH9yXRzBxDQGZMyTQaje/vRNZQA+xcoXEhfL9hqXbBlAIpjWgmqIb3EWllsTy/dHmrm23tv/+hm8mi37u4Bdzzw36b6e5HugP/+sOVnfvxFM+8C3v35mRiWLvrkM0IvKQH0FdJX02uQ1wuySvGa6LNxUjtbB2D8tKBXR5kC+lABNoTzWlL8MdeXR/Q6K4kxwdjHQFHFru5FCsR1mwRAQIfDXBvycWWYjbZ279fPXc3zBe7+/Mz8CE8EADCgzs5OOynW5dd0cwcQ0OFArSNMDleSiW6mVu7+6kwjp3Aeu7Zv+BgBFD6kx7HorYKsTt0WARDQGa1yzLA81R1qcrjO23OLU+XqYns965CehvM4Br/m484Y+NzB4IrSil5zuTUAAZ3RKsMMy3E83uaQjy3jhGgxpK9kFM7jCZgPEpe6QkCH0ujs7LSS4rSi+/0AENDhIZvTi3cGnjSn8/ZcDAZlvY7r1RDSb9795Zmhws3dX5yZDeF8LQ3nAhJA+RSlFf28TQEwfi6zRpEMOzncYsnfdz0svw0hvRlubxz/489bfQTzGMYbSW9iPNefBiip2Io+PTPTSsY/DlwLOoCADg9sTS/e2RrysZcmpAYxcDdCUG8nvS6PHyUPd32MB08vJd3dgzgHUgCT40YBAnrdZgAQ0GH/wcnAOm/PxQOK2oTVopaG9cjl0gAmX5x/JV6Cc6w9oqZnZuY7OztbNgfA+BiDTlE0h3zcRaUDoMxCKD7KJKlZqtkaAAI6NIecHC62NDSUD4AJ8G4B1sHwKQABHYY+KFlUOgAmRKsA6/CKzQAgoFNt7enFO8N267ukfABMgrSb+7hDuquCAAjoVNywk8PFbni64gEwScY9QVvdJgAQ0Km25pCP03oOwKS5pQQAAjqMy+b04p32kI81/hyASTP2S5xNz8zUbQYAAZ1qGmpyuM47c43EODkAJkxnZ6etCgACOozD9vTineaQj3XtcwAmVWvMr29+FwABnQoaKpx33pmrJSaxAYC86KEGIKBTQdeGfFxD6QCYYCaKAxDQYaS2jjA5nO7tAJCfV5QAQECnWoZqPe+8Mxdnbq8pHwATrD3m19fFHUBAp0K2w7I55GO1ngMgoAMwsaaVoDJaRTnwmF68sz3ogzrvzMUz+q59DgAACOiU27FXv24VKKQPo2ErAkDuakrQN8MBAAGdyrqkBBREKyxbYfkw6XVFbZ/4y0/bygII6JXjmvGAgE71dN6ZqztgYIxi+I7zJtwKQXxTOQAAENCprqnkYtJVBkauGZYbJ/7i05ZSAFBAutiDgA6j1dkwORwjFScwjJcBXA/BfFs5ADjwAHpmpgjd2+M66NkFAjqMVAznzhAzClcEcwD65NgEENCpJJPDkbfY+rB64s9N9AZA3+pKAAjoVEpnYy523TJDKnmJLeXLIZjrHgjAoF5SAkBAp2ouKgE5iZdJW9JqDsCQ6gVYh5bNAAI6jFJDCchB88SffbqsDAAMdfA8M1NLXP4VENCpks7GXAznJmAha6shnK8f6bP5ztx80t1tOXmpm0z1hmDsXQbwwe3Uww969P/v/TXe76BLCHYfv++jz9Ht8zWGeu2nrMOAr90Otx+G282TP/uk7SMITIC6EgACOlVzQQnI2HII582hQvnG3OLuZ7LrqgJHcPXbv3+hFW6vhKDeUg7AMcqRtW0KENApqfvvn6olB3XHOqgFLZl6/G5Paml77N+n+rvf4Y917XPGHs47m6fj53AliXMhdHVlzEg9Lt9ee2F9N6hf+sQl7YByHTj3urcX4hils7MjoIOATok1wnJZGRDO+wrnK+n3RWt5PlZ2g/r6iwsnVz4W0oGyHU8VgXAOE+oHSgBMsOYg4bzz7ulaWD4If7wqnOcujt+/GUK6OgOlMD0zE/dXlwR0QEAHGFxrkNnaO//1bCPcfJAGR0YX0q8rA1ASsfdPUU4qbtkcIKADlEXsNr00QDhfSYOi1tzRW/x2/UVzTgCFlo49v1SgVfrQVgEBHaAs4rjzvsY2d37zbAzmV5VsrNQfKMN+qkgncbWgg4AOUAqbIZxv9hnOG0lxJvypsppWdKCopmdmYi+rIu2jtjs7OwI6COgAhRdbzfsad37/vWfjwZbxz8VxQQmAAobzOFdG0Xr5tGwZENAByuBaP13bQzivCeeFU1cCoIDh/GYBV+2WrQMCOkDRtU/89NO1Pu9rQrjiqSkBUMBwXsTfik1bCCZ4/6MEwIS40s+d7r93KnZtr2f82rHVvpX0ZtXdSv+epAd28SDvlaS7+5pOCgAUP5zH/fVGQffZW52dnbatBAI6QJHFQNxvi0KWYwmbYbnxzO9/2XrCfR6s171fPxcP+i4mJqYDKGo4Xws3lwu8ijdsJRDQAYqueeKn/Yw9PxWDcS2D14uhe/WZN75sD/KgZ378RQzyrRDUr6QnCsxcDlCMYL43GVy94KuqezsI6ACFd63P+1064uvszhI//cbtIx0ghaAeg/3S3V+d2ZtJXtd3gPEE89k0mDdKsLot3dth8pkkDii7rRM//fSpByz33z81n0ztjgcfPpxPJQvTr9/OrPXi+B99Hp9rIfl+zDoAownmtbDEE6T/nZRn2JHu7SCgA0zMActRupPHAL0wvXR7K+uVP/7Hn28J6QAjCeWzYWmEJc7O/tukXPOBtDs7O01bESqwr1ICeEwMTK2wfJT+Ofp+Nu7EbNwF0+rzfheGDudT3YXpxTtbeb2BGNLv/vJMDOk3fbYAMg3l9fR3+3xS/PHlT3LN1gQBHaqknf74NZ/5wy8Oa8n8fjbuf38utsZeKvmP/URstxM//bTf4Dxs9/YreYbzR0L63uRxAAwexJP0d/mlpDch6KT8RsfjkqatDAI6VEH80bv2zB98uTbIg575H1/EsL4Zgno9DVTzSjkWfQXn+++fGvYgrRXC+fqo3kwI6et3f3HmQuLED1COUHxzzKtQS7K5MkfRXevs7BgGBQI6VCLcLYdwPnTraAjqrXBz7t6vn4sTzTSUdLSmppIPBziIG8aVMbytKwI6UBL2VfmLwXxdGaA6TBJHlcP5wlHC+UNB/cdfLMewr6yj1m3lGNC3phfvtEb9jo7/yeetpM+eAQBMvFWt5yCgQ1XCeaY/eCGkN+MPqfKOVDvH5x7n5WxMBgTAlpnbQUCHSRdD+VLW4XxfSI/d0DaVeTRm3vwsz4A+zu3YsnUBKk/PPBDQYeJdeeb3v2zn/BrLiWtaj0Ke27E9vXinPa43dvxPPm/n/P4AKLb1zs6O4U5QQSaJq46WEiRJCOe5T7TyzI+/2L736+diF+XLKl7egF6Q91ezmQEqJ3ZtN2QOBHQm2bFXv24J6SMVTwTE66TPKkU5D44KsA63EjMkA1SRru1QYbq4Qw5iK3piLHqZfaMEAIwjnOvaDgI6kI93lQAA6FPTrO2AgA75aSlBab1SgHV4yWYAqIw47lzXdkBAh7yk3dzbKlFKRZg7oGYzAFQjnIdlQRkAAR3yJ6Dnp17S5y7TOgCQr3gyf6mzs+PyrICADnCYzubpxXG99t1fnFm0BQAqEc4XQjhvKwUgoAOlt/PW2XqOT39hjG/tgq0LUIlwbsZ2QECHEZpXglzVcnzuxc7m6ZGPRb/7izPxNbWgA0yuGMpfFs4BAR1G6N6vn4vhcVYl8tPtTvU723priKeP225lDG9rxecGYGLF36MFY84BAR1Gr64Eueu3h0J7yOe/3Nk8XRvVm7n7yzO1ZCq5bLMCTKT1EMyFc0BAhzExjjh/9e/+9fmntjYfe/XrGNCHPSDaGOH72bBJASbO3kztq0oBCOgwBmn3duOIRxTS+7zf5pDPP9/ZmLue95u4+8sz8TXMWQAwWVphORfC+aZSAP2YVoJquP/+qbVw83jX2e5B9556/G4H3a97yIt1p/q7Xz+PPew5Dlnv7pMfG89gv/zM7385iq5luimPzoU+w/etsDSGfI1GCOnJ9NLt5RzDecOmBJgY8VjjSgjm60pRXTtvnV3L8vlm3vxsTVUFdJgksSt0DEJLeb7IvV8/Vxe2Rir2VOgnOG8m3eRqMvwEbI3OO3PxdnX69duZnOS5+6szs+k6+bwATI5mGs7bSlF5WTfYCOgVoIs7lQtz9/7zR7mFoRDO904CMDqz3/3r80/dpsde/Xo7Gb6b+4OQHpabnbfn6kf/rJyJz3FTOAeYGK2kN0P7snAOCOjQv6v3/t+PMh/rm4bzGLhqSjxyF/u835UMXms+DenX7709+Ocozk8QlutJ0r2ZGHMOMEnBPC4t5QAEdBjMbpAOIb2eQzgXuMYjzub+1O157LXd2dybGb1mIywfhJD+wb3//NFKWA7d9vf+/bn58BlZCcsH4a+/TbSaA0yCpmAOZM0YdKoe0lef+YMvjzSBSwxfSTcxA/f4xXFe/RwgxcvcLCbDj0V/1Pzetg+fp3jTTrpT7fT/1XaXOFFhnP+wayMBlNxWWG7EcO565kAetKBTdbG7+wfDtKaHYD4bljjB1wchfAnn49dvK/ruzLo5rkcM5fV0qdksAKXXSnond18OoTxeMm1dOAfyogUd0jHF9/7juXhW/Fr8IX7mD79oPyGYx9bXeGmvhtIVTl+t6Mde+2r9/nvPnk9cq75oB8AA4xaDdzweuJXetoRxQECH8QX13RnYQ1iPAX0vpMfbWtLrEj2vm3Kh1b/7l+cbJ/7s02Yf911Ot6veD8XwrhIAYwjicflo78/COCCgQzHVEt2Ty+pqCOmbIaQ/8SDr2GtfbXd+8+xC0pu0bVbZxm5TCYAMbaUhPC4fpv/Win8PIXxLeQABHWA09q5Fv/TUHeDvPgjpG4kTMuPUPLnycXvC3lOcROrWGF+/PcT9r/goFkKZtsU413OvBfyhUK4FvJDbaph9ElTWlBJUw/33T60lvfG5D+v297HoHnS/w7p6d6f6u18/jz3sOQ5Z727S53p2B3jtvt93/1+7bjc5Qo0yfOwh/9btTmX+nHm8nwPX8/vHr574s0/7mqG/81/P9i6T152aP3idph5+7u7ezcH/fuh3oHvA+h9Wv8Pq0j3kvXefUs9BXvsp63DU136kTvFg+uUQ0B1UAzBRdt46m+nAyJk3P5PdKsAs7sCkil3d+xpfPv17X8VwGFvS15Vt5JaFcwAAAR2YfDdDSK/1G9KnL9yJl9GJXePbSjeycG7sOQCAgA5UQOy6vhFCet+TwIWQHgPjuaQ3Xk/Lbj6203DeVAoAAAEdqI7d69wPFNIX72yHZS388eWwxFZ1M/5mpxWWcycvfSKcAwAI6ICQPlBQX59euh1b1M+lYT0GTC3rg4n1ioF84eTPPlkI4bytJAAABxx/KgFQoZD+2xDSF0782acDt4iHkB4fE5fdieQ6b8/Nps/JU8J5COV6IAAACOgAD9m9nFoI6fESbM0j7TzfuB1bhVtKCgBAVnRxB6oY0q+HkH71u38erMs7AADkSQs6UFUrYVkMIX35xJ9/2lIOAKiGnbfO3hzRSzXD8pGKI6AD9KeWxC7v//x8/AG9EoJ6W0kAYOLVR/Q6CzNvftYa15vceetsFvPlbIX3YHJcAR1gpBpJrzX9WtJN1k/8xad+iACAstu9is0Rn2MhMeeOgE4uyvTF+mHS634MoxTPMl8Oy6Xv/un5zSS2qP+FFnUAAAR0Mnbs1a9bZQrpnY25euISVowvqDfiEoJ6vDzYjaSbbJ74S2EdAAABnWq6FpbrysCYzafL1e/+cTest8JyK96GwK4bPAAAAjqVsCmgU9Cwvjv8IgT2GNBjaI+3Hz64V/fhB3W7U/2/Qvcpfx/08YM8x4GPnRrosSdXP17zMQEAENCZtA/m0u3tzsZcM+l1NYYiil3h6+mfF5Vjl4AOAHAEP1ACCuyGEgAAAAI6jNn00u1WuGmrBAAAIKDD+F1TAgAAQECH8dtUAgAAQECHMZteut0W0gEAAAEdiqBrsjgAAEBAh7Gbfv12bEHfVgkAAEBAh/FrKgEAADDJppWgGu6/f6oWbmqP/Y/uQfeeevxuB92ve8iLdaeedL/t6cU7W0O8hTib+4otCRTqR3Rm5maGT3ejs7PTnID3sRrex9YY3sN8uLma1fOF97Aw5HrEdZj37RitQbdX2E7xmKiR0cv/sCLbPPZm/DD9cyv+fRzfdRDQmRTxR+hyQXbuvzPwB/X12+3OO3Pxx6BuUwIFk9V+6dYEvIdodkzvYbEgvxHzfqtKoVaQ46KyWUxvd2s3PTOzF9ZjUL8VAruJfUFAp2RmO5unF6cX7wyzA7/hoAeYYK8oQWFoFYT+1dNlJQT22BATj/Fij6CW0oxdOyxXMngOBHQm3MVkuEunxcfEroOzSggUKMjVM3ou+7ajyfIEh4lJYfj9WCMuIazHgH5FUB+fmTc/i+F6TSXKxSRxjMNiZ/N0bdAHTb9+eztxTXSgWL7J8LlqynnkYJCVtnLCkdXDcjPOcZGO+QcEdIoc0od83DWlAwokyyDnALY49ftIOSHToP5BCOkNpQABneK6NMyDpl+/HbuTGhsITGJAT7QyFSag6+IO2Yo9XK4L6SCgU+ADqc7m6fqQj72hfEBBZB3kBPQh5HBiw4lgyIeQDgI6BXZxyMc1lQ4oghyuAWyiuOHUlACEdBDQ4Wganc3TAx+MppPFCenAJJpXgqFkemLDrNOQu6uG9MAhWUcJGLPFIcP2u0nvMh4A4xbDXF0ZxsqJDSiX3THpYVkY0+tfGdHrXN1562zR57RYnXnzM8N6BHR44NIwAX36jdubnbfn2olujcBkOa8EY+dAFUajPj0zUx9Hj5UQSNdG8TohnF8uwXYwtKpgdHFn3OY7m6eHbfkwWRwg0BFleWLDDO4wOpeVAAR0iufSkI9rKh1QAN9k+Fy6ao+fEy4wOrEV3X4PBHQKZnGYB02/cbsdbjaVDxizdobPpavhkAf5GT7XN8oJI3VRCWBfxlECCmC2s3m6Mb14pznEY98dNuADFDCg717Tu7Oz01bWydieVEbseTFpwyPqI3qdeBy36iMEAjrFEs+eDhzQp9+43ey8PXc10ep0VK30oPSj9O8vJb0J+OpKA0+V9UF5TUgc4Hcg++6xRar9lc7OzpqtXAqrk3h5vvRSaPX0OC2vY4KaE5MgoFdR0Xd69c7m6dr04p1h1jMG+xWbeKi6vXv8f37+xGECOzfOxjPbF5LeGW4nQjhMZcfthoPKrXBwmeVT+p6Nt14miYPv92/t9HihGWdcT3qXRqvl8FLziROTsMsYdAG9SBpDPu6azTtwMP+d43/6+XJYnjqGf+biZ5thWQ5/fDkxMR9CzSiYMGkwmYaFeMJFSeHA70Yr3JxL8jkha78HAjoFNNQkIelkcQ6o+glQU8lCGswHDlMhpG+nQX0hcZYbHtVSgskI6MATQ3o8fljO4alfUV1Is40SUKSDrM7m6cXpxTvDzMweW9GvK+Gh4gmMheM/+fzIrZwhpLd2bpyNZ9BvJs54Qx7OK8FAXsrwuVrKCU8N6XFYz3qS7fDCqg/taSbfzwOUldjwVfOJFdApdkArvu5U3JkME9A3u0lisricw/m+kL4dQvqCkM4+t3zPTKo4Jg5AYfRuJOb/ybSeM29+1sryCXfeOnve/rGcdHGviGOvfl2W8aGLnY25gUP29Bu3txPXRD/Ible0LMP5/pAebpYSY48hyvLa2YL+YLI8MWu4FPQhnashy99/QRIE9Epql2Q9G0M+zmRxj7sSwnluB5whpMfPlGuXUqb9i/c/ebLsxfONckLfsjy+ENBBQHcAWWCXhnnQM298ueUg+SGtEM7X836RmcZnzcS4TXz3Mn3/OVzbG59jAErAGPRqKcsYyVpnY64+vXR7mNAXx0XXbOqRH2heSXTLtX+ptqyHephPo5+DmN51mQV08BsCAjql9FGJ1jVOFjdwQH/mjS/bDrBGb6bxWWuneTbWvaYa1QynJ1c/rvRcBOmsxlk+pe/SmD7LSgC+ezBOurhXS5nOTg41WRxjZZI++xYE9FHLdChAOvEVMIbvH9CjBd1BdFHFcL6Y9K4LSTnEy2y55EoVTVX+Emt7Wkl2Qz1+qJx9/1YAow4QvXkyCncFhZ23zt60dRDQKY14qbX7759qJ+VpmbkkoJeKlifbnuxomerPKxk+V0s5oW8XM36+rIZh1m0ayk4X9+op0wHIfGdjrmaTlcNMY/eSawjo6sAoaUGHEZuemYnHZo0KH5+CgE6mytYV9ZJNBoXWPrnycVsZdmV5De26cvalluFzOcECTw/n8aTYRpLtybFt8z+AgF5lrZKtb8MmA/uUkmgrQakD+jfKCU8M5/H7Fsd4Zz0ExySzIKBX17FXv26X7CBytrMxJ6SXwE7zrK6m1WSCuJwCejoJE4fXZ7bI2w8mKZiHZS388YMkn/kx3lVl2PedU4JKimcqyzTb9oXEZHFlIExUd39CT9bX8XXSa7T7nCIG9PNpMCLZvQxekWtxMWyr+oSV/JX0e1bL8TXaYbv6HQEBvfLKdjmsxc47c7Xp12+3bbpCqytB5WydXPl4WxkehIetcICe5VPWVPWJsj6BUcTPct2+9SFFDugNm2coV5QAHqaLewUde/XrzYIeiPjhK7cLSlA5N5Qg15AnoD9Zpi3oJqmCkWuF711TGUBAp6ds3Yku2mTFtdM8W090cbcfIcoy5L2knMCEiiczl5UBHqeLe3XFCTkaJVrfWueduevh9qPdv3UPusvUwf/c7fffpvpbk+6A/37QenaHfewB9z38sdvHf/L5+oi2z2Vfqcppubxa/vs9JXii81l+npUTRmqps7Mzzt+Q5oNjSsdHCOgUQezmfv/9U+2SHQA2bLnB3P35mXYI6bm2cqat53XVrhzd2w92K8Pvg0nigEm0HMJ5a9y/YTNvfpb7Ouy8dVZAZ2C6uDvAZrJdDyE9t4P8nRu7l1a7rsyVE7sm6t6eP8NGRlcf489hNL8dC8adw5NpQa+y7m73Hmf2JlsM0DdDSF84/pPP85gY8GaiG24VbZq9XdAryP4tK98oJ+SuZR95qIs7b+32SMyS4zMBnbI59trX7fvvnYohvaEaE20+65C+r+VcC181uSzO4TI9cRGvq1yArqDFO3iZmanCNdBh0iyGpR6+v8uuff4Yx+I8oIs7urlXK6Qf+aA2hPNa0ms5X1TWSjI5nKBXBLO2G5T2u7sRQvqaUoCAzgGOvfZ1KzF7bXVCejeE9P97Zi0sQx3chnAef1A/SLScV5nW8yfIYVbi3L9r4UC5kfFTXhhBqWsZP58hGzBal8O+xxw2cNDvshKQHnDXlaESYjCP8w5cCiH9WrhtHv/Tz9tPCeXxQDgewF9MjGequth63lKGvsLebIbf2byCeXzuq0n2XStXwnPHfUXsxppX8M10XxTW07hYGL1G2FfE75/roYOAzn6xFf3+e6daQnolg/rlu/92Jgb0uP0fXA+027sm/EvpZ0IoZ4/W8/5sZbg/fSmncB5b5vOcRyIOgZkPr7OUU/j9oY8ZTExIv2VmdxDQOfjAW0CvphjAG8rAU2g9H9/3M+twvpiG89kRrPvN8HqrORx8Z3liwecaxutq2E+0chgiBKVkDDq7jEUHnkLref9uZfhcmYbocBAcu7RvjCCc71//63GsadqlHuCg/YTL/oKAzgGMAQIO0tR6PjaZtBTHMeFhiRM8rozpfTSSXmt6LaPnq2e4brd8zGDsGhnuH6DUdHHngfS66OtjPIADiidO8qX1fDCZjrmOLc9HmWwtXks9GW2r+WHiyYYPXAN5IM3E5VDLYiF8rlsTFRJ6vV72ThLG/cgrSb6XWI2t6BqLENCVgEfEA/FGAQ7kgILsE1z3fGBZz1weD5CHOvBPrzVcpK6je9dAXg9hZnXI91TPeJ2KPIP7R5MW+iiP9MTg3uevtS+0r+S0X1mcwIA+7Anul5L+5geKv89HPYnnN15Ap8iOvfb19v33no07xw3VgMrbCuF8XRnKd7CTHkTH/Xi9oDVaSWeSX8rxUmz9cg10GCy0r4Xvb+wFczPJtkFnNp6Am6STUjNvfrY2zON23jpb7zegD/saFJcx6BwQ0r+KO13dD6Hqprq6Gg53AJt1QB8oZKfB94Ok+FfmiOv323R9B5H1peHaPrUw8H4u9jxZyGm/AAI6HCAemGtVgOq6cvLSJ1vKMLSx7D9D2F1Jw3mtJHWKrW8fpOs9yGOyDBoCOgwf0rOeo+S8yiKgwwGOvfZVPLhcUgmopFYI52vKcCRZntx4pY9gHruGxmubXy1pveJ1kDf6vBTbSxm+rhPRcDRZD4OaV1IEdDg8pLdy2PECxRYDi67txTL7lHAeD2jjWNBGyd9nnCDqZh9d3msZvqZeInAEj0wkl/v+DgR0hPTXvlp1AAOVsnTy0idtZTiyLK+tXXtCOG+k4XxSWp3m05DeGFFAB4q1v0uGmJcCBHSqpdvdnQREN0CYfHHceUsZCqd2yEFs7M4eu7WPqsVpVJ+N+H6up1328w7ot3y84MjaOewDQECHw0z/7u54dCEdJlvTuPNMZdrzaP/Y7PDnWljiRHArI3w/q52dnfg7sDTC34JGfJ/x/R5UB2BiAzoI6NBHSI8Hm6sqARMbJn2/s5V1iJ1PA2o96c3SPj/C97EQwvnufCThNl6CcyEZ3dCn3UvGpe87yeF9G8IFgIBOaUN6MzF5FExiOF84eekTPWSy1c58Hzwzs5b0xpvPjvKzEUJ5a/8/7rv+8eaI1iO+35vp+8+azz0cXU0JQEBnvCHdzO4wGXZbR0/+TDjPWg7X1t4Iy+URvoXNNJxvHfL+tsMSu7tfGeE6XU7rkKW2TysI6CCgU/aQHrvCNlUChHOeWuOsjHLs9ZUYvtPLJz1RuM9a0utZNarPUaZ1yOFEClTReSUAAZ3xh/RlIR1KH86Nv83XVgk/F0tp6B4k5MbfgtjlvV3C9wsc5XiwN3Fj3XcTBHSKsFP+PSEdSqgtnHOAvfHmQ40rT7vCn0tGdym2rN4zcDSZX03isKE1IKBD/yHdxHFQnkByTjgfmbJcY/uJ480HOKjeTi/FZp4SqMIxYO8SiJcyflqt5wjoSkAGIb0ppEMpwrkx5zxqvd/x5gME9dVktOPSh3XL5oehw3ns2h4nbcx6fgwnkBHQlYAMQ/q5xJlPKKJmCObnhPORK/KBZvwsLKdhOnP7xqX7zMHkhfPFcPPbsMzn8PROnCGgKwEZhvRwMDp1LnH2E4pkNQRzPVzGF4KLqJ30urQ383yRtMv8ywX+TfBbBf2H8npYVsISg3keLed7WqpN5b9vSkC2If1Ou/Pu6dhqcjUsDRWBsYawJePNx74NiiYe/Gbapf0pIT2+zrlwUH+9gL8JZWjdvxxqd9lXqa/P2tSYV+Fq2FaT1mMkhvD5UX4nw3YU0JGnlIDMP1QX7vS6Tr57+t1wez0Z7fV7gd6kX8sn/06X9jEHhnY4YC/SKq3n1aW9j1osh1rcSn8TiqLtU0qG5pUgk98uqDxd3MkzqMcdbdkuuwNlFgP5agjmS8K5EPjI52J5XOF8X0hvJgWaqySeQPHxhEK5oQQgoJN/SG9PL96JXd5XE5MFQZ5aMfyEYO4SVwL6o+E89/HmA4TiveulbxWgLkCBfsN0bwcBnVEG9cU7MTTEyYJ0X4LsA+DSyb/9ZCGE87ZyFM44g+DuJG1Hvb55DiE9fk7jidvmmGsDFMcVJQABndGH9O2wLKUHZg6O4OjBLx7QnAvh3Imv4vpwTK/bDEH43KgmgxsipMfJoOLVBVZ9RKDyNrWeg4DOeIN6Kyyxi2M8OGurCAwevtJgvhYWXXV51HIafgsvrGfsXTWO66W71jIUw3Z6PAgI6BQgqDfD8rKgDgMF85dDKF8Oi+9MObRGfKB7rijjzQcI6a1EzyqoqqWi9vQBAR1BvRfUHaDB46FrXTDnKQo53nyAkL6VhvTNEdYLGK9lXdvhgGykBBQpqCdx3OTGXD3cXgxLQ1WoeOC6FgOLbuyl3455a5alS/tTQnr8nC9Nz8yshdvLOb+c7xSMP5w3x/j6N3feOmsrIKBDXx/KpdutJF5uY2MuTh60mIb1uspQATE0xAOWGyf/5hMtfBMghs4QOPN8idV0HPck1Wwt1Cx+/q+HZTanl2n7dMJYxO/eUll7+4CATtWD+l5YaXbemaulYf18eguTdLASu/XeCqHcbOyTu41rGT/ndnqQ25rEgoX3tRlCeqzbRg6127vUGzBa8WTiFWPOQUBnEj6or99upzv23Zaizttze2G9HpZ5FaJE4oFJDFVxFunNk39tTLmAPrCtNJxP9GcntrCFkH4uDen1jL+DwOg002Du9w4EdCb2g/vG7djS+KC1MQT2ercX1F9JD4Tjn2dVijHbSsPArfTPWwJ5JWUZCOOB7mpVWqDS97kQgvrVcLuS4fcSyFc7PU67JpiDgE41A3srOeByRvfe/lE9/WMtebwF67zKccSDj48e+be9z2D7xF996oCEPR8m2QzNmbjx5gME9dUQ0mMdY1B38hWK+ZsYT37FE9ItY8xBQIcDPfPGly1VAApw4HrUfdGVql+OKM74nE4ed/WIT3Uj51UVTMphO4PvZRXdeuSzHuu4ZVw5ZGdKCQAAgLLbeetst2JvuTXz5mcLtvxk+YESAAAAgIAOAAAAAAAAAAAAAAAAAAAAAAAAAAAAAAAAAAAAAAAAAAAAAAAAAAAAAAAAAAAAAAAAAAAAAAAAAAAAAAAAAAAAAAAAAAAAAAAAAAAAAAAAAAAAAAAAAAAAAAAAAAAAAAAAAAAAAAAAAAAAAAAAAAAAAAAAAAAAAAAAAAAAAAAAAAAAAAAAAAAAAAAAAAAAAAAAAAAAAAAAAAAAAAAAAAAAAAAAAAAAAAAAAAAAAAAAAAAAAAAAAAAAAAAAAAAAAAAAAAAAAAAAAAAAAAAAAAAAAAAAAAAAAAAAAAAAAAAAAAAAAAAAAAAAAAAAAAAAAAAAAAAAAAAAAAAAAAAAAAAAAAAAAAAAAAAAAAAAAAAAAAAAAAAAAAAAAAAAAAAAAAAAAAAAAAAAAAAAAAAAAAAAAAAAAAAAAAAAAAAAAAAAAAAAAAAAAAAAAAAAAAAAAAAAAAAAAAAAAAAAAAAAAAAAAAAAAAAAAAAAAAAAAAAAAAAAAAAAAAAAAAAAAAAAAAAAAAAAAAAAAAAAAAAAAAAAAAAAAAAAAAAAAAAAAAAAAAAAAAAAAAAAAAAAAAAAMOH+vwADAG9Mfs8wIfgDAAAAAElFTkSuQmCC;" parent="1" vertex="1">
          <mxGeometry x="-720" y="240" width="560" height="80" as="geometry" />
        </mxCell>
        <mxCell id="neBnvLhtb3KantFYFcH3-31" value="Inji Verify - Verifies VC" style="label;whiteSpace=wrap;html=1;align=center;verticalAlign=bottom;spacingLeft=0;spacingBottom=4;imageAlign=center;imageVerticalAlign=top;image=data:image/svg+xml,PHN2ZyB4bWxuczp4bGluaz0iaHR0cDovL3d3dy53My5vcmcvMTk5OS94bGluayIgeG1sbnM9Imh0dHA6Ly93d3cudzMub3JnLzIwMDAvc3ZnIiB2aWV3Qm94PSIwIDAgMTA0Ljc4MiAzOS42MzIiIGhlaWdodD0iMzkuNjMyIiB3aWR0aD0iMTA0Ljc4MiI+JiN4YTsgIDxkZWZzPiYjeGE7ICAgIDxsaW5lYXJHcmFkaWVudCBncmFkaWVudFVuaXRzPSJvYmplY3RCb3VuZGluZ0JveCIgeTI9IjAuNSIgeDI9IjEiIHkxPSIwLjUiIGlkPSJsaW5lYXItZ3JhZGllbnQiPiYjeGE7ICAgICAgPHN0b3Agc3RvcC1jb2xvcj0iI2ZmYjYwMCIgb2Zmc2V0PSIwIi8+JiN4YTsgICAgICA8c3RvcCBzdG9wLWNvbG9yPSIjZmY4ZjAwIiBvZmZzZXQ9IjEiLz4mI3hhOyAgICA8L2xpbmVhckdyYWRpZW50PiYjeGE7ICAgIDxsaW5lYXJHcmFkaWVudCBncmFkaWVudFVuaXRzPSJvYmplY3RCb3VuZGluZ0JveCIgeTI9IjAuNSIgeDI9IjEiIHkxPSIwLjUiIGlkPSJsaW5lYXItZ3JhZGllbnQtMyI+JiN4YTsgICAgICA8c3RvcCBzdG9wLWNvbG9yPSIjZmY4ZjAwIiBvZmZzZXQ9IjAiLz4mI3hhOyAgICAgIDxzdG9wIHN0b3AtY29sb3I9IiNmZmI2MDAiIG9mZnNldD0iMSIvPiYjeGE7ICAgIDwvbGluZWFyR3JhZGllbnQ+JiN4YTsgICAgPGxpbmVhckdyYWRpZW50IHhsaW5rOmhyZWY9IiNsaW5lYXItZ3JhZGllbnQtMyIgeTI9Ii03LjE3NCIgeDI9Ii0wLjQ5MyIgeTE9Ii03LjE3NCIgeDE9Ii0xLjUzOSIgaWQ9ImxpbmVhci1ncmFkaWVudC00Ii8+JiN4YTsgIDwvZGVmcz4mI3hhOyAgPGcgdHJhbnNmb3JtPSJ0cmFuc2xhdGUoLTIyNSAtNDYpIiBkYXRhLW5hbWU9Ikdyb3VwIDU4MTI4IiBpZD0iR3JvdXBfNTgxMjgiPiYjeGE7ICAgIDxnIHRyYW5zZm9ybT0idHJhbnNsYXRlKDIyNSA0NikiIGlkPSJMYW5kc2NhcGVfSW5qaV9Mb2dvX1NjYWxhYmxlIj4mI3hhOyAgICAgIDxnIHRyYW5zZm9ybT0idHJhbnNsYXRlKDApIiBkYXRhLW5hbWU9Ikdyb3VwIDU3NTUzIiBpZD0iR3JvdXBfNTc1NTMiPiYjeGE7ICAgICAgICA8cGF0aCBmaWxsPSJ1cmwoI2xpbmVhci1ncmFkaWVudCkiIHRyYW5zZm9ybT0idHJhbnNsYXRlKC0yNzguNTY2IC0yMjguNzEpIiBkPSJNMzEzLjk1MywyNDguNDFoLTguNDYxYTMuMDYzLDMuMDYzLDAsMCwwLTMuMDYyLDMuMDYydi45NThhMy4wNjMsMy4wNjMsMCwwLDAsMy4wNjIsMy4wNjJoOC40NjFhMS42LDEuNiwwLDAsMCwxLjYtMS41OTN2LTMuODkxQTEuNiwxLjYsMCwwLDAsMzEzLjk1MywyNDguNDFabS03Ljk3OCw1LjZhMi4wNjQsMi4wNjQsMCwxLDEsMi4wNjQtMi4wNjRBMi4wNjQsMi4wNjQsMCwwLDEsMzA1Ljk3NSwyNTQuMDEyWiIgZGF0YS1uYW1lPSJQYXRoIDE1NTU3NCIgaWQ9IlBhdGhfMTU1NTc0Ii8+JiN4YTsgICAgICAgIDxwYXRoIGZpbGw9InVybCgjbGluZWFyLWdyYWRpZW50KSIgdHJhbnNmb3JtPSJ0cmFuc2xhdGUoLTg0LjQ5IC0xMjkuNDYzKSIgZD0iTTExMS43MTksMTQ3Ljk3OGg3Ljc0di0yLjMwOGE4LjcwOCw4LjcwOCwwLDAsMC04LjcxLTguNzA5SDkzLjJhOC43MDgsOC43MDgsMCwwLDAtOC43MSw4LjcwOVYxNDcuOEg4OC43bDEuODIxLTQuN2g2LjExYTEuODg4LDEuODg4LDAsMSwxLS4wMzUsMS43SDkxLjY4NGwtMS44MjEsNC43SDg0LjQ5djIuOTI2aDguMDgzYTEuODg3LDEuODg3LDAsMSwxLDAsMS43SDg0LjQ5VjE1N2g1LjM3NGwxLjgyMSw0LjdIMTAwYTEuODg1LDEuODg1LDAsMSwxLC4wMzUsMS43SDkwLjUyMUw4OC43LDE1OC43SDg0LjQ5djEuNjg3QTguNzA4LDguNzA4LDAsMCwwLDkzLjIsMTY5LjFoMTcuNTVhOC43MDgsOC43MDgsMCwwLDAsOC43MS04LjcwOXYtMi45NmgtNy43NGE0LjcyNCw0LjcyNCwwLDAsMSwwLTkuNDQ5WiIgZGF0YS1uYW1lPSJQYXRoIDE1NTU3NSIgaWQ9IlBhdGhfMTU1NTc1Ii8+JiN4YTsgICAgICAgIDxwYXRoIGZpbGw9InVybCgjbGluZWFyLWdyYWRpZW50LTMpIiB0cmFuc2Zvcm09InRyYW5zbGF0ZSgtMjAyLjkyNyAtODcuNzM3KSIgZD0iTTIxNy40OSw5My41OTFoMTUuMDkycy0uMi0zLjEyNy0yLjU4My0zLjQ2N1MyMTcuNDksOTMuNTkxLDIxNy40OSw5My41OTFaIiBkYXRhLW5hbWU9IlBhdGggMTU1NTc2IiBpZD0iUGF0aF8xNTU1NzYiLz4mI3hhOyAgICAgICAgPHBhdGggZmlsbD0idXJsKCNsaW5lYXItZ3JhZGllbnQtNCkiIHRyYW5zZm9ybT0idHJhbnNsYXRlKC0xNjQuNTI4IC02OC40OTQpIiBkPSJNMTc0LjM3LDczLjg1bDEwLjk1Ni0zLjM2NXMtMS4zNDktMi4yNS0zLjE1Mi0xLjk2N1MxNzQuMzcsNzMuODUsMTc0LjM3LDczLjg1WiIgZGF0YS1uYW1lPSJQYXRoIDE1NTU3NyIgaWQ9IlBhdGhfMTU1NTc3Ii8+JiN4YTsgICAgICA8L2c+JiN4YTsgICAgICA8cGF0aCB0cmFuc2Zvcm09InRyYW5zbGF0ZSgtNDQ1LjM2NyAtMTY1LjYyNSkiIGQ9Ik00OTIuNzA2LDE5MS41NTVINDg4LjczVjE3NS4xNmgzLjk3NlptNS41NDMsMGgtMy45NzVWMTc1LjE2OGg1LjlxNS4yNDQsMCw3LjgyNCwyLjM0N3QyLjU4LDcuMzc5djYuNjYySDUwNi42di03LjIxMWE0LjgxOSw0LjgxOSwwLDAsMC0xLjc1NS00LjE2NSw3LjY0Myw3LjY0MywwLDAsMC00LjYzMS0xLjI4OWgtMS45NjZ2MTIuNjY0Wm0yMS41ODQtNy42MTJ2LTUuMDU0aC03Ljg2N3YtMy43MjFoMTEuODQzdjkuMzI0YTYuNjQ5LDYuNjQ5LDAsMCwxLTEuOTg4LDUuMDMyLDYuNDg2LDYuNDg2LDAsMCwxLTMuMDQzLDEuNjQ5LDE5LjIyNiwxOS4yMjYsMCwwLDEtNC4xNDQuMzgxaC0yLjh2LTMuNzIyaDMuMzQxcTQuNjUzLDAsNC42NTMtMy44OW05LjMwNyw3LjYxMmgtMy45NzhWMTc1LjE2OGgzLjk3NVoiIGlkPSJQYXRoXzEwIi8+JiN4YTsgICAgPC9nPiYjeGE7ICAgIDxnIHRyYW5zZm9ybT0idHJhbnNsYXRlKDI2OC42OTEgNzUuMTM3KSIgZGF0YS1uYW1lPSJHcm91cCA1NzU4NSIgaWQ9Ikdyb3VwXzU3NTg1Ij4mI3hhOyAgICAgIDxwYXRoIHRyYW5zZm9ybT0idHJhbnNsYXRlKDAgMjIuMTY1KSIgZD0iTTQuMS0xMy4wNjgsMC0yMi4xNjVIMi4yMTRsMy4zNzIsNy41MDdoLjE2NWwzLjM3Mi03LjUwN2gyLjIxNGwtNC4xLDkuMVptOC4xMywwdi05LjFIMjIuMnYxLjY1NEgxNC4yNjJ2Mi4wMWg3LjJ2MS42NTRoLTcuMnYyLjEyNUgyMi4ydjEuNjU0Wm0xMS4zNzQsMHYtOS4xaDcuNjIxYTMuMTQyLDMuMTQyLDAsMCwxLDIuMTk1LjcxMkEyLjc4MywyLjc4MywwLDAsMSwzNC4yLTE5LjI5YTIuOTcsMi45NywwLDAsMS0uNTczLDEuOTM0QTIuNTY2LDIuNTY2LDAsMCwxLDMyLTE2LjQ3OGwyLjEsMy40MUgzMS43ODJsLTEuOTQ3LTMuMzQ2aC00LjJ2My4zNDZabTcuMzc5LTcuNDQzSDI1LjYzN3YyLjQzbDUuMzQ0LjAxM2ExLjIxLDEuMjEsMCwwLDAsLjg1OS0uMjgsMS4yNDcsMS4yNDcsMCwwLDAsLjMtLjk0MiwxLjI0NCwxLjI0NCwwLDAsMC0uMy0uOTQ4QTEuMjI4LDEuMjI4LDAsMCwwLDMwLjk4LTIwLjUxMVptNC43NDYsNy40NDN2LTkuMWgyLjAzNnY5LjFabTMuODE3LDB2LTkuMWg5LjcydjEuNjU0SDQxLjU3OXYyLjUxOWg2LjY5MnYxLjY1NEg0MS41Nzl2My4yN1ptMTUuMDUxLDB2LTMuMjQ0bC00LjA4NC01Ljg1M2gyLjRsMi42NzIsNC4zNDQsMy4yNDYtNC4zNDRoMi4yNTdsLTQuNDQ4LDUuODR2My4yNTdaIiBkYXRhLW5hbWU9IlBhdGggMTU1NTc5IiBpZD0iUGF0aF8xNTU1NzkiLz4mI3hhOyAgICA8L2c+JiN4YTsgIDwvZz4mI3hhOzwvc3ZnPg==;" parent="1" vertex="1">
          <mxGeometry x="-320" y="360" width="160" height="80" as="geometry" />
        </mxCell>
      </root>
    </mxGraphModel>
  </diagram>
</mxfile>
